SplineFontDB: 3.2
FontName: Rom-Bold
FullName: Rom Bold
FamilyName: Rom
Weight: Bold
Copyright: (c) designteam 2019
Version: 2.000
ItalicAngle: 0
UnderlinePosition: -100
UnderlineWidth: 50
Ascent: 750
Descent: 250
InvalidEm: 0
LayerCount: 2
Layer: 0 0 "Back" 1
Layer: 1 0 "Fore" 0
XUID: [1021 595 1893679584 15004662]
BaseHoriz: 2 'ideo' 'romn'
BaseScript: 'DFLT' 1  -163 0
BaseScript: 'cyrl' 1  -163 0
BaseScript: 'grek' 1  -163 0
BaseScript: 'latn' 1  -163 0
StyleMap: 0x0000
FSType: 8
OS2Version: 0
OS2_WeightWidthSlopeOnly: 1
OS2_UseTypoMetrics: 1
CreationTime: 1344823671
ModificationTime: 1601110186
PfmFamily: 33
TTFWeight: 700
TTFWidth: 5
LineGap: 200
VLineGap: 0
Panose: 2 11 6 3 3 4 3 2 2 4
OS2TypoAscent: 750
OS2TypoAOffset: 0
OS2TypoDescent: -250
OS2TypoDOffset: 0
OS2TypoLinegap: 200
OS2WinAscent: 935
OS2WinAOffset: 0
OS2WinDescent: 250
OS2WinDOffset: 0
HheadAscent: 750
HheadAOffset: 0
HheadDescent: -250
HheadDOffset: 0
OS2SubXSize: 650
OS2SubYSize: 600
OS2SubXOff: 0
OS2SubYOff: 75
OS2SupXSize: 650
OS2SupYSize: 600
OS2SupXOff: 0
OS2SupYOff: 350
OS2StrikeYSize: 50
OS2StrikeYPos: 290
OS2CapHeight: 674
OS2XHeight: 484
OS2FamilyClass: 2048
OS2Vendor: 'DtEu'
OS2CodePages: 2000019f.00000000
OS2UnicodeRanges: 20000287.00000001.00000000.00000000
Lookup: 1 0 0 "'aalt' Access All Alternates lookup 0" { "'aalt' Access All Alternates lookup 0 subtable"  } ['aalt' ('DFLT' <'dflt' > 'cyrl' <'dflt' > 'grek' <'dflt' > 'latn' <'AZE ' 'CRT ' 'MOL ' 'ROM ' 'TRK ' 'dflt' > ) ]
Lookup: 3 0 0 "'aalt' Access All Alternates lookup 1" { "'aalt' Access All Alternates lookup 1 subtable"  } ['aalt' ('DFLT' <'dflt' > 'cyrl' <'dflt' > 'grek' <'dflt' > 'latn' <'AZE ' 'CRT ' 'MOL ' 'ROM ' 'TRK ' 'dflt' > ) ]
Lookup: 1 0 0 "'locl' Localized Forms in Latin lookup 2" { "'locl' Localized Forms in Latin lookup 2 subtable"  } ['locl' ('latn' <'AZE ' 'CRT ' 'TRK ' > ) ]

StartChar: .notdef
Encoding: 65536 -1 0
Width: 500
Flags: MW
HStem: 0 50<80 420 80 500> 650 50<80 420 80 80>
VStem: 0 50<95 605 95 700> 450 50<95 605 605 605>
LayerCount: 2
Fore
SplineSet
0 0 m 1
 0 700 l 1
 500 700 l 1
 500 0 l 1
 0 0 l 1
250 395 m 1
 420 650 l 1
 80 650 l 1
 250 395 l 1
280 350 m 1
 450 95 l 1
 450 605 l 1
 280 350 l 1
80 50 m 1
 420 50 l 1
 250 305 l 1
 80 50 l 1
50 605 m 1
 50 95 l 1
 220 350 l 1
 50 605 l 1
EndSplineSet
EndChar

StartChar: exclam
Encoding: 33 33 2
Width: 251
Flags: MW
HStem: -11 156<103 148 103 148> 654 20G<60 190 190 190>
VStem: 50 151<44.5 90> 69 112
LayerCount: 2
Fore
SplineSet
172 208 m 1xd0
 78 208 l 1
 60 674 l 1
 190 674 l 1
 172 208 l 1xd0
125 -11 m 0xe0
 80 -11 49 22 50 67 c 0
 50 113 81 145 125 145 c 0
 171 145 200 113 201 67 c 0
 201 22 171 -11 125 -11 c 0xe0
EndSplineSet
EndChar

StartChar: quotedbl
Encoding: 34 34 3
Width: 370
Flags: MW
HStem: 428 257<62 135 62 62 235 235 235 308>
VStem: 42 286<685 685>
LayerCount: 2
Fore
SplineSet
42 685 m 1
 155 685 l 1
 135 428 l 1
 62 428 l 1
 42 685 l 1
215 685 m 1
 328 685 l 1
 308 428 l 1
 235 428 l 1
 215 685 l 1
EndSplineSet
EndChar

StartChar: numbersign
Encoding: 35 35 4
Width: 526
Flags: MW
HStem: 0 21G<93 169 93 93 265 265 265 342> 187 77<207 291 37 195 380 464> 391 77<63 149 63 160 236 321 63 224 409 490> 630 20G<186 261 261 261 359 434 434 434>
VStem: 37 453<186 468 264 468>
LayerCount: 2
Fore
SplineSet
207 264 m 1
 304 264 l 1
 321 391 l 1
 224 391 l 1
 207 264 l 1
169 0 m 1
 93 0 l 1
 119 186 l 1
 37 186 l 1
 37 264 l 1
 131 264 l 1
 149 391 l 1
 63 391 l 1
 63 468 l 1
 160 468 l 1
 186 650 l 1
 261 650 l 1
 236 468 l 1
 333 468 l 1
 359 650 l 1
 434 650 l 1
 409 468 l 1
 490 468 l 1
 490 391 l 1
 397 391 l 1
 380 264 l 1
 464 264 l 1
 464 187 l 1
 367 187 l 1
 342 0 l 1
 265 0 l 1
 291 187 l 1
 195 187 l 1
 169 0 l 1
EndSplineSet
Substitution2: "'onum' Oldstyle Figures lookup 14 subtable" numbersign.taboldstyle
Substitution2: "'aalt' Access All Alternates lookup 0 subtable" numbersign.taboldstyle
EndChar

StartChar: dollar
Encoding: 36 36 5
Width: 536
Flags: MW
HStem: 11 94<222 222> 548 184<250 310 228 319>
VStem: 67 123<457.5 495 457.5 507> 222 82<-86 11 11 11> 228 82<639 732 639 732 639 732> 349 124<160 206.5>
LayerCount: 2
Fore
SplineSet
304 -86 m 1xf4
 222 -86 l 1
 222 11 l 1xf4
 159 13 96 31 60 55 c 1
 87 149 l 1
 126 126 182 105 243 105 c 0
 306 105 349 136 349 184 c 0
 349 229 314 258 240 285 c 0
 135 323 67 371 67 464 c 0
 67 550 127 616 228 634 c 1
 228 732 l 1
 310 732 l 1
 310 639 l 1xec
 373 637 416 622 448 606 c 1
 421 514 l 1
 397 525 353 548 285 548 c 0
 215 548 190 512 190 478 c 0
 190 437 226 414 311 380 c 0
 423 338 473 284 473 195 c 0
 473 110 414 35 304 17 c 1
 304 -86 l 1xf4
EndSplineSet
Substitution2: "'onum' Oldstyle Figures lookup 14 subtable" dollar.taboldstyle
Substitution2: "'subs' Subscript lookup 13 subtable" dollar.inferior
Substitution2: "'sups' Superscript lookup 12 subtable" dollar.superior
Substitution2: "'dnom' Denominators lookup 6 subtable" dollar.denominator
Substitution2: "'numr' Numerators lookup 5 subtable" dollar.numerator
AlternateSubs2: "'aalt' Access All Alternates lookup 1 subtable" dollar.numerator dollar.denominator dollar.superior dollar.inferior dollar.taboldstyle
EndChar

StartChar: percent
Encoding: 37 37 6
Width: 840
Flags: MW
HStem: -8 69<620.5 670 620.5 687> 262 69<172.5 221.5 172.5 238.5> 322 70<620 671.5> 592 69<172 223.5>
VStem: 28 94<461 497.5 461 518.5> 270 93<422.5 498> 477 93<191 227.5 191 249> 718 93<152.5 228.5>
LayerCount: 2
Fore
SplineSet
199 661 m 0xbf
 302 661 363 585 363 468 c 0
 363 331 283 262 194 262 c 0xdf
 103 262 29 332 28 457 c 0
 28 580 99 661 199 661 c 0xbf
197 592 m 0
 147 592 122 534 122 461 c 0
 121 386 148 331 197 331 c 0xdf
 246 331 270 383 270 462 c 0
 270 534 250 592 197 592 c 0
266 -11 m 1
 196 -11 l 1
 573 661 l 1
 643 661 l 1
 266 -11 l 1
647 392 m 0
 750 392 811 315 811 198 c 0
 811 62 732 -8 642 -8 c 0
 552 -8 477 62 477 188 c 0
 477 310 548 392 647 392 c 0
645 322 m 0
 595 322 570 264 570 191 c 0
 569 117 596 61 645 61 c 0
 695 61 718 113 718 192 c 0
 718 265 698 322 645 322 c 0
EndSplineSet
Substitution2: "'onum' Oldstyle Figures lookup 14 subtable" percent.oldstyle
Substitution2: "'aalt' Access All Alternates lookup 0 subtable" percent.oldstyle
EndChar

StartChar: ampersand
Encoding: 38 38 7
Width: 645
Flags: MW
HStem: -11 91<234.5 292.5> 0 21G<497 641 497 497> 0 126 606 79<266.5 313.5>
VStem: 31 117<165.5 224> 107 111<503.5 545 503.5 554> 357 106<506.5 548>
LayerCount: 2
Fore
SplineSet
641 0 m 1x5a
 497 0 l 1x5a
 480 17 464 34 444 56 c 1
 393 13 331 -11 254 -11 c 0
 105 -11 31 82 31 179 c 0x9a
 31 269 84 333 161 374 c 1
 161 377 l 1
 129 415 107 464 107 512 c 0
 107 596 171 685 296 685 c 0
 391 685 463 626 463 534 c 0
 463 464 423 407 324 358 c 1
 323 354 l 1
 370 300 422 240 459 200 c 1
 488 245 508 308 520 379 c 1
 630 379 l 1
 612 275 581 190 525 126 c 1x36
 562 85 599 44 641 0 c 1x5a
272 80 m 0x9a
 320 80 360 99 385 125 c 1
 344 168 280 239 217 312 c 1
 185 290 148 255 148 199 c 0
 148 132 197 80 272 80 c 0x9a
290 606 m 0x96
 243 606 218 566 218 524 c 0
 218 483 237 450 267 416 c 1
 324 452 357 483 357 530 c 0
 357 566 337 606 290 606 c 0x96
EndSplineSet
EndChar

StartChar: quoteright
Encoding: 8217 8217 8
Width: 236
Flags: MW
HStem: 665 20G<213 213>
VStem: 30 183
LayerCount: 2
Fore
SplineSet
94 676 m 1
 213 685 l 1
 186 594 143 491 105 429 c 1
 30 422 l 1
 56 495 82 595 94 676 c 1
EndSplineSet
EndChar

StartChar: parenleft
Encoding: 40 40 9
Width: 301
Flags: MW
HStem: -118 811<183 273 183 273>
VStem: 62 98<197.5 286>
LayerCount: 2
Fore
SplineSet
183 693 m 1
 273 693 l 1
 209 598 160 466 160 286 c 0
 160 109 210 -22 273 -118 c 1
 183 -118 l 1
 126 -38 62 92 62 286 c 0
 63 481 126 612 183 693 c 1
EndSplineSet
Substitution2: "'subs' Subscript lookup 13 subtable" parenleft.inferior
Substitution2: "'sups' Superscript lookup 12 subtable" parenleft.superior
Substitution2: "'dnom' Denominators lookup 6 subtable" parenleft.denominator
Substitution2: "'numr' Numerators lookup 5 subtable" parenleft.numerator
Substitution2: "'case' Case-Sensitive Forms lookup 4 subtable" parenleft.cap
AlternateSubs2: "'aalt' Access All Alternates lookup 1 subtable" parenleft.cap parenleft.numerator parenleft.denominator parenleft.superior parenleft.inferior
EndChar

StartChar: parenright
Encoding: 41 41 10
Width: 301
Flags: MW
HStem: -118 811<28 117 28 117>
VStem: 140 99<287 377>
LayerCount: 2
Fore
SplineSet
117 -118 m 1
 28 -118 l 1
 91 -23 140 110 140 288 c 0
 140 466 91 597 28 693 c 1
 117 693 l 1
 175 613 239 483 239 287 c 0
 238 92 175 -37 117 -118 c 1
EndSplineSet
Substitution2: "'subs' Subscript lookup 13 subtable" parenright.inferior
Substitution2: "'sups' Superscript lookup 12 subtable" parenright.superior
Substitution2: "'dnom' Denominators lookup 6 subtable" parenright.denominator
Substitution2: "'numr' Numerators lookup 5 subtable" parenright.numerator
Substitution2: "'case' Case-Sensitive Forms lookup 4 subtable" parenright.cap
AlternateSubs2: "'aalt' Access All Alternates lookup 1 subtable" parenright.cap parenright.numerator parenright.denominator parenright.superior parenright.inferior
EndChar

StartChar: asterisk
Encoding: 42 42 11
Width: 437
Flags: MW
HStem: 308 377<154 158>
VStem: 30 377<454 540 454 540>
LayerCount: 2
Fore
SplineSet
277 685 m 1
 353 642 l 1
 251 516 l 1
 251 514 l 1
 407 540 l 1
 407 454 l 1
 250 478 l 1
 250 475 l 1
 353 353 l 1
 276 309 l 1
 217 457 l 1
 215 456 l 1
 154 308 l 1
 82 353 l 1
 183 476 l 1
 183 479 l 1
 30 454 l 1
 30 540 l 1
 181 514 l 1
 182 517 l 1
 82 641 l 1
 158 685 l 1
 216 538 l 1
 219 538 l 1
 277 685 l 1
EndSplineSet
EndChar

StartChar: plus
Encoding: 43 43 12
Width: 596
Flags: MW
HStem: 228 78<40 257 40 257 339 556>
VStem: 257 82<0 228 0 228 306 532>
LayerCount: 2
Fore
SplineSet
257 532 m 1
 339 532 l 1
 339 306 l 1
 556 306 l 1
 556 228 l 1
 339 228 l 1
 339 0 l 1
 257 0 l 1
 257 228 l 1
 40 228 l 1
 40 306 l 1
 257 306 l 1
 257 532 l 1
EndSplineSet
EndChar

StartChar: comma
Encoding: 44 44 13
Width: 236
Flags: MW
HStem: -121 274<8 204>
VStem: 8 196
LayerCount: 2
Fore
SplineSet
92 -113 m 1
 8 -121 l 1
 35 -45 62 60 75 143 c 1
 204 153 l 1
 176 59 131 -49 92 -113 c 1
EndSplineSet
Substitution2: "'subs' Subscript lookup 13 subtable" comma.inferior
Substitution2: "'sups' Superscript lookup 12 subtable" comma.superior
Substitution2: "'dnom' Denominators lookup 6 subtable" comma.denominator
Substitution2: "'numr' Numerators lookup 5 subtable" comma.numerator
AlternateSubs2: "'aalt' Access All Alternates lookup 1 subtable" comma.numerator comma.denominator comma.superior comma.inferior
EndChar

StartChar: hyphen
Encoding: 45 45 14
Width: 315
Flags: MW
HStem: 224 85<30 285 30 285>
VStem: 30 255<224 309 224 309>
LayerCount: 2
Fore
SplineSet
30 309 m 1
 285 309 l 1
 285 224 l 1
 30 224 l 1
 30 309 l 1
EndSplineSet
Substitution2: "'subs' Subscript lookup 13 subtable" hyphen.inferior
Substitution2: "'sups' Superscript lookup 12 subtable" hyphen.superior
Substitution2: "'dnom' Denominators lookup 6 subtable" hyphen.denominator
Substitution2: "'numr' Numerators lookup 5 subtable" hyphen.numerator
Substitution2: "'case' Case-Sensitive Forms lookup 4 subtable" hyphen.cap
AlternateSubs2: "'aalt' Access All Alternates lookup 1 subtable" endash emdash hyphen.cap hyphen.superior hyphen.inferior hyphen.numerator hyphen.denominator
EndChar

StartChar: period
Encoding: 46 46 15
Width: 236
Flags: MW
HStem: -11 158<105 149.5 105 150>
VStem: 51 152<45.5 91>
LayerCount: 2
Fore
SplineSet
127 -11 m 0
 82 -11 51 23 51 68 c 0
 51 114 83 147 127 147 c 0
 172 147 203 115 203 68 c 0
 203 23 173 -11 127 -11 c 0
EndSplineSet
Substitution2: "'subs' Subscript lookup 13 subtable" period.inferior
Substitution2: "'sups' Superscript lookup 12 subtable" period.superior
Substitution2: "'dnom' Denominators lookup 6 subtable" period.denominator
Substitution2: "'numr' Numerators lookup 5 subtable" period.numerator
AlternateSubs2: "'aalt' Access All Alternates lookup 1 subtable" ellipsis period.superior period.inferior period.numerator period.denominator
EndChar

StartChar: slash
Encoding: 47 47 16
Width: 337
Flags: MW
HStem: 665 20G<252 338 338 338>
VStem: 8 330
LayerCount: 2
Fore
SplineSet
94 -40 m 1
 8 -40 l 1
 252 685 l 1
 338 685 l 1
 94 -40 l 1
EndSplineSet
Substitution2: "'frac' Diagonal Fractions lookup 8 subtable" slash.frac
Substitution2: "'dnom' Denominators lookup 6 subtable" fraction
Substitution2: "'numr' Numerators lookup 5 subtable" fraction
Substitution2: "'aalt' Access All Alternates lookup 0 subtable" fraction
EndChar

StartChar: zero
Encoding: 48 48 17
Width: 536
Flags: MW
HStem: -11 94<235 305 235 342.5> 567 94<236 306>
VStem: 34 124<323 323> 379 123<249 402.5>
LayerCount: 2
Fore
SplineSet
272 661 m 0
 429 661 502 521 502 329 c 0
 502 120 420 -11 265 -11 c 0
 115 -11 35 125 34 323 c 0
 34 525 120 661 272 661 c 0
269 567 m 0
 203 567 157 486 158 323 c 0
 157 165 201 83 269 83 c 0
 341 83 379 171 379 327 c 0
 379 478 343 567 269 567 c 0
EndSplineSet
Substitution2: "'zero' Slashed Zero lookup 19 subtable" zero.slash
Substitution2: "'pnum' Proportional Numbers lookup 16 subtable" zero.fitted
Substitution2: "'onum' Oldstyle Figures lookup 14 subtable" zero.taboldstyle
Substitution2: "'subs' Subscript lookup 13 subtable" zero.inferior
Substitution2: "'sups' Superscript lookup 12 subtable" zero.superior
Substitution2: "'dnom' Denominators lookup 6 subtable" zero.denominator
Substitution2: "'numr' Numerators lookup 5 subtable" zero.numerator
AlternateSubs2: "'aalt' Access All Alternates lookup 1 subtable" zero.fitted zero.oldstyle zero.taboldstyle zero.numerator zero.denominator zero.superior zero.inferior zero.slash
EndChar

StartChar: one
Encoding: 49 49 18
Width: 536
Flags: MW
HStem: 0 21G<236 236 236 355> 630 20G<252 355 355 355>
VStem: 236 119<0 539 539 539>
LayerCount: 2
Fore
SplineSet
236 0 m 1
 236 539 l 1
 234 539 l 1
 115 479 l 1
 94 572 l 1
 252 650 l 1
 355 650 l 1
 355 0 l 1
 236 0 l 1
EndSplineSet
Substitution2: "'pnum' Proportional Numbers lookup 16 subtable" one.fitted
Substitution2: "'onum' Oldstyle Figures lookup 14 subtable" one.taboldstyle
Substitution2: "'subs' Subscript lookup 13 subtable" one.inferior
Substitution2: "'sups' Superscript lookup 12 subtable" one.superior
Substitution2: "'dnom' Denominators lookup 6 subtable" one.denominator
Substitution2: "'numr' Numerators lookup 5 subtable" one.numerator
AlternateSubs2: "'aalt' Access All Alternates lookup 1 subtable" one.fitted one.oldstyle one.taboldstyle one.numerator one.denominator one.superior one.inferior
EndChar

StartChar: two
Encoding: 50 50 19
Width: 536
Flags: MW
HStem: 0 102<217 484 217 484> 561 100<214 272.5>
VStem: 346 123<452 481>
LayerCount: 2
Fore
SplineSet
484 0 m 1
 43 0 l 1
 43 75 l 1
 120 146 l 2
 273 288 345 366 346 452 c 0
 346 510 315 561 230 561 c 0
 173 561 124 532 91 507 c 1
 55 594 l 1
 102 632 173 661 255 661 c 0
 399 661 469 570 469 464 c 0
 469 350 387 258 274 153 c 1
 217 104 l 1
 217 102 l 1
 484 102 l 1
 484 0 l 1
EndSplineSet
Substitution2: "'pnum' Proportional Numbers lookup 16 subtable" two.fitted
Substitution2: "'onum' Oldstyle Figures lookup 14 subtable" two.taboldstyle
Substitution2: "'subs' Subscript lookup 13 subtable" two.inferior
Substitution2: "'sups' Superscript lookup 12 subtable" two.superior
Substitution2: "'dnom' Denominators lookup 6 subtable" two.denominator
Substitution2: "'numr' Numerators lookup 5 subtable" two.numerator
AlternateSubs2: "'aalt' Access All Alternates lookup 1 subtable" two.fitted two.oldstyle two.taboldstyle two.numerator two.denominator two.superior two.inferior
EndChar

StartChar: three
Encoding: 51 51 20
Width: 536
Flags: MW
HStem: -11 98<185 263 185 302.5> 301 90<143 198 198 200 143 198> 563 98<210 258.5>
VStem: 327 125<468 504> 347 128<191 229.5>
LayerCount: 2
Fore
SplineSet
40 34 m 1xe8
 68 127 l 1
 93 112 154 87 216 87 c 0
 310 87 348 140 347 191 c 0xe8
 347 268 275 301 200 301 c 2
 143 301 l 1
 143 391 l 1
 198 391 l 2
 255 391 327 417 327 482 c 0
 327 526 294 563 223 563 c 0
 170 563 117 540 90 522 c 1
 62 611 l 1
 99 637 171 661 249 661 c 0
 383 661 452 587 452 502 c 0xf0
 452 434 412 378 332 350 c 1
 332 348 l 1
 411 334 475 274 475 186 c 0
 475 76 383 -11 222 -11 c 0
 143 -11 75 11 40 34 c 1xe8
EndSplineSet
Substitution2: "'pnum' Proportional Numbers lookup 16 subtable" three.fitted
Substitution2: "'onum' Oldstyle Figures lookup 14 subtable" three.taboldstyle
Substitution2: "'subs' Subscript lookup 13 subtable" three.inferior
Substitution2: "'sups' Superscript lookup 12 subtable" three.superior
Substitution2: "'dnom' Denominators lookup 6 subtable" three.denominator
Substitution2: "'numr' Numerators lookup 5 subtable" three.numerator
AlternateSubs2: "'aalt' Access All Alternates lookup 1 subtable" three.fitted three.oldstyle three.taboldstyle three.numerator three.denominator three.superior three.inferior
EndChar

StartChar: four
Encoding: 52 52 21
Width: 536
Flags: MW
HStem: 0 21G<314 430 314 314> 165 93<137 314 137 314 430 514> 548 102<314 318 314 314>
VStem: 314 116<0 165 258 435 435 453.5 548 548>
LayerCount: 2
Fore
SplineSet
430 0 m 1
 314 0 l 1
 314 165 l 1
 20 165 l 1
 20 245 l 1
 285 650 l 1
 430 650 l 1
 430 258 l 1
 514 258 l 1
 514 165 l 1
 430 165 l 1
 430 0 l 1
137 258 m 1
 314 258 l 1
 314 435 l 2
 314 472 315 510 318 548 c 1
 314 548 l 1
 294 507 277 474 257 438 c 2
 138 260 l 1
 137 258 l 1
EndSplineSet
Substitution2: "'pnum' Proportional Numbers lookup 16 subtable" four.fitted
Substitution2: "'onum' Oldstyle Figures lookup 14 subtable" four.taboldstyle
Substitution2: "'subs' Subscript lookup 13 subtable" four.inferior
Substitution2: "'sups' Superscript lookup 12 subtable" four.superior
Substitution2: "'dnom' Denominators lookup 6 subtable" four.denominator
Substitution2: "'numr' Numerators lookup 5 subtable" four.numerator
AlternateSubs2: "'aalt' Access All Alternates lookup 1 subtable" four.fitted four.oldstyle four.taboldstyle four.numerator four.denominator four.superior four.inferior
EndChar

StartChar: five
Encoding: 53 53 22
Width: 536
Flags: MW
HStem: -11 97<180.5 246 180.5 294> 328 93<224.5 231> 548 102<206 456 206 206>
VStem: 351 126<166 242>
LayerCount: 2
Fore
SplineSet
456 650 m 1
 456 548 l 1
 206 548 l 1
 187 418 l 1
 202 420 215 421 234 421 c 0
 291 421 348 408 392 379 c 0
 441 348 477 293 477 214 c 0
 477 90 374 -11 214 -11 c 0
 139 -11 76 8 42 27 c 1
 67 120 l 1
 95 105 151 86 210 86 c 0
 282 86 351 127 351 205 c 0
 351 279 296 328 166 328 c 0
 130 328 103 326 77 322 c 1
 120 650 l 1
 456 650 l 1
EndSplineSet
Substitution2: "'pnum' Proportional Numbers lookup 16 subtable" five.fitted
Substitution2: "'onum' Oldstyle Figures lookup 14 subtable" five.taboldstyle
Substitution2: "'subs' Subscript lookup 13 subtable" five.inferior
Substitution2: "'sups' Superscript lookup 12 subtable" five.superior
Substitution2: "'dnom' Denominators lookup 6 subtable" five.denominator
Substitution2: "'numr' Numerators lookup 5 subtable" five.numerator
AlternateSubs2: "'aalt' Access All Alternates lookup 1 subtable" five.fitted five.oldstyle five.taboldstyle five.numerator five.denominator five.superior five.inferior
EndChar

StartChar: six
Encoding: 54 54 23
Width: 536
Flags: MW
HStem: -11 92<236.5 308 236.5 346> 343 90<274.5 304> 563 96<438 438 438 439>
VStem: 32 122<237 245.5 237 331.5> 381 125<175 251.5>
LayerCount: 2
Fore
SplineSet
438 659 m 1
 439 563 l 1
 421 563 401 563 376 560 c 0
 240 544 174 460 158 370 c 1
 161 370 l 1
 193 407 242 433 307 433 c 0
 419 433 506 353 506 221 c 0
 506 97 415 -11 277 -11 c 0
 119 -11 32 109 32 269 c 0
 32 394 77 496 145 561 c 0
 205 617 283 649 376 657 c 0
 403 660 423 660 438 659 c 1
276 81 m 0
 340 81 381 136 381 214 c 0
 381 289 340 343 268 343 c 0
 222 343 181 315 162 276 c 0
 157 266 154 254 154 237 c 0
 156 151 197 81 276 81 c 0
EndSplineSet
Substitution2: "'pnum' Proportional Numbers lookup 16 subtable" six.fitted
Substitution2: "'onum' Oldstyle Figures lookup 14 subtable" six.taboldstyle
Substitution2: "'subs' Subscript lookup 13 subtable" six.inferior
Substitution2: "'sups' Superscript lookup 12 subtable" six.superior
Substitution2: "'dnom' Denominators lookup 6 subtable" six.denominator
Substitution2: "'numr' Numerators lookup 5 subtable" six.numerator
AlternateSubs2: "'aalt' Access All Alternates lookup 1 subtable" six.fitted six.oldstyle six.taboldstyle six.numerator six.denominator six.superior six.inferior
EndChar

StartChar: seven
Encoding: 55 55 24
Width: 536
Flags: MW
HStem: 0 21G<85 215 85 85> 548 102<53 359 53 490>
VStem: 53 437<571 650 571 650 571 650>
LayerCount: 2
Fore
SplineSet
53 650 m 1
 490 650 l 1
 490 571 l 1
 215 0 l 1
 85 0 l 1
 359 546 l 1
 359 548 l 1
 53 548 l 1
 53 650 l 1
EndSplineSet
Substitution2: "'pnum' Proportional Numbers lookup 16 subtable" seven.fitted
Substitution2: "'onum' Oldstyle Figures lookup 14 subtable" seven.taboldstyle
Substitution2: "'subs' Subscript lookup 13 subtable" seven.inferior
Substitution2: "'sups' Superscript lookup 12 subtable" seven.superior
Substitution2: "'dnom' Denominators lookup 6 subtable" seven.denominator
Substitution2: "'numr' Numerators lookup 5 subtable" seven.numerator
AlternateSubs2: "'aalt' Access All Alternates lookup 1 subtable" seven.fitted seven.oldstyle seven.taboldstyle seven.numerator seven.denominator seven.superior seven.inferior
EndChar

StartChar: eight
Encoding: 56 56 25
Width: 536
Flags: MW
HStem: -11 87<234.5 301.5 234.5 334.5> 576 85<237 301>
VStem: 34 126<181 207.5> 57 117<461.5 511.5 461.5 536> 361 117<469.5 506.5> 377 125<145 206>
LayerCount: 2
Fore
SplineSet
265 -11 m 0xe4
 113 -11 34 76 34 167 c 0xe4
 34 248 81 303 156 336 c 1
 156 339 l 1
 88 372 57 426 57 483 c 0
 57 589 151 661 274 661 c 0
 414 661 478 577 478 497 c 0xd8
 478 442 449 385 378 350 c 1
 378 347 l 1
 449 320 502 264 502 183 c 0
 502 67 404 -11 265 -11 c 0xe4
269 76 m 0
 334 76 377 117 377 173 c 0
 377 239 328 275 256 295 c 1
 195 277 160 235 160 181 c 0
 158 126 200 76 269 76 c 0
268 576 m 0xd8
 206 576 174 535 174 488 c 0
 174 435 218 403 280 386 c 1
 324 399 361 435 361 484 c 0
 361 529 334 576 268 576 c 0xd8
EndSplineSet
Substitution2: "'pnum' Proportional Numbers lookup 16 subtable" eight.fitted
Substitution2: "'onum' Oldstyle Figures lookup 14 subtable" eight.taboldstyle
Substitution2: "'subs' Subscript lookup 13 subtable" eight.inferior
Substitution2: "'sups' Superscript lookup 12 subtable" eight.superior
Substitution2: "'dnom' Denominators lookup 6 subtable" eight.denominator
Substitution2: "'numr' Numerators lookup 5 subtable" eight.numerator
AlternateSubs2: "'aalt' Access All Alternates lookup 1 subtable" eight.fitted eight.oldstyle eight.taboldstyle eight.numerator eight.denominator eight.superior eight.inferior
EndChar

StartChar: nine
Encoding: 57 57 26
Width: 536
Flags: MW
HStem: -9 99 227 90<230 263.5> 570 91<233 304>
VStem: 35 122<436 475.5 436 491> 376 126<284 463 397.5 406>
LayerCount: 2
Fore
SplineSet
93 -9 m 1
 93 88 l 1
 112 86 131 87 161 90 c 0
 209 94 257 111 293 140 c 0
 335 174 364 223 376 284 c 1
 374 285 l 1
 341 248 295 227 232 227 c 0
 119 227 35 309 35 429 c 0
 35 553 131 661 270 661 c 0
 421 661 502 542 502 384 c 0
 502 245 456 146 389 82 c 0
 332 29 254 -1 167 -7 c 0
 139 -10 111 -10 93 -9 c 1
264 570 m 0
 202 570 157 515 157 436 c 0
 158 369 196 317 264 317 c 0
 314 317 350 340 369 371 c 0
 373 379 376 389 376 406 c 0
 377 494 344 570 264 570 c 0
EndSplineSet
Substitution2: "'pnum' Proportional Numbers lookup 16 subtable" nine.fitted
Substitution2: "'onum' Oldstyle Figures lookup 14 subtable" nine.taboldstyle
Substitution2: "'subs' Subscript lookup 13 subtable" nine.inferior
Substitution2: "'sups' Superscript lookup 12 subtable" nine.superior
Substitution2: "'dnom' Denominators lookup 6 subtable" nine.denominator
Substitution2: "'numr' Numerators lookup 5 subtable" nine.numerator
AlternateSubs2: "'aalt' Access All Alternates lookup 1 subtable" nine.fitted nine.oldstyle nine.taboldstyle nine.numerator nine.denominator nine.superior nine.inferior
EndChar

StartChar: colon
Encoding: 58 58 27
Width: 236
Flags: MW
HStem: -11 157<105 149.5 105 150> 326 157<105 149.5 105 150>
VStem: 51 152<45 67 45 90 381.5 404>
LayerCount: 2
Fore
SplineSet
127 326 m 0
 82 326 51 359 51 404 c 0
 51 450 83 483 127 483 c 0
 172 483 202 450 203 404 c 0
 203 359 173 326 127 326 c 0
127 -11 m 0
 82 -11 51 23 51 67 c 0
 51 113 83 146 127 146 c 0
 172 146 202 114 203 67 c 0
 203 23 173 -11 127 -11 c 0
EndSplineSet
EndChar

StartChar: semicolon
Encoding: 59 59 28
Width: 236
Flags: MW
HStem: 326 157<111 155.5 111 156>
VStem: 58 151<381.5 427>
LayerCount: 2
Fore
SplineSet
92 -113 m 1
 8 -121 l 1
 36 -45 63 60 75 143 c 1
 204 153 l 1
 175 59 131 -49 92 -113 c 1
133 326 m 0
 88 326 57 359 58 404 c 0
 58 450 89 483 133 483 c 0
 178 483 208 450 209 404 c 0
 209 359 179 326 133 326 c 0
EndSplineSet
EndChar

StartChar: less
Encoding: 60 60 29
Width: 596
Flags: MW
HStem: 0 532<535 535>
VStem: 61 98<265 267 265 302 265 302>
LayerCount: 2
Fore
SplineSet
61 230 m 1
 61 302 l 1
 535 532 l 1
 535 442 l 1
 159 267 l 1
 159 265 l 1
 535 89 l 1
 535 0 l 1
 61 230 l 1
EndSplineSet
EndChar

StartChar: equal
Encoding: 61 61 30
Width: 596
Flags: MW
HStem: 128 78<40 556 40 556> 330 79<40 556 40 556>
VStem: 40 516<128 206 128 206 330 409 128 409>
LayerCount: 2
Fore
SplineSet
556 330 m 1
 40 330 l 1
 40 409 l 1
 556 409 l 1
 556 330 l 1
556 128 m 1
 40 128 l 1
 40 206 l 1
 556 206 l 1
 556 128 l 1
EndSplineSet
EndChar

StartChar: greater
Encoding: 62 62 31
Width: 596
Flags: MW
HStem: 0 532<61 61>
VStem: 443 92<265 267 267 267>
LayerCount: 2
Fore
SplineSet
535 304 m 1
 535 228 l 1
 61 0 l 1
 61 89 l 1
 443 265 l 1
 443 267 l 1
 61 443 l 1
 61 532 l 1
 535 304 l 1
EndSplineSet
EndChar

StartChar: question
Encoding: 63 63 32
Width: 428
Flags: MW
HStem: -11 156<169 213.5 169 214> 586 99<174.5 179>
VStem: 115 152<45 67 45 90> 139 108.5 261 126<497 536>
LayerCount: 2
Fore
SplineSet
248 206 m 1xd0
 140 206 l 1
 138 232 l 2xd0
 133 284 151 339 198 396 c 0
 236 441 261 476 261 515 c 0
 261 557 235 585 179 586 c 0
 144 586 104 575 79 556 c 1
 49 644 l 1
 85 667 143 685 206 685 c 0
 330 685 387 613 387 533 c 0xc8
 387 461 343 411 300 362 c 0
 261 316 245 275 247 227 c 2
 248 206 l 1xd0
191 -11 m 0xe0
 146 -11 115 23 115 67 c 0
 115 113 147 145 191 145 c 0
 236 145 266 113 267 67 c 0
 267 23 237 -11 191 -11 c 0xe0
EndSplineSet
EndChar

StartChar: at
Encoding: 64 64 33
Width: 755
Flags: MW
HStem: -104 56<297 389.5> 65 59<531 546 531 580.5> 65 68<324.5 340> 361 67<385 431.5> 537 55<329 485.5>
VStem: 47 68<133.5 312> 201 86<181.5 244.5 181.5 254.5> 449 65 648 66<240.5 367>
LayerCount: 2
Fore
SplineSet
445 252 m 2xdf80
 463 355 l 1
 453 358 440 361 423 361 c 0
 347 361 287 287 287 202 c 0
 287 161 306 133 343 133 c 0xbf80
 390 133 435 193 445 252 c 2xdf80
519 -15 m 1
 536 -66 l 1
 478 -94 424 -104 355 -104 c 0
 190 -104 47 15 47 210 c 0
 47 414 193 592 417 592 c 0
 593 592 714 470 714 303 c 0
 714 155 631 65 530 65 c 0xdf80
 486 65 451 90 449 147 c 1
 446 147 l 1
 413 92 368 65 312 65 c 0xbf80
 250 65 201 113 201 193 c 0
 201 316 295 428 437 428 c 0
 481 428 525 418 551 405 c 1
 519 222 l 2
 507 155 516 124 546 124 c 0xdf80
 593 122 648 183 648 298 c 0
 648 436 563 537 408 537 c 0
 250 537 115 414 115 217 c 0
 115 50 223 -48 371 -48 c 0
 425 -48 479 -37 519 -15 c 1
EndSplineSet
Substitution2: "'case' Case-Sensitive Forms lookup 4 subtable" at.cap
Substitution2: "'aalt' Access All Alternates lookup 0 subtable" at.cap
EndChar

StartChar: A
Encoding: 65 65 34
Width: 636
Flags: MW
HStem: 0 21G<21 148 21 21 481 481 481 613> 191 93<226 399 226 420 206 399> 576 98<310 312 310 310> 654 20G<237 394 394 394>
VStem: 21 592<0 0>
LayerCount: 2
Fore
SplineSet
420 191 m 1xd8
 206 191 l 1
 148 0 l 1
 21 0 l 1
 237 674 l 1
 394 674 l 1
 613 0 l 1
 481 0 l 1
 420 191 l 1xd8
226 284 m 1
 399 284 l 1
 346 450 l 2
 333 491 322 537 312 576 c 1
 310 576 l 1xe8
 300 537 290 490 278 450 c 2
 226 284 l 1
EndSplineSet
Position2: "'cpsp' Capital Spacing lookup 0 subtable" dx=10 dy=0 dh=20 dv=0
EndChar

StartChar: B
Encoding: 66 66 35
Width: 576
Flags: MW
HStem: -7 93<244 283.5> 309 90<193 256 193 254> 588 91<245 295.5 215.5 302>
VStem: 71 122<89 309 399 583> 389 124<479 527.5> 407 130<165 238>
LayerCount: 2
Fore
SplineSet
71 2 m 1xf4
 71 665 l 1
 110 673 181 679 250 679 c 0
 341 679 397 668 443 636 c 0
 485 611 513 567 513 510 c 0xf8
 513 448 474 391 401 364 c 1
 401 362 l 1
 472 344 537 288 537 195 c 0
 537 135 511 88 472 56 c 0
 424 14 345 -7 222 -7 c 0
 154 -7 102 -2 71 2 c 1xf4
193 583 m 1
 193 399 l 1
 256 399 l 2
 341 399 389 439 389 496 c 0
 389 559 341 588 263 588 c 0
 227 588 206 586 193 583 c 1
193 309 m 1
 193 89 l 1
 209 87 230 86 258 86 c 0
 337 86 407 116 407 199 c 0xf4
 407 277 339 309 254 309 c 2
 193 309 l 1
EndSplineSet
Position2: "'cpsp' Capital Spacing lookup 0 subtable" dx=10 dy=0 dh=20 dv=0
EndChar

StartChar: C
Encoding: 67 67 36
Width: 588
Flags: MW
HStem: -10 102<326 420.5> 583 102<332.5 429>
VStem: 36 129<261 416 261 440>
LayerCount: 2
Fore
SplineSet
534 117 m 1
 554 20 l 1
 525 5 461 -10 380 -10 c 0
 166 -10 36 124 36 329 c 0
 36 551 190 685 396 685 c 0
 477 685 535 668 560 655 c 1
 533 557 l 1
 501 571 457 583 401 583 c 0
 264 583 165 497 165 335 c 0
 165 187 252 92 400 92 c 0
 450 92 502 102 534 117 c 1
EndSplineSet
Position2: "'cpsp' Capital Spacing lookup 0 subtable" dx=10 dy=0 dh=20 dv=0
EndChar

StartChar: D
Encoding: 68 68 37
Width: 683
Flags: MW
HStem: -7 98<249.5 262 249.5 302.5> 583 96<258.5 330 230.5 355>
VStem: 71 123<94 576 94 665 94 665> 517 130<293 349>
LayerCount: 2
Fore
SplineSet
71 2 m 1
 71 665 l 1
 125 674 194 679 267 679 c 0
 393 679 480 653 542 601 c 0
 607 548 647 468 647 353 c 0
 647 233 606 143 542 85 c 0
 475 24 368 -7 237 -7 c 0
 165 -7 111 -3 71 2 c 1
194 576 m 1
 194 94 l 1
 211 91 237 91 262 91 c 0
 422 90 517 178 517 349 c 0
 518 498 432 583 278 583 c 0
 239 583 211 580 194 576 c 1
EndSplineSet
Position2: "'cpsp' Capital Spacing lookup 0 subtable" dx=10 dy=0 dh=20 dv=0
EndChar

StartChar: E
Encoding: 69 69 38
Width: 515
Flags: MW
HStem: 0 101<194 478 194 478> 299 100<194 448 194 448> 573 101<194 463 194 194>
VStem: 71 123<101 299 101 399 399 573>
LayerCount: 2
Fore
SplineSet
448 399 m 1
 448 299 l 1
 194 299 l 1
 194 101 l 1
 478 101 l 1
 478 0 l 1
 71 0 l 1
 71 674 l 1
 463 674 l 1
 463 573 l 1
 194 573 l 1
 194 399 l 1
 448 399 l 1
EndSplineSet
Position2: "'cpsp' Capital Spacing lookup 0 subtable" dx=10 dy=0 dh=20 dv=0
EndChar

StartChar: F
Encoding: 70 70 39
Width: 509
Flags: MW
HStem: 0 21G<71 71 71 194> 286 101<194 442 194 442> 573 101<194 460 194 194>
VStem: 71 123<0 286 387 573>
LayerCount: 2
Fore
SplineSet
71 0 m 1
 71 674 l 1
 460 674 l 1
 460 573 l 1
 194 573 l 1
 194 387 l 1
 442 387 l 1
 442 286 l 1
 194 286 l 1
 194 0 l 1
 71 0 l 1
EndSplineSet
Position2: "'cpsp' Capital Spacing lookup 0 subtable" dx=10 dy=0 dh=20 dv=0
EndChar

StartChar: G
Encoding: 71 71 40
Width: 666
Flags: MW
HStem: -7 100<337 421 329 439> 275 97<373 492 373 611> 579 102<338 445.5>
VStem: 36 129<331 415.5 260.5 437.5> 492 119<107 275 275 275>
LayerCount: 2
Fore
SplineSet
611 372 m 1
 611 31 l 1
 568 15 484 -7 394 -7 c 0
 280 -7 194 22 130 83 c 0
 70 140 35 229 36 331 c 0
 36 544 188 681 411 681 c 0
 494 681 559 664 590 649 c 1
 563 550 l 1
 526 566 481 579 410 579 c 0
 266 579 165 494 165 337 c 0
 165 184 259 93 399 93 c 0
 443 93 476 99 492 107 c 1
 492 275 l 1
 373 275 l 1
 373 372 l 1
 611 372 l 1
EndSplineSet
Position2: "'cpsp' Capital Spacing lookup 0 subtable" dx=10 dy=0 dh=20 dv=0
EndChar

StartChar: H
Encoding: 72 72 41
Width: 672
Flags: MW
HStem: 0 21G<71 194 71 71 479 602 479 479> 297 107<194 479 194 479> 654 20G<71 194 194 194 479 602 602 602>
VStem: 71 123<0 297 404 674> 479 123<0 297 297 297 404 674 0 674>
LayerCount: 2
Fore
SplineSet
71 674 m 1
 194 674 l 1
 194 404 l 1
 479 404 l 1
 479 674 l 1
 602 674 l 1
 602 0 l 1
 479 0 l 1
 479 297 l 1
 194 297 l 1
 194 0 l 1
 71 0 l 1
 71 674 l 1
EndSplineSet
Position2: "'cpsp' Capital Spacing lookup 0 subtable" dx=10 dy=0 dh=20 dv=0
EndChar

StartChar: I
Encoding: 73 73 42
Width: 264
Flags: MW
HStem: 0 21G<71 194 71 71> 654 20G<71 194 194 194>
VStem: 71 123<0 674 0 674>
LayerCount: 2
Fore
SplineSet
71 674 m 1
 194 674 l 1
 194 0 l 1
 71 0 l 1
 71 674 l 1
EndSplineSet
Position2: "'cpsp' Capital Spacing lookup 0 subtable" dx=10 dy=0 dh=20 dv=0
EndChar

StartChar: J
Encoding: 74 74 43
Width: 392
Flags: MW
HStem: -11 103<87 127 77.5 171> 654 20G<205 328 328 328>
VStem: 205 123<241 674>
LayerCount: 2
Fore
SplineSet
205 241 m 2
 205 674 l 1
 328 674 l 1
 328 237 l 2
 328 51 238 -11 104 -11 c 0
 70 -11 27 -5 1 5 c 1
 16 104 l 1
 36 98 63 92 92 92 c 0
 162 92 205 124 205 241 c 2
EndSplineSet
Position2: "'cpsp' Capital Spacing lookup 0 subtable" dx=10 dy=0 dh=20 dv=0
EndChar

StartChar: K
Encoding: 75 75 44
Width: 582
Flags: MW
HStem: 0 21G<71 71 71 193 444 444 444 588> 654 20G<71 193 193 193 421 573 573 573>
VStem: 71 122<0 237 364 674>
LayerCount: 2
Fore
SplineSet
71 0 m 1
 71 674 l 1
 193 674 l 1
 193 364 l 1
 196 364 l 1
 212 390 229 414 245 437 c 2
 421 674 l 1
 573 674 l 1
 341 387 l 1
 588 0 l 1
 444 0 l 1
 253 309 l 1
 193 237 l 1
 193 0 l 1
 71 0 l 1
EndSplineSet
Position2: "'cpsp' Capital Spacing lookup 0 subtable" dx=10 dy=0 dh=20 dv=0
EndChar

StartChar: L
Encoding: 76 76 45
Width: 493
Flags: MW
HStem: 0 103<194 471 194 471> 654 20G<71 194 194 194>
VStem: 71 123<103 674 103 674 103 674>
LayerCount: 2
Fore
SplineSet
71 0 m 1
 71 674 l 1
 194 674 l 1
 194 103 l 1
 471 103 l 1
 471 0 l 1
 71 0 l 1
EndSplineSet
Position2: "'cpsp' Capital Spacing lookup 0 subtable" dx=10 dy=0 dh=20 dv=0
EndChar

StartChar: M
Encoding: 77 77 46
Width: 827
Flags: MW
HStem: 0 21G<54 169 54 54 653 773 653 653> 558 116<196 198 196 196 629 632 629 629>
VStem: 54 719<0 0>
LayerCount: 2
Fore
SplineSet
653 0 m 1
 640 275 l 2
 636 362 631 467 632 558 c 1
 629 558 l 1
 607 476 579 385 549 300 c 2
 451 8 l 1
 356 8 l 1
 266 296 l 2
 240 382 216 474 198 558 c 1
 196 558 l 1
 193 470 189 363 184 271 c 2
 169 0 l 1
 54 0 l 1
 99 674 l 1
 261 674 l 1
 349 403 l 2
 373 324 394 244 411 169 c 1
 414 169 l 1
 432 242 455 325 481 404 c 2
 574 674 l 1
 734 674 l 1
 773 0 l 1
 653 0 l 1
EndSplineSet
Position2: "'cpsp' Capital Spacing lookup 0 subtable" dx=10 dy=0 dh=20 dv=0
EndChar

StartChar: N
Encoding: 78 78 47
Width: 676
Flags: MW
HStem: 0 21G<71 184 71 71 478 478 478 605> 0 159<478 502 500 502 500 605> 529 145<181 181> 654 20G<71 211 211 211 491 605 605 605>
VStem: 71 113<0 241> 491 114<439 674 0 674>
LayerCount: 2
Fore
SplineSet
184 0 m 1x9c
 71 0 l 1
 71 674 l 1
 211 674 l 1
 385 385 l 2
 430 310 469 232 500 159 c 1
 502 159 l 1x5c
 494 249 491 336 491 439 c 2
 491 674 l 1
 605 674 l 1
 605 0 l 1
 478 0 l 1
 302 296 l 2
 259 370 214 453 181 529 c 1
 178 528 l 1xac
 183 441 184 352 184 241 c 2
 184 0 l 1x9c
EndSplineSet
Position2: "'cpsp' Capital Spacing lookup 0 subtable" dx=10 dy=0 dh=20 dv=0
EndChar

StartChar: O
Encoding: 79 79 48
Width: 704
Flags: MW
HStem: -11 99<294 412.5 294 439> 586 99<292 414.5>
VStem: 36 130<265.5 403.5 265.5 435.5> 539 130<268.5 402.5>
LayerCount: 2
Fore
SplineSet
356 685 m 0
 553 685 669 536 669 344 c 0
 669 118 532 -11 346 -11 c 0
 156 -11 36 134 36 332 c 0
 36 539 166 685 356 685 c 0
353 586 m 0
 231 586 166 473 166 334 c 0
 166 197 235 88 353 88 c 0
 472 88 539 198 539 339 c 0
 539 466 476 586 353 586 c 0
EndSplineSet
Position2: "'cpsp' Capital Spacing lookup 0 subtable" dx=10 dy=0 dh=20 dv=0
EndChar

StartChar: P
Encoding: 80 80 49
Width: 559
Flags: MW
HStem: 0 21G<71 71 71 193> 250 96<241.5 296.5> 585 94<247 304 217.5 306.5>
VStem: 71 122<0 254 0 351 351 579> 401 123<443 506.5 443 507.5>
LayerCount: 2
Fore
SplineSet
71 0 m 1
 71 665 l 1
 115 673 176 679 259 679 c 0
 349 679 415 660 458 624 c 0
 498 591 524 538 524 475 c 0
 524 411 504 358 466 322 c 0
 417 273 340 250 253 250 c 0
 230 250 209 251 193 254 c 1
 193 0 l 1
 71 0 l 1
193 579 m 1
 193 351 l 1
 208 347 228 346 253 346 c 0
 345 346 401 391 401 470 c 0
 401 545 349 585 264 585 c 0
 230 585 206 582 193 579 c 1
EndSplineSet
Position2: "'cpsp' Capital Spacing lookup 0 subtable" dx=10 dy=0 dh=20 dv=0
EndChar

StartChar: Q
Encoding: 81 81 50
Width: 704
Flags: MW
HStem: -11 21G<673 673> 586 99<292.5 415>
VStem: 36 130 539 130<268.5 403.5>
LayerCount: 2
Fore
SplineSet
673 -11 m 1
 638 -108 l 1
 544 -82 460 -54 375 -21 c 0
 360 -16 346 -12 331 -11 c 0
 175 -3 36 112 36 331 c 0
 36 539 165 685 358 685 c 0
 553 685 669 535 669 345 c 0
 669 182 594 73 495 34 c 1
 495 30 l 1
 553 14 618 0 673 -11 c 1
352 88 m 0
 471 88 539 198 539 339 c 0
 539 468 476 586 354 586 c 0
 231 586 165 469 166 334 c 0
 165 199 234 88 352 88 c 0
EndSplineSet
Position2: "'cpsp' Capital Spacing lookup 0 subtable" dx=10 dy=0 dh=20 dv=0
EndChar

StartChar: R
Encoding: 82 82 51
Width: 569
Flags: MW
HStem: 0 21G<71 71 71 193 421 421 421 548> 277 90<193 255 193 266> 586 93<249.5 305.5 221.5 309>
VStem: 71 122<0 277 0 367 367 580> 401 122<446.5 515>
LayerCount: 2
Fore
SplineSet
71 0 m 1
 71 665 l 1
 117 673 186 679 257 679 c 0
 354 679 420 663 465 625 c 0
 502 594 523 547 523 490 c 0
 523 403 464 344 401 321 c 1
 401 318 l 1
 449 300 478 253 495 188 c 0
 516 104 534 26 548 0 c 1
 421 0 l 1
 411 20 395 75 376 159 c 0
 357 247 325 275 255 277 c 2
 193 277 l 1
 193 0 l 1
 71 0 l 1
193 580 m 1
 193 367 l 1
 266 367 l 2
 349 367 401 411 401 478 c 0
 401 552 349 586 269 586 c 0
 230 586 205 583 193 580 c 1
EndSplineSet
Position2: "'cpsp' Capital Spacing lookup 0 subtable" dx=10 dy=0 dh=20 dv=0
EndChar

StartChar: S
Encoding: 83 83 52
Width: 519
Flags: MW
HStem: -10 101<199.5 270.5 199.5 310> 584 101<249 319.5>
VStem: 52 124<477 522.5 477 546> 354 125<155.5 208.5>
LayerCount: 2
Fore
SplineSet
41 32 m 1
 68 134 l 1
 108 111 168 91 231 91 c 0
 310 91 354 128 354 183 c 0
 354 234 320 264 234 295 c 0
 123 335 52 394 52 491 c 0
 52 601 144 685 290 685 c 0
 363 685 417 669 452 651 c 1
 422 552 l 1
 398 565 351 584 288 584 c 0
 210 584 176 542 176 503 c 0
 176 451 215 427 305 392 c 0
 422 348 479 289 479 192 c 0
 479 84 397 -10 223 -10 c 0
 152 -10 78 10 41 32 c 1
EndSplineSet
Position2: "'cpsp' Capital Spacing lookup 0 subtable" dx=10 dy=0 dh=20 dv=0
EndChar

StartChar: T
Encoding: 84 84 53
Width: 525
Flags: MW
HStem: 0 21G<200 200 200 323> 571 103<8 200 8 517 323 323 323 517>
VStem: 200 123<0 571 0 571>
LayerCount: 2
Fore
SplineSet
200 0 m 1
 200 571 l 1
 8 571 l 1
 8 674 l 1
 517 674 l 1
 517 571 l 1
 323 571 l 1
 323 0 l 1
 200 0 l 1
EndSplineSet
Position2: "'cpsp' Capital Spacing lookup 0 subtable" dx=10 dy=0 dh=20 dv=0
EndChar

StartChar: U
Encoding: 85 85 54
Width: 666
Flags: MW
HStem: -11 99<289.5 375.5 289.5 408> 654 20G<70 193 193 193 473 596 596 596>
VStem: 70 123<288 674> 473 123<281 289 289 674>
LayerCount: 2
Fore
SplineSet
70 674 m 1
 193 674 l 1
 193 281 l 2
 193 149 248 88 331 88 c 0
 420 88 473 149 473 281 c 2
 473 674 l 1
 596 674 l 1
 596 289 l 2
 596 81 489 -11 327 -11 c 0
 171 -11 70 76 70 288 c 2
 70 674 l 1
EndSplineSet
Position2: "'cpsp' Capital Spacing lookup 0 subtable" dx=10 dy=0 dh=20 dv=0
EndChar

StartChar: V
Encoding: 86 86 55
Width: 601
Flags: MW
HStem: 0 21G<225 366 225 225> 0 122<299 301 299 366 225 301> 654 20G<7 141 141 141 468 599 599 599>
VStem: 7 592<674 674>
LayerCount: 2
Fore
SplineSet
366 0 m 1xb0
 225 0 l 1
 7 674 l 1
 141 674 l 1
 233 368 l 2
 259 283 281 204 299 122 c 1
 301 122 l 1x70
 319 202 343 284 370 366 c 2
 468 674 l 1
 599 674 l 1
 366 0 l 1xb0
EndSplineSet
Position2: "'cpsp' Capital Spacing lookup 0 subtable" dx=10 dy=0 dh=20 dv=0
EndChar

StartChar: W
Encoding: 87 87 56
Width: 869
Flags: MW
HStem: 0 21G<180 313 180 180 545 545 545 677> 0 133<254 256 254 313 180 256> 0 136<545 617 615 617 615 677> 531 143<436 438 436 436> 654 20G<15 146 146 146 378 507 507 507 733 858 858 858>
VStem: 15 843<674 674>
LayerCount: 2
Fore
SplineSet
313 0 m 1x8c
 180 0 l 1
 15 674 l 1
 146 674 l 1
 210 368 l 2
 227 286 243 200 254 133 c 1
 256 133 l 1x4c
 267 204 286 284 305 369 c 2
 378 674 l 1
 507 674 l 1
 574 364 l 2
 591 284 605 209 615 136 c 1
 617 136 l 1x2c
 629 210 645 287 663 369 c 2
 733 674 l 1
 858 674 l 1
 677 0 l 1
 545 0 l 1
 475 317 l 2
 458 394 446 458 438 531 c 1
 436 531 l 1x94
 424 459 411 394 391 317 c 2
 313 0 l 1x8c
EndSplineSet
Position2: "'cpsp' Capital Spacing lookup 0 subtable" dx=10 dy=0 dh=20 dv=0
EndChar

StartChar: X
Encoding: 88 88 57
Width: 594
Flags: MW
HStem: 0 21G<20 161 20 20 432 574 432 432> 654 20G<28 169 169 169 425 566 566 566>
VStem: 20 554<0 0>
LayerCount: 2
Fore
SplineSet
574 0 m 1
 432 0 l 1
 359 134 l 2
 330 186 311 222 292 261 c 1
 289 261 l 1
 273 222 255 186 228 134 c 2
 161 0 l 1
 20 0 l 1
 220 341 l 1
 28 674 l 1
 169 674 l 1
 242 535 l 2
 264 493 280 460 298 422 c 1
 300 422 l 1
 318 464 332 494 353 535 c 2
 425 674 l 1
 566 674 l 1
 369 345 l 1
 574 0 l 1
EndSplineSet
Position2: "'cpsp' Capital Spacing lookup 0 subtable" dx=10 dy=0 dh=20 dv=0
EndChar

StartChar: Y
Encoding: 89 89 58
Width: 575
Flags: MW
HStem: 0 21G<224 347 224 224> 654 20G<11 151 151 151 432 571 571 571>
VStem: 224 123<0 281 281 281>
LayerCount: 2
Fore
SplineSet
347 0 m 1
 224 0 l 1
 224 281 l 1
 11 674 l 1
 151 674 l 1
 232 501 l 2
 255 451 272 413 290 367 c 1
 292 367 l 1
 309 410 328 452 351 501 c 2
 432 674 l 1
 571 674 l 1
 347 284 l 1
 347 0 l 1
EndSplineSet
Position2: "'cpsp' Capital Spacing lookup 0 subtable" dx=10 dy=0 dh=20 dv=0
EndChar

StartChar: Z
Encoding: 90 90 59
Width: 566
Flags: MW
HStem: 0 102<191 536 191 536> 572 102<57 371 57 531>
VStem: 26 510<0 68 68 68>
LayerCount: 2
Fore
SplineSet
26 0 m 1
 26 68 l 1
 371 569 l 1
 371 572 l 1
 57 572 l 1
 57 674 l 1
 531 674 l 1
 531 602 l 1
 191 106 l 1
 191 102 l 1
 536 102 l 1
 536 0 l 1
 26 0 l 1
EndSplineSet
Position2: "'cpsp' Capital Spacing lookup 0 subtable" dx=10 dy=0 dh=20 dv=0
EndChar

StartChar: bracketleft
Encoding: 91 91 60
Width: 301
Flags: MW
HStem: -112 70<165 269 165 269> 614 71<165 269 165 165>
VStem: 74 91<-42 614 -42 685 -42 685>
LayerCount: 2
Fore
SplineSet
269 -112 m 1
 74 -112 l 1
 74 685 l 1
 269 685 l 1
 269 614 l 1
 165 614 l 1
 165 -42 l 1
 269 -42 l 1
 269 -112 l 1
EndSplineSet
Substitution2: "'case' Case-Sensitive Forms lookup 4 subtable" bracketleft.cap
Substitution2: "'aalt' Access All Alternates lookup 0 subtable" bracketleft.cap
EndChar

StartChar: backslash
Encoding: 92 92 61
Width: 335
Flags: MW
HStem: 665 20G<7 93 93 93>
VStem: 7 320
LayerCount: 2
Fore
SplineSet
327 -40 m 1
 241 -40 l 1
 7 685 l 1
 93 685 l 1
 327 -40 l 1
EndSplineSet
EndChar

StartChar: bracketright
Encoding: 93 93 62
Width: 301
Flags: MW
HStem: -112 71<32 135 32 226 32 135> 615 71<32 135 32 226>
VStem: 135 91<-41 615 615 615>
LayerCount: 2
Fore
SplineSet
32 686 m 1
 226 686 l 1
 226 -112 l 1
 32 -112 l 1
 32 -41 l 1
 135 -41 l 1
 135 615 l 1
 32 615 l 1
 32 686 l 1
EndSplineSet
Substitution2: "'case' Case-Sensitive Forms lookup 4 subtable" bracketright.cap
Substitution2: "'aalt' Access All Alternates lookup 0 subtable" bracketright.cap
EndChar

StartChar: asciicircum
Encoding: 94 94 63
Width: 596
Flags: MW
HStem: 182 468<50 337 50 337 259 546 259 454> 553 97<296 299 296 296>
VStem: 50 496<182 182>
LayerCount: 2
Fore
SplineSet
546 182 m 1xa0
 454 182 l 1
 299 553 l 1
 296 553 l 1
 141 182 l 1
 50 182 l 1
 259 650 l 1
 337 650 l 1x60
 546 182 l 1xa0
EndSplineSet
EndChar

StartChar: underscore
Encoding: 95 95 64
Width: 500
Flags: MW
HStem: -125 50<0 500 0 500>
VStem: 0 500<-125 -75 -125 -75>
LayerCount: 2
Fore
SplineSet
0 -75 m 1
 500 -75 l 1
 500 -125 l 1
 0 -125 l 1
 0 -75 l 1
EndSplineSet
EndChar

StartChar: quoteleft
Encoding: 8216 8216 65
Width: 236
Flags: MW
HStem: 665 20G<214 214>
VStem: 30 184
LayerCount: 2
Fore
SplineSet
149 431 m 1
 30 422 l 1
 58 513 101 616 138 678 c 1
 214 685 l 1
 188 612 162 512 149 431 c 1
EndSplineSet
EndChar

StartChar: a
Encoding: 97 97 66
Width: 508
Flags: MW
HStem: -11 88<204.5 216.5> 0 21G<340 451 340 340> 238 80<321 324> 411 87<204.5 265>
VStem: 32 122<123 184 123 195.5> 321 123
LayerCount: 2
Fore
SplineSet
451 0 m 1x7c
 340 0 l 1x7c
 332 54 l 1
 329 54 l 1
 299 16 248 -11 185 -11 c 0xbc
 87 -11 32 60 32 134 c 0
 32 257 141 319 321 318 c 1
 321 326 l 2
 321 358 308 411 222 411 c 0
 174 411 124 396 91 375 c 1
 67 455 l 1
 103 477 166 498 243 498 c 0
 399 498 444 399 444 293 c 2
 444 117 l 2
 444 73 446 30 451 0 c 1x7c
324 171 m 2xbc
 324 238 l 1
 237 240 154 221 154 147 c 0
 154 99 185 77 224 77 c 0
 273 77 309 109 320 144 c 0
 323 153 324 163 324 171 c 2xbc
EndSplineSet
Substitution2: "'sups' Superscript lookup 12 subtable" a.superior
Substitution2: "'ordn' Ordinals lookup 11 subtable" a.superior
AlternateSubs2: "'aalt' Access All Alternates lookup 1 subtable" ordfeminine a.superior
EndChar

StartChar: b
Encoding: 98 98 67
Width: 585
Flags: MW
HStem: -11 97<297.5 339.5 274.5 384> 0 21G<62 167 62 62> 402 96<310.5 343> 690 20G<66 189 189 189>
VStem: 66 123<196 201 201 280 420 710> 425 125<197 251 163.5 289>
LayerCount: 2
Fore
SplineSet
167 0 m 1x7c
 62 0 l 1x7c
 64 33 66 87 66 137 c 2
 66 710 l 1
 189 710 l 1
 189 420 l 1
 191 420 l 1
 221 467 274 498 347 498 c 0
 466 498 551 399 550 251 c 0
 550 76 439 -11 329 -11 c 0
 266 -11 210 13 175 73 c 1
 173 73 l 1xbc
 167 0 l 1x7c
189 280 m 2
 189 201 l 2
 189 191 190 181 192 172 c 0
 205 123 248 86 301 86 c 0xbc
 378 86 425 148 425 246 c 0
 425 332 384 402 302 402 c 0
 252 402 207 366 193 312 c 0
 191 303 189 292 189 280 c 2
EndSplineSet
EndChar

StartChar: c
Encoding: 99 99 68
Width: 449
Flags: MW
HStem: -10 97<268 316.5> 402 96<263 328.5 220.5 332>
VStem: 35 126<194 244 194 311>
LayerCount: 2
Fore
SplineSet
407 106 m 1
 424 15 l 1
 398 3 347 -10 286 -10 c 0
 134 -10 35 87 35 238 c 0
 35 384 135 498 306 498 c 0
 351 498 397 488 425 475 c 1
 403 383 l 1
 383 392 354 402 310 402 c 0
 216 402 160 333 161 244 c 0
 161 144 226 87 310 87 c 0
 353 87 383 96 407 106 c 1
EndSplineSet
EndChar

StartChar: d
Encoding: 100 100 69
Width: 581
Flags: MW
HStem: -11 99<243 278.5> 0 21G<409 519 409 409> 403 95<243.5 286.5 194.5 311> 690 20G<392 515 515 515>
VStem: 35 125<197.5 238> 392 123<211 284 284 289 434 710>
LayerCount: 2
Fore
SplineSet
392 710 m 1xbc
 515 710 l 1
 515 137 l 2
 515 87 517 33 519 0 c 1
 409 0 l 1x7c
 404 77 l 1
 402 77 l 1
 373 23 314 -11 243 -11 c 0
 127 -11 35 88 35 238 c 0
 34 401 136 498 253 498 c 0
 320 498 368 470 390 434 c 1
 392 434 l 1
 392 710 l 1xbc
392 211 m 2
 392 284 l 2
 392 294 391 306 389 316 c 0
 378 364 339 403 283 403 c 0
 204 403 160 333 160 242 c 0
 160 153 204 88 282 88 c 0
 332 88 376 122 388 175 c 0xbc
 391 186 392 198 392 211 c 2
EndSplineSet
EndChar

StartChar: e
Encoding: 101 101 70
Width: 516
Flags: MW
HStem: -10 93<264 321> 209 86<153 367 153 479 153 367> 414 84<228 307>
VStem: 35 118<209 209 209 295 209 303.5> 367 116<295 295>
LayerCount: 2
Fore
SplineSet
479 209 m 1
 153 209 l 1
 156 121 225 83 303 83 c 0
 360 83 401 91 438 105 c 1
 456 20 l 1
 414 3 356 -10 286 -10 c 0
 128 -10 35 87 35 236 c 0
 35 371 117 498 273 498 c 0
 431 498 483 368 483 261 c 0
 483 238 481 220 479 209 c 1
153 295 m 1
 367 295 l 1
 368 340 348 414 266 414 c 0
 190 414 158 345 153 295 c 1
EndSplineSet
EndChar

StartChar: f
Encoding: 102 102 71
Width: 319
Flags: MW
HStem: 0 21G<80 203 80 80> 395 92<14 80 14 80 203 203 203 309> 623 98<253.5 282.5 245 295>
VStem: 80 123<0 395>
LayerCount: 2
Fore
SplineSet
203 0 m 1
 80 0 l 1
 80 395 l 1
 14 395 l 1
 14 487 l 1
 80 487 l 1
 80 508 l 2
 80 571 97 634 139 674 c 0
 175 708 224 721 266 721 c 0
 299 721 325 716 345 709 c 1
 336 614 l 1
 323 619 306 623 284 623 c 0
 223 623 202 572 202 512 c 2
 202 487 l 1
 309 487 l 1
 309 395 l 1
 203 395 l 1
 203 0 l 1
EndSplineSet
EndChar

StartChar: g
Encoding: 103 103 72
Width: 573
Flags: MW
HStem: -209 95<216.5 280.5> 3 92<240.5 274> 404 94<245.5 293 197.5 306> 467 20G<404 511 511 511>
VStem: 35 125<203.5 294.5 203.5 321> 384 123<75 75 213 292 292 297.5>
LayerCount: 2
Fore
SplineSet
404 487 m 1xdc
 511 487 l 1xdc
 509 454 507 414 507 347 c 2
 507 71 l 2
 507 -31 486 -104 435 -150 c 0
 384 -195 314 -209 247 -209 c 0
 185 -209 119 -196 77 -170 c 1
 104 -77 l 1
 135 -95 187 -114 246 -114 c 0
 326 -114 386 -72 386 33 c 2
 386 75 l 1
 384 75 l 1
 356 32 306 3 242 3 c 0
 121 3 35 103 35 241 c 0
 35 401 139 498 256 498 c 0
 330 498 374 462 397 422 c 1
 399 422 l 1xec
 404 487 l 1xdc
384 213 m 2
 384 292 l 2
 384 303 383 315 380 325 c 0
 367 370 332 404 280 404 c 0xec
 211 404 160 344 160 245 c 0
 160 162 202 95 279 95 c 0
 325 95 365 125 379 169 c 0
 382 182 384 199 384 213 c 2
EndSplineSet
EndChar

StartChar: h
Encoding: 104 104 73
Width: 572
Flags: MW
HStem: 0 21G<66 66 66 190 384 384 384 507> 397 101<321.5 324> 690 20G<66 190 190 190>
VStem: 66 124<0 291 420 710> 384 123<0 273 273 287 0 308.5>
LayerCount: 2
Fore
SplineSet
66 0 m 1
 66 710 l 1
 190 710 l 1
 190 420 l 1
 192 420 l 1
 207 443 227 462 253 476 c 0
 277 490 306 498 337 498 c 0
 420 498 507 443 507 287 c 2
 507 0 l 1
 384 0 l 1
 384 273 l 2
 384 344 358 397 290 397 c 0
 242 397 208 365 195 328 c 0
 191 318 190 305 190 291 c 2
 190 0 l 1
 66 0 l 1
EndSplineSet
EndChar

StartChar: i
Encoding: 105 105 74
Width: 256
Flags: MW
HStem: 0 21G<66 190 66 66> 467 20G<66 190 190 190> 557 133<107.5 148.5>
VStem: 59 138<604.5 623 604.5 642> 66 124<0 487>
LayerCount: 2
Fore
SplineSet
190 0 m 1xe8
 66 0 l 1
 66 487 l 1
 190 487 l 1
 190 0 l 1xe8
128 690 m 0xf0
 170 690 196 661 197 623 c 0
 197 586 170 557 127 557 c 0
 86 557 59 586 59 623 c 0
 59 661 87 690 128 690 c 0xf0
EndSplineSet
Substitution2: "'locl' Localized Forms in Latin lookup 2 subtable" i.dot
Substitution2: "'aalt' Access All Alternates lookup 0 subtable" i.dot
EndChar

StartChar: j
Encoding: 106 106 75
Width: 270
Flags: MW
HStem: -209 21G<-30 0.5> -209 96<-42 0.5> 467 20G<82 205 205 205> 557 133<123 164>
VStem: 75 137<605 642> 82 123<91 487>
LayerCount: 2
Fore
SplineSet
-30 -209 m 1xb4
 -42 -113 l 1
 -2 -110 30 -99 50 -78 c 0x74
 73 -53 82 -15 82 91 c 2
 82 487 l 1
 205 487 l 1
 205 56 l 2
 205 -45 186 -108 142 -152 c 0
 99 -192 31 -209 -30 -209 c 1xb4
144 690 m 0xb8
 186 690 212 661 212 623 c 0
 212 587 186 557 142 557 c 0
 101 557 75 587 75 623 c 0
 75 661 102 690 144 690 c 0xb8
EndSplineSet
EndChar

StartChar: k
Encoding: 107 107 76
Width: 509
Flags: MW
HStem: 0 21G<66 189 66 66 371 522 371 371> 467 20G<348 496 496 496> 690 20G<66 189 189 189>
VStem: 66 123<0 166 273 710>
LayerCount: 2
Fore
SplineSet
189 710 m 1
 189 273 l 1
 191 273 l 1
 203 292 217 313 230 330 c 2
 348 487 l 1
 496 487 l 1
 316 288 l 1
 522 0 l 1
 371 0 l 1
 231 215 l 1
 189 166 l 1
 189 0 l 1
 66 0 l 1
 66 710 l 1
 189 710 l 1
EndSplineSet
EndChar

StartChar: l
Encoding: 108 108 77
Width: 257
Flags: MW
HStem: 0 21G<66 66 66 190> 690 20G<66 190 190 190>
VStem: 66 124<0 710 0 710>
LayerCount: 2
Fore
SplineSet
66 0 m 1
 66 710 l 1
 190 710 l 1
 190 0 l 1
 66 0 l 1
EndSplineSet
EndChar

StartChar: m
Encoding: 109 109 78
Width: 848
Flags: MW
HStem: 0 21G<66 66 66 186 365 365 365 485 664 664 664 784> 398 100<285 309.5 601 606.5> 467 20G<62 168 168 168>
VStem: 66 120<0 288 0 342 0 370> 365 120<0 282 282 292 0 316> 664 120<0 269 269 287 0 309.5>
CounterMasks: 1 1c
LayerCount: 2
Fore
SplineSet
66 0 m 1xdc
 66 342 l 2
 66 398 65 445 62 487 c 1
 168 487 l 1xbc
 173 415 l 1
 176 415 l 1
 200 453 244 498 326 498 c 0
 390 498 440 462 461 408 c 1
 463 408 l 1
 480 435 500 455 523 469 c 0
 550 488 581 498 621 498 c 0
 702 498 784 443 784 287 c 2
 784 0 l 1
 664 0 l 1
 664 269 l 2
 664 350 636 398 577 398 c 0
 535 398 504 368 491 333 c 0
 488 321 485 306 485 292 c 2
 485 0 l 1
 365 0 l 1
 365 282 l 2
 365 350 338 398 281 398 c 0
 235 398 204 362 193 328 c 0
 188 316 186 302 186 288 c 2
 186 0 l 1
 66 0 l 1xdc
EndSplineSet
EndChar

StartChar: n
Encoding: 110 110 79
Width: 572
Flags: MW
HStem: 0 21G<66 66 66 190 384 384 384 507> 398 100<293.5 324.5> 467 20G<62 170 170 170>
VStem: 66 124<0 286 0 342 0 370> 384 123<0 275 275 289 0 310>
LayerCount: 2
Fore
SplineSet
66 0 m 1xd8
 66 342 l 2
 66 398 65 445 62 487 c 1
 170 487 l 1xb8
 176 414 l 1
 179 414 l 1
 200 452 253 498 334 498 c 0
 419 498 507 443 507 289 c 2
 507 0 l 1
 384 0 l 1
 384 275 l 2
 384 345 358 398 291 398 c 0
 242 398 208 363 195 326 c 0
 191 315 190 300 190 286 c 2
 190 0 l 1
 66 0 l 1xd8
EndSplineSet
EndChar

StartChar: o
Encoding: 111 111 80
Width: 564
Flags: MW
HStem: -11 89<245.5 318 245.5 341> 408 90<240.5 326>
VStem: 35 127<196 283.5 196 320> 402 127<196 283>
LayerCount: 2
Fore
SplineSet
287 498 m 0
 432 498 529 396 529 248 c 0
 529 69 403 -11 279 -11 c 0
 141 -11 35 84 35 240 c 0
 35 400 140 498 287 498 c 0
284 408 m 0
 197 408 162 324 162 243 c 0
 162 149 208 78 283 78 c 0
 353 78 402 147 402 245 c 0
 402 321 368 408 284 408 c 0
EndSplineSet
Substitution2: "'sups' Superscript lookup 12 subtable" o.superior
Substitution2: "'ordn' Ordinals lookup 11 subtable" o.superior
AlternateSubs2: "'aalt' Access All Alternates lookup 1 subtable" ordmasculine o.superior
EndChar

StartChar: p
Encoding: 112 112 81
Width: 585
Flags: MW
HStem: -198 21G<66 66 66 189> -11 95<297.5 340 275 383.5> 401 97<308 343.5> 467 20G<62 170 170 170>
VStem: 66 123<-198 54 198 204 204 279> 425 125<197 288>
LayerCount: 2
Fore
SplineSet
66 -198 m 1xec
 66 325 l 2
 66 389 64 441 62 487 c 1
 170 487 l 1xdc
 176 412 l 1
 178 412 l 1
 214 467 271 498 345 498 c 0
 457 498 550 402 550 250 c 0
 550 74 439 -11 328 -11 c 0
 267 -11 216 15 191 54 c 1
 189 54 l 1
 189 -198 l 1
 66 -198 l 1xec
189 279 m 2
 189 204 l 2
 189 192 190 181 193 170 c 0
 205 120 249 84 301 84 c 0
 379 84 425 149 425 245 c 0
 425 331 383 401 304 401 c 0
 253 401 206 364 194 310 c 0xec
 191 300 189 289 189 279 c 2
EndSplineSet
EndChar

StartChar: q
Encoding: 113 113 82
Width: 581
Flags: MW
HStem: -198 21G<392 392 392 515> -11 97<242 274.5> 401 86 401 97<244.5 287 201 311.5>
VStem: 35 125<197.5 288 197.5 325> 392 123<-198 67 67 67 205 286 286 291>
LayerCount: 2
Fore
SplineSet
392 -198 m 1xdc
 392 67 l 1
 390 67 l 1
 361 20 310 -11 239 -11 c 0
 130 -11 35 84 35 236 c 0
 35 414 149 498 253 498 c 0
 321 498 369 469 395 423 c 1
 397 422 l 1xdc
 400 487 l 1
 519 487 l 1xec
 517 443 515 397 515 346 c 2
 515 -198 l 1
 392 -198 l 1xdc
392 205 m 2
 392 286 l 2
 392 296 391 307 389 316 c 0
 378 362 339 401 284 401 c 0
 205 401 160 334 160 242 c 0
 160 153 203 86 281 86 c 0
 331 86 372 118 386 167 c 0
 390 179 392 193 392 205 c 2
EndSplineSet
EndChar

StartChar: r
Encoding: 114 114 83
Width: 356
Flags: MW
HStem: 0 21G<66 66 66 189> 383 115<284 310.5> 467 20G<62 169 169 169> 475 20G<339 339>
VStem: 66 123<0 252 0 330 0 363>
LayerCount: 2
Fore
SplineSet
66 0 m 1x98
 66 330 l 2
 66 396 65 443 62 487 c 1
 169 487 l 1xa8
 173 394 l 1
 177 394 l 1
 201 463 258 498 310 498 c 0xc8
 322 498 329 497 339 495 c 1x98
 339 379 l 1
 329 381 318 383 303 383 c 0
 244 383 204 345 193 290 c 0xc8
 191 279 189 266 189 252 c 2
 189 0 l 1
 66 0 l 1x98
EndSplineSet
EndChar

StartChar: s
Encoding: 115 115 84
Width: 417
Flags: MW
HStem: -10 88<163 212 163 248.5> 410 88<213 256.5>
VStem: 49 118<345 374 343.5 388> 263 119<116 142 98 148.5>
LayerCount: 2
Fore
SplineSet
36 24 m 1
 60 113 l 1
 88 96 141 78 185 78 c 0
 239 78 263 100 263 132 c 0
 263 165 243 182 183 203 c 0
 88 236 48 288 49 345 c 0
 49 431 120 498 233 498 c 0
 287 498 334 484 362 469 c 1
 338 382 l 1
 317 394 278 410 235 410 c 0
 191 410 167 389 167 359 c 0
 167 328 190 313 252 291 c 0
 340 259 381 214 382 142 c 0
 382 54 313 -10 184 -10 c 0
 125 -10 72 4 36 24 c 1
EndSplineSet
EndChar

StartChar: t
Encoding: 116 116 85
Width: 351
Flags: MW
HStem: -10 100<246.5 250.5> 395 92<17 87 17 87 207 324>
VStem: 87 120<166 180 180 395 487 597 597 597>
LayerCount: 2
Fore
SplineSet
87 597 m 1
 207 626 l 1
 207 487 l 1
 324 487 l 1
 324 395 l 1
 207 395 l 1
 207 180 l 2
 207 121 223 90 270 90 c 0
 291 90 307 93 318 96 c 1
 320 2 l 1
 302 -5 270 -10 231 -10 c 0
 186 -10 148 5 125 30 c 0
 99 58 87 102 87 166 c 2
 87 395 l 1
 17 395 l 1
 17 487 l 1
 87 487 l 1
 87 597 l 1
EndSplineSet
EndChar

StartChar: u
Encoding: 117 117 86
Width: 569
Flags: MW
HStem: -11 100<245.5 277.5> 0 21G<398 506 398 398> 467 20G<64 187 187 187 379 502 502 502>
VStem: 64 123<201 222 222 487> 379 123<193 487>
LayerCount: 2
Fore
SplineSet
502 487 m 1xb8
 502 146 l 2
 502 88 504 40 506 0 c 1
 398 0 l 1x78
 392 74 l 1
 390 74 l 1
 369 39 321 -11 234 -11 c 0
 145 -11 64 42 64 201 c 2
 64 487 l 1
 187 487 l 1
 187 222 l 2
 187 141 213 89 278 89 c 0
 327 89 359 124 372 155 c 0
 376 166 379 179 379 193 c 2
 379 487 l 1
 502 487 l 1xb8
EndSplineSet
EndChar

StartChar: v
Encoding: 118 118 87
Width: 508
Flags: MW
HStem: 0 21G<192 313 192 192> 0 118<256 259 256 313 192 259> 467 20G<11 144 144 144 369 499 499 499>
VStem: 11 488<487 487>
LayerCount: 2
Fore
SplineSet
11 487 m 1xb0
 144 487 l 1
 223 240 l 2
 237 197 247 158 256 118 c 1
 259 118 l 1x70
 268 158 279 196 292 240 c 2
 369 487 l 1
 499 487 l 1
 313 0 l 1
 192 0 l 1
 11 487 l 1xb0
EndSplineSet
EndChar

StartChar: w
Encoding: 119 119 88
Width: 749
Flags: MW
HStem: 0 108<222 224 222 273 158 224 527 529> 354 133<372 374 372 372> 467 20G<14 140 140 140 327 427 427 427 615 736 736 736>
VStem: 14 722<487 487>
LayerCount: 2
Fore
SplineSet
14 487 m 1xb0
 140 487 l 1
 191 266 l 2
 202 214 213 161 222 108 c 1
 224 108 l 1
 234 161 250 215 264 265 c 2
 327 487 l 1
 427 487 l 1
 488 271 l 2
 503 214 516 161 527 108 c 1
 529 108 l 1
 537 161 548 214 561 271 c 2
 615 487 l 1
 736 487 l 1
 583 0 l 1
 469 0 l 1
 411 198 l 2
 396 249 385 295 374 354 c 1
 372 354 l 1xd0
 362 294 349 246 335 198 c 2
 273 0 l 1
 158 0 l 1
 14 487 l 1xb0
EndSplineSet
EndChar

StartChar: x
Encoding: 120 120 89
Width: 494
Flags: MW
HStem: 0 21G<5 141 5 5 347 486 347 347> 467 20G<11 148 148 148 349 483 483 483>
VStem: 5 481<0 0>
LayerCount: 2
Fore
SplineSet
11 487 m 1
 148 487 l 1
 206 395 l 2
 222 369 236 345 250 320 c 1
 253 320 l 1
 267 347 281 372 295 397 c 2
 349 487 l 1
 483 487 l 1
 320 253 l 1
 486 0 l 1
 347 0 l 1
 287 97 l 2
 271 123 257 149 243 176 c 1
 241 176 l 1
 227 148 213 124 197 97 c 2
 141 0 l 1
 5 0 l 1
 174 248 l 1
 11 487 l 1
EndSplineSet
EndChar

StartChar: y
Encoding: 121 121 90
Width: 500
Flags: MW
HStem: -117 21G<46 46> 467 20G<8 143 143 143 363 495 495 495>
VStem: 8 487<487 487>
LayerCount: 2
Fore
SplineSet
8 487 m 1
 143 487 l 1
 231 226 l 2
 241 196 251 159 258 131 c 1
 261 131 l 1
 269 159 278 195 287 227 c 2
 363 487 l 1
 495 487 l 1
 373 155 l 2
 306 -27 261 -108 203 -158 c 0
 155 -201 105 -217 74 -221 c 1
 46 -117 l 1
 67 -112 93 -101 118 -83 c 0
 141 -68 168 -39 185 -6 c 0
 190 3 193 10 193 16 c 0
 193 21 192 28 186 40 c 2
 8 487 l 1
EndSplineSet
EndChar

StartChar: z
Encoding: 122 122 91
Width: 450
Flags: MW
HStem: 0 98<174 431 174 431> 389 98<38 275 38 425>
VStem: 20 411<0 71 71 71>
LayerCount: 2
Fore
SplineSet
20 0 m 1
 20 71 l 1
 203 305 l 2
 228 335 249 359 275 387 c 1
 275 389 l 1
 38 389 l 1
 38 487 l 1
 425 487 l 1
 425 412 l 1
 246 183 l 2
 222 154 199 126 174 100 c 1
 174 98 l 1
 431 98 l 1
 431 0 l 1
 20 0 l 1
EndSplineSet
EndChar

StartChar: braceleft
Encoding: 123 123 92
Width: 301
Flags: MW
HStem: -112 71<199.5 272 254 272 254 272> 255 65<29 29> 614 72<243 254 254 272>
VStem: 29 88<287 289 287 320 287 320> 94 90<13 37.5 539 560.5> 107 90<171 174 160.5 198.5 401 404>
LayerCount: 2
Fore
SplineSet
29 255 m 1xf0
 29 320 l 1
 99 321 107 359 107 391 c 0xe4
 107 417 104 444 101 471 c 0
 97 499 94 526 94 552 c 0
 94 646 154 686 243 686 c 2
 272 686 l 1
 272 614 l 1
 254 614 l 2
 202 614 184 585 184 536 c 0xe8
 184 516 187 495 191 473 c 0
 193 451 197 427 197 401 c 0
 198 331 168 301 117 289 c 1
 117 287 l 1
 168 275 198 244 197 174 c 0xe4
 197 147 193 123 191 101 c 0
 187 79 184 58 184 38 c 0
 184 -12 204 -41 254 -41 c 2
 272 -41 l 1
 272 -112 l 1
 243 -112 l 2
 156 -112 94 -76 94 25 c 0xe8
 94 50 97 78 101 105 c 0
 104 132 107 158 107 184 c 0xe4
 107 213 99 254 29 255 c 1xf0
EndSplineSet
Substitution2: "'case' Case-Sensitive Forms lookup 4 subtable" braceleft.cap
Substitution2: "'aalt' Access All Alternates lookup 0 subtable" braceleft.cap
EndChar

StartChar: bar
Encoding: 124 124 93
Width: 263
Flags: MW
HStem: -250 1000<87 176 87 176>
VStem: 87 89<-250 750 -250 750>
LayerCount: 2
Fore
SplineSet
87 750 m 1
 176 750 l 1
 176 -250 l 1
 87 -250 l 1
 87 750 l 1
EndSplineSet
EndChar

StartChar: braceright
Encoding: 125 125 94
Width: 301
Flags: MW
HStem: -112 71<29 47 29 58 29 47> 255 65<271 271> 614 72<29 47 29 58>
VStem: 104 89<171 174 401 404> 116 91<13 37.5 -25.5 48 539 560.5> 183 88<287 289 289 289>
LayerCount: 2
Fore
SplineSet
271 320 m 1xe4
 271 255 l 1
 202 254 193 213 193 184 c 0xf0
 193 158 197 132 200 105 c 0
 203 78 207 50 207 25 c 0
 207 -76 145 -112 58 -112 c 2
 29 -112 l 1
 29 -41 l 1
 47 -41 l 2
 97 -40 116 -12 116 38 c 0xe8
 116 58 113 79 110 101 c 0
 107 123 104 147 104 174 c 0
 103 244 133 275 183 287 c 1
 183 289 l 1
 133 301 103 331 104 401 c 0xf0
 104 427 107 451 110 473 c 0
 113 495 116 516 116 536 c 0
 116 585 98 613 47 614 c 2
 29 614 l 1
 29 686 l 1
 58 686 l 2
 147 686 207 646 207 552 c 0xe8
 207 526 203 499 200 471 c 0
 197 444 193 417 193 391 c 0xf0
 193 359 202 321 271 320 c 1xe4
EndSplineSet
Substitution2: "'case' Case-Sensitive Forms lookup 4 subtable" braceright.cap
Substitution2: "'aalt' Access All Alternates lookup 0 subtable" braceright.cap
EndChar

StartChar: asciitilde
Encoding: 126 126 95
Width: 596
Flags: MW
HStem: 194 90<410 439.5> 284 87<162.5 192>
VStem: 45 80<200 200> 471 80<366 366>
LayerCount: 2
Fore
SplineSet
125 200 m 1x70
 45 200 l 1
 43 319 100 371 176 371 c 0x70
 221 371 255 356 316 324 c 0
 363 300 395 284 425 284 c 0
 454 284 470 309 471 366 c 1
 551 366 l 1
 556 238 496 194 426 194 c 0xb0
 382 194 345 210 284 241 c 0
 238 265 207 284 177 284 c 0
 148 284 128 263 125 200 c 1x70
EndSplineSet
EndChar

StartChar: exclamdown
Encoding: 161 161 96
Width: 251
Flags: MW
HStem: -198 21G<61 191 61 61> 336 156<103.5 148.5 103.5 149>
VStem: 50 151<391 436> 70 112
LayerCount: 2
Fore
SplineSet
191 -198 m 1xd0
 61 -198 l 1
 79 267 l 1
 173 267 l 1
 191 -198 l 1xd0
126 492 m 0xe0
 171 492 201 459 201 413 c 0
 201 369 172 336 126 336 c 0
 81 336 50 369 50 413 c 0
 50 459 81 492 126 492 c 0xe0
EndSplineSet
Substitution2: "'case' Case-Sensitive Forms lookup 4 subtable" exclamdown.cap
Substitution2: "'aalt' Access All Alternates lookup 0 subtable" exclamdown.cap
EndChar

StartChar: cent
Encoding: 162 162 97
Width: 536
Flags: MW
HStem: -13 192<299 356 274 362> 486 187<295.5 356 274 362>
VStem: 71 125<292.5 376 282 389> 274 82<-13 85 579 673>
LayerCount: 2
Fore
SplineSet
356 -13 m 1
 274 -13 l 1
 274 87 l 1
 210 95 163 120 127 160 c 0
 93 200 71 258 71 327 c 0
 71 451 147 552 274 575 c 1
 274 673 l 1
 356 673 l 1
 356 579 l 1
 394 578 432 568 458 557 c 1
 436 465 l 1
 414 476 384 486 340 486 c 0
 251 486 196 420 196 332 c 0
 196 232 260 179 338 179 c 0
 386 179 419 189 444 200 c 1
 461 111 l 1
 439 99 400 88 356 85 c 1
 356 -13 l 1
EndSplineSet
Substitution2: "'onum' Oldstyle Figures lookup 14 subtable" cent.taboldstyle
Substitution2: "'subs' Subscript lookup 13 subtable" cent.inferior
Substitution2: "'sups' Superscript lookup 12 subtable" cent.superior
Substitution2: "'dnom' Denominators lookup 6 subtable" cent.denominator
Substitution2: "'numr' Numerators lookup 5 subtable" cent.numerator
AlternateSubs2: "'aalt' Access All Alternates lookup 1 subtable" cent.numerator cent.denominator cent.superior cent.inferior cent.taboldstyle
EndChar

StartChar: sterling
Encoding: 163 163 98
Width: 536
Flags: MW
HStem: 0 101<210 491 210 491> 280 85<62 148 62 162 62 148 275 275 275 404> 563 98<317 373.5>
VStem: 138 115<442 484 438 519.5> 166 109<190.5 280>
LayerCount: 2
Fore
SplineSet
491 0 m 1xf0
 53 0 l 1
 53 67 l 1
 113 95 166 155 166 226 c 0
 166 245 165 261 162 280 c 1xe8
 62 280 l 1
 62 365 l 1
 148 365 l 1
 143 393 138 426 138 458 c 0
 138 581 225 661 349 661 c 0
 403 661 441 649 463 636 c 1
 441 543 l 1
 422 554 393 563 354 563 c 0
 280 563 253 513 253 455 c 0
 253 421 258 394 264 365 c 1xf0
 404 365 l 1
 404 280 l 1
 275 280 l 1
 276 249 276 219 268 191 c 0
 258 157 238 128 210 103 c 1
 210 101 l 1xe8
 491 101 l 1
 491 0 l 1xf0
EndSplineSet
Substitution2: "'onum' Oldstyle Figures lookup 14 subtable" sterling.taboldstyle
Substitution2: "'aalt' Access All Alternates lookup 0 subtable" sterling.taboldstyle
EndChar

StartChar: fraction
Encoding: 8260 8260 99
Width: 124
Flags: MW
HStem: -11 672<-161 284 -161 284>
VStem: -161 445
LayerCount: 2
Fore
SplineSet
-90 -11 m 1
 -161 -11 l 1
 213 661 l 1
 284 661 l 1
 -90 -11 l 1
EndSplineSet
EndChar

StartChar: yen
Encoding: 165 165 100
Width: 536
Flags: MW
HStem: 0 21G<205 320 205 205> 167 61<49 205 49 205 320 477> 296 61<49 174 49 205 49 174 353 477> 630 20G<8 141 141 141 398 528 528 528>
VStem: 205 115<0 167 228 296>
LayerCount: 2
Fore
SplineSet
320 0 m 1
 205 0 l 1
 205 167 l 1
 49 167 l 1
 49 228 l 1
 205 228 l 1
 205 296 l 1
 49 296 l 1
 49 357 l 1
 174 357 l 1
 8 650 l 1
 141 650 l 1
 225 469 l 2
 243 432 254 401 267 369 c 1
 269 369 l 1
 281 399 294 434 311 471 c 2
 398 650 l 1
 528 650 l 1
 353 357 l 1
 477 357 l 1
 477 296 l 1
 320 296 l 1
 320 228 l 1
 477 228 l 1
 477 167 l 1
 320 167 l 1
 320 0 l 1
EndSplineSet
Substitution2: "'onum' Oldstyle Figures lookup 14 subtable" yen.taboldstyle
Substitution2: "'aalt' Access All Alternates lookup 0 subtable" yen.taboldstyle
EndChar

StartChar: florin
Encoding: 402 402 101
Width: 536
Flags: MW
HStem: -88 94<105 117.5 80.5 170.5> 320 87<113 207 113 197 326 436> 567 94<394 417 339 433>
VStem: 20 473 209.5 119.5
LayerCount: 2
Fore
SplineSet
113 320 m 1xf0
 113 407 l 1
 207 407 l 1
 212 446 l 2
 221 527 261 661 417 661 c 0
 449 660 477 654 493 645 c 1
 473 557 l 1
 459 563 443 567 423 567 c 0
 365 567 339 518 332 455 c 2
 326 407 l 1xe8
 436 407 l 1
 436 320 l 1
 315 320 l 1
 292 130 l 2
 277 5 236 -88 105 -88 c 0
 67 -87 36 -80 20 -71 c 1
 39 16 l 1
 55 9 71 6 90 6 c 0
 145 6 165 46 178 155 c 2
 197 320 l 1
 113 320 l 1xf0
EndSplineSet
Substitution2: "'onum' Oldstyle Figures lookup 14 subtable" florin.taboldstyle
Substitution2: "'aalt' Access All Alternates lookup 0 subtable" florin.taboldstyle
EndChar

StartChar: section
Encoding: 167 167 102
Width: 542
Flags: MW
HStem: -71 79<225.5 281 222 302.5> 606 78<265 322.5>
VStem: 51 97<329.5 347.5> 91 107<534 564 526 582> 352 112<51.5 92.5> 393 98<270.5 295.5>
LayerCount: 2
Fore
SplineSet
148 347 m 0xe4
 148 312 175 285 244 261 c 0
 292 244 337 229 360 216 c 1
 381 230 393 254 393 279 c 0
 393 312 371 340 315 360 c 0
 274 376 219 394 188 410 c 1
 163 394 148 372 148 347 c 0xe4
443 653 m 1
 421 576 l 1
 393 591 351 606 294 606 c 0
 236 606 198 582 198 546 c 0
 198 506 240 487 313 464 c 0
 414 433 491 394 491 297 c 0xd4
 491 244 464 205 422 176 c 1
 440 161 464 128 464 85 c 0
 464 -29 349 -71 256 -71 c 0
 195 -71 129 -58 82 -27 c 1
 109 49 l 1
 136 32 192 8 252 8 c 0
 310 8 352 30 352 73 c 0
 352 112 322 133 239 161 c 0
 134 195 51 233 51 327 c 0xe8
 51 368 75 416 130 447 c 1
 109 463 92 498 91 534 c 0xd8
 91 630 181 684 294 684 c 0
 351 684 402 673 443 653 c 1
EndSplineSet
EndChar

StartChar: currency
Encoding: 164 164 103
Width: 536
Flags: MW
HStem: 121 84<245.5 286> 459 84<245.5 291.5 245.5 299>
VStem: 68 94<305 358.5> 370 95<307.5 361 307.5 367.5>
LayerCount: 2
Fore
SplineSet
268 543 m 0
 315 543 355 528 384 505 c 1
 458 585 l 1
 515 527 l 1
 432 452 l 1
 449 426 465 387 465 335 c 0
 465 280 448 239 430 214 c 1
 510 136 l 1
 454 80 l 1
 383 162 l 1
 353 135 306 121 266 121 c 0
 225 121 179 135 151 160 c 1
 82 80 l 1
 26 136 l 1
 104 211 l 1
 85 237 68 279 68 331 c 0
 68 386 86 425 104 452 c 1
 23 526 l 1
 80 585 l 1
 153 504 l 1
 182 529 223 543 268 543 c 0
267 459 m 0
 205 459 162 405 162 332 c 0
 162 245 220 205 266 205 c 0
 316 205 370 243 370 334 c 0
 370 401 331 459 267 459 c 0
EndSplineSet
EndChar

StartChar: quotesingle
Encoding: 39 39 104
Width: 198
Flags: MW
HStem: 428 257<62 135 62 62> 665 20G<42 155 155 155>
VStem: 42 113<685 685>
LayerCount: 2
Fore
SplineSet
42 685 m 1x60
 155 685 l 1
 135 428 l 1
 62 428 l 1xa0
 42 685 l 1x60
EndSplineSet
EndChar

StartChar: quotedblleft
Encoding: 8220 8220 105
Width: 409
Flags: MW
HStem: 426.5 258.5
VStem: 30 358<422 685>
LayerCount: 2
Fore
SplineSet
148 431 m 1
 30 422 l 1
 57 513 100 616 138 678 c 1
 213 685 l 1
 187 612 161 512 148 431 c 1
323 431 m 1
 204 422 l 1
 231 513 274 616 312 678 c 1
 388 685 l 1
 361 612 335 512 323 431 c 1
EndSplineSet
EndChar

StartChar: guillemotleft
Encoding: 171 171 106
Width: 444
Flags: MW
HStem: 64 376<151 241 151 151 150 331 331 421>
VStem: 27 394<64 252>
LayerCount: 2
Fore
SplineSet
241 440 m 1
 115 252 l 1
 241 64 l 1
 151 64 l 1
 27 252 l 1
 150 440 l 1
 241 440 l 1
421 440 m 1
 296 252 l 1
 421 64 l 1
 331 64 l 1
 208 252 l 1
 331 440 l 1
 421 440 l 1
EndSplineSet
Substitution2: "'case' Case-Sensitive Forms lookup 4 subtable" guillemotleft.cap
Substitution2: "'aalt' Access All Alternates lookup 0 subtable" guillemotleft.cap
EndChar

StartChar: guilsinglleft
Encoding: 8249 8249 107
Width: 264
Flags: MW
HStem: 64 376<151 241 151 151>
VStem: 27 214<64 252>
LayerCount: 2
Fore
SplineSet
241 440 m 1
 115 252 l 1
 241 64 l 1
 151 64 l 1
 27 252 l 1
 150 440 l 1
 241 440 l 1
EndSplineSet
Substitution2: "'case' Case-Sensitive Forms lookup 4 subtable" guilsinglleft.cap
Substitution2: "'aalt' Access All Alternates lookup 0 subtable" guilsinglleft.cap
EndChar

StartChar: guilsinglright
Encoding: 8250 8250 108
Width: 264
Flags: MW
HStem: 64 376<23 112 23 112>
VStem: 23 213<64 252 252 440>
LayerCount: 2
Fore
SplineSet
148 252 m 1
 23 440 l 1
 112 440 l 1
 236 252 l 1
 112 64 l 1
 23 64 l 1
 148 252 l 1
EndSplineSet
Substitution2: "'case' Case-Sensitive Forms lookup 4 subtable" guilsinglright.cap
Substitution2: "'aalt' Access All Alternates lookup 0 subtable" guilsinglright.cap
EndChar

StartChar: fi
Encoding: 64257 64257 109
Width: 559
Flags: MW
HStem: 0 21G<80 203 80 80 369 369 369 493> 395 92<14 80 14 80 203 203 203 369> 623 98<273 339>
VStem: 80 123<0 395> 369 124<0 395 395 395>
LayerCount: 2
Fore
SplineSet
203 0 m 1
 80 0 l 1
 80 395 l 1
 14 395 l 1
 14 487 l 1
 80 487 l 1
 80 510 l 2
 80 641 171 721 316 721 c 0
 364 721 422 708 450 690 c 1
 423 597 l 1
 400 610 362 623 316 623 c 0
 230 623 202 571 202 507 c 2
 202 487 l 1
 493 487 l 1
 493 0 l 1
 369 0 l 1
 369 395 l 1
 203 395 l 1
 203 0 l 1
EndSplineSet
EndChar

StartChar: fl
Encoding: 64258 64258 110
Width: 559
Flags: MW
HStem: 0 21G<80 203 80 80 369 369 369 493> 395 92<14 80 14 80 203 203 203 302> 628 93<287 320.5>
VStem: 80 123<0 395> 369 124<0 617 617 617>
LayerCount: 2
Fore
SplineSet
203 0 m 1
 80 0 l 1
 80 395 l 1
 14 395 l 1
 14 487 l 1
 80 487 l 1
 80 508 l 2
 80 569 105 630 152 669 c 0
 195 704 250 721 324 721 c 0
 389 721 449 708 493 684 c 1
 493 0 l 1
 369 0 l 1
 369 617 l 1
 356 624 336 628 305 628 c 0
 230 628 202 574 202 509 c 2
 202 487 l 1
 302 487 l 1
 302 395 l 1
 203 395 l 1
 203 0 l 1
EndSplineSet
EndChar

StartChar: endash
Encoding: 8211 8211 111
Width: 500
Flags: MW
HStem: 215 78<30 470 30 470>
VStem: 30 440<215 293 215 293>
LayerCount: 2
Fore
SplineSet
30 293 m 1
 470 293 l 1
 470 215 l 1
 30 215 l 1
 30 293 l 1
EndSplineSet
Substitution2: "'case' Case-Sensitive Forms lookup 4 subtable" endash.cap
Substitution2: "'aalt' Access All Alternates lookup 0 subtable" endash.cap
EndChar

StartChar: dagger
Encoding: 8224 8224 112
Width: 513
Flags: MW
HStem: 386 87.5 654 20G<201 313 313 313>
VStem: 206.5 101
LayerCount: 2
Fore
SplineSet
201 674 m 1
 313 674 l 1
 302 469 l 1
 475 478 l 1
 475 381 l 1
 302 391 l 1
 313 -50 l 1
 201 -50 l 1
 212 391 l 1
 39 381 l 1
 39 478 l 1
 212 469 l 1
 201 674 l 1
EndSplineSet
EndChar

StartChar: daggerdbl
Encoding: 8225 8225 113
Width: 513
Flags: MW
HStem: 143.5 87.5 399.5 87.5 654 20G<201 312 312 312>
VStem: 205 103 210 94<226 405>
LayerCount: 2
Fore
SplineSet
201 674 m 1xf0
 312 674 l 1
 304 482 l 1xf0
 475 492 l 1
 475 394 l 1
 304 405 l 1
 304 226 l 1xe8
 475 236 l 1
 475 139 l 1
 304 148 l 1
 312 -50 l 1
 201 -50 l 1
 209 148 l 1xf0
 38 139 l 1
 38 236 l 1
 210 226 l 1
 210 405 l 1xe8
 38 394 l 1
 38 492 l 1
 210 482 l 1
 201 674 l 1xf0
EndSplineSet
EndChar

StartChar: periodcentered
Encoding: 183 183 114
Width: 236
Flags: MW
HStem: 182 158<96 140.5 96 141>
VStem: 42 152<238 284>
LayerCount: 2
Fore
SplineSet
118 182 m 0
 73 182 42 215 42 261 c 0
 42 307 74 340 118 340 c 0
 163 340 194 308 194 261 c 0
 194 215 164 182 118 182 c 0
EndSplineSet
Substitution2: "'case' Case-Sensitive Forms lookup 4 subtable" periodcentered.cap
Substitution2: "'aalt' Access All Alternates lookup 0 subtable" periodcentered.cap
EndChar

StartChar: paragraph
Encoding: 182 182 115
Width: 529
Flags: MW
HStem: 598 79<298 347.5 203 369 298 298>
VStem: 217 81<-48 264 264 264> 369 81<-48 598 598 598>
LayerCount: 2
Fore
SplineSet
298 -48 m 1
 217 -48 l 1
 217 264 l 1
 210 264 l 2
 142 264 32 326 32 455 c 0
 32 558 87 677 319 677 c 0
 376 677 422 674 450 667 c 1
 450 -48 l 1
 369 -48 l 1
 369 598 l 1
 298 598 l 1
 298 -48 l 1
EndSplineSet
EndChar

StartChar: bullet
Encoding: 8226 8226 116
Width: 313
Flags: MW
HStem: 142 238<123.5 189 123.5 189.5>
VStem: 38 237<228 261>
LayerCount: 2
Fore
SplineSet
156 142 m 0
 91 142 38 193 38 261 c 0
 36 328 91 380 156 380 c 0
 222 380 275 328 275 261 c 0
 275 195 223 142 156 142 c 0
EndSplineSet
EndChar

StartChar: quotesinglbase
Encoding: 8218 8218 117
Width: 236
Flags: MW
HStem: -110 263<18 202>
VStem: 18 184
LayerCount: 2
Fore
SplineSet
94 -103 m 1
 18 -110 l 1
 45 -37 71 63 83 143 c 1
 202 153 l 1
 175 62 131 -41 94 -103 c 1
EndSplineSet
EndChar

StartChar: quotedblbase
Encoding: 8222 8222 118
Width: 412
Flags: MW
HStem: -110 263<17 201 192 201>
VStem: 17 359<-110 153>
LayerCount: 2
Fore
SplineSet
93 -103 m 1
 17 -110 l 1
 44 -37 70 63 82 143 c 1
 201 153 l 1
 174 62 131 -41 93 -103 c 1
267 -103 m 1
 192 -110 l 1
 218 -37 244 63 257 143 c 1
 376 153 l 1
 348 62 305 -41 267 -103 c 1
EndSplineSet
EndChar

StartChar: quotedblright
Encoding: 8221 8221 119
Width: 409
Flags: MW
HStem: 425.5 259.5 665 20G<213 213 387 387>
VStem: 29 358<422 685>
LayerCount: 2
Fore
SplineSet
94 676 m 1x60
 213 685 l 1
 185 594 142 491 105 429 c 1
 29 422 l 1xa0
 55 495 81 595 94 676 c 1x60
268 676 m 1
 387 685 l 1
 360 594 316 491 279 429 c 1
 203 422 l 1
 229 495 256 595 268 676 c 1
EndSplineSet
EndChar

StartChar: guillemotright
Encoding: 187 187 120
Width: 444
Flags: MW
HStem: 64 376<23 112 23 112 23 202 202 291>
VStem: 23 392<64 252 252 440>
LayerCount: 2
Fore
SplineSet
149 252 m 1
 23 440 l 1
 112 440 l 1
 236 252 l 1
 112 64 l 1
 23 64 l 1
 149 252 l 1
328 252 m 1
 202 440 l 1
 291 440 l 1
 415 252 l 1
 291 64 l 1
 202 64 l 1
 328 252 l 1
EndSplineSet
Substitution2: "'case' Case-Sensitive Forms lookup 4 subtable" guillemotright.cap
Substitution2: "'aalt' Access All Alternates lookup 0 subtable" guillemotright.cap
EndChar

StartChar: ellipsis
Encoding: 8230 8230 121
Width: 1000
Flags: MW
HStem: -11 158<144.5 189 478 522.5 811.5 856.5>
VStem: 91 152<45.5 91> 424 152<45.5 91> 758 152<45.5 91>
LayerCount: 2
Fore
SplineSet
166 -11 m 0
 122 -11 90 23 91 68 c 0
 91 114 122 147 167 147 c 0
 212 147 242 115 243 68 c 0
 243 23 212 -11 166 -11 c 0
500 -11 m 0
 455 -11 424 23 424 68 c 0
 424 114 456 147 500 147 c 0
 545 147 576 115 576 68 c 0
 576 23 546 -11 500 -11 c 0
834 -11 m 0
 789 -11 757 23 758 68 c 0
 758 114 789 147 834 147 c 0
 879 147 909 115 910 68 c 0
 910 23 880 -11 834 -11 c 0
EndSplineSet
EndChar

StartChar: perthousand
Encoding: 8240 8240 122
Width: 1227
Flags: MW
HStem: -8 69<620.5 670 620.5 687 1006.5 1056> 262 69<172.5 221.5 172.5 238.5> 322 70<620 671.5 1006 1057.5> 592 69<172 223.5>
VStem: 28 94<461 497.5 461 518.5> 270 93<422.5 498> 477 93<191 227.5 191 249> 718 93<152.5 228.5> 863 93<191 227.5 191 249> 1104 94<152.5 228.5>
LayerCount: 2
Fore
SplineSet
647 392 m 0xbfc0
 750 392 811 315 811 198 c 0
 811 62 732 -8 642 -8 c 0
 552 -8 477 62 477 188 c 0
 477 310 548 392 647 392 c 0xbfc0
645 322 m 0
 595 322 570 264 570 191 c 0
 569 117 596 61 645 61 c 0
 695 61 718 113 718 192 c 0
 718 265 698 322 645 322 c 0
1033 392 m 0
 1136 392 1198 315 1198 198 c 0
 1198 62 1118 -8 1028 -8 c 0
 938 -8 863 62 863 188 c 0
 863 310 934 392 1033 392 c 0
1031 322 m 0
 981 322 956 264 956 191 c 0
 955 117 982 61 1031 61 c 0
 1081 61 1104 113 1104 192 c 0
 1104 265 1084 322 1031 322 c 0
199 661 m 0
 302 661 363 585 363 468 c 0
 363 331 283 262 194 262 c 0x4c
 103 262 29 332 28 457 c 0
 28 580 99 661 199 661 c 0
197 592 m 0
 147 592 122 534 122 461 c 0
 121 386 148 331 197 331 c 0x4c
 246 331 270 383 270 462 c 0
 270 534 250 592 197 592 c 0
266 -11 m 1
 196 -11 l 1
 573 661 l 1
 643 661 l 1
 266 -11 l 1
EndSplineSet
EndChar

StartChar: questiondown
Encoding: 191 191 123
Width: 428
Flags: MW
HStem: -203 99<256 260.5> 336 156<220.5 265.5 220.5 266>
VStem: 48 125<-54 -15> 167 152<391.5 437> 187 109
LayerCount: 2
Fore
SplineSet
243 492 m 0xd0
 288 492 319 460 319 414 c 0
 319 369 289 336 243 336 c 0
 198 336 167 369 167 414 c 0
 167 460 198 492 243 492 c 0xd0
187 271 m 1xc8
 295 271 l 1
 297 246 l 2xc8
 301 193 283 141 236 84 c 0
 198 39 173 6 173 -33 c 0
 173 -75 200 -103 256 -104 c 0
 290 -104 330 -93 356 -74 c 1
 385 -162 l 1
 350 -185 292 -203 229 -203 c 0
 105 -203 48 -131 48 -51 c 0xe0
 48 21 91 69 134 118 c 0
 174 164 189 202 187 250 c 2
 187 271 l 1xc8
EndSplineSet
Substitution2: "'case' Case-Sensitive Forms lookup 4 subtable" questiondown.cap
Substitution2: "'aalt' Access All Alternates lookup 0 subtable" questiondown.cap
EndChar

StartChar: grave
Encoding: 96 96 124
Width: 300
Flags: MW
HStem: 550 148<12 220 12 134>
VStem: 12 208<550 698>
LayerCount: 2
Fore
SplineSet
12 698 m 1
 133 698 l 1
 220 550 l 1
 134 550 l 1
 12 698 l 1
EndSplineSet
Substitution2: "'case' Case-Sensitive Forms lookup 4 subtable" grave.cap
Substitution2: "'aalt' Access All Alternates lookup 0 subtable" grave.cap
EndChar

StartChar: acute
Encoding: 180 180 125
Width: 300
Flags: MW
HStem: 550 148<87 295 87 295>
VStem: 87 208<550 698>
LayerCount: 2
Fore
SplineSet
174 698 m 1
 295 698 l 1
 172 550 l 1
 87 550 l 1
 174 698 l 1
EndSplineSet
Substitution2: "'case' Case-Sensitive Forms lookup 4 subtable" acute.cap
Substitution2: "'aalt' Access All Alternates lookup 0 subtable" acute.cap
EndChar

StartChar: circumflex
Encoding: 710 710 126
Width: 300
Flags: MW
HStem: 550 148<11 192 11 192 108 289 108 205>
VStem: 11 278<550 550>
LayerCount: 2
Fore
SplineSet
108 698 m 1
 192 698 l 1
 289 550 l 1
 205 550 l 1
 151 641 l 1
 149 641 l 1
 95 550 l 1
 11 550 l 1
 108 698 l 1
EndSplineSet
Substitution2: "'case' Case-Sensitive Forms lookup 4 subtable" circumflex.cap
Substitution2: "'aalt' Access All Alternates lookup 0 subtable" circumflex.cap
EndChar

StartChar: tilde
Encoding: 732 732 127
Width: 300
Flags: MW
HStem: 562 119<68.5 78 16 104> 569 116<225 234>
VStem: 16 62<562 562> 225 59<685 685>
LayerCount: 2
Fore
SplineSet
78 562 m 1xb0
 16 562 l 1
 14 638 45 681 92 681 c 0xb0
 116 681 135 671 156 660 c 0
 172 651 186 642 198 642 c 0
 214 642 222 651 225 685 c 1
 284 685 l 1
 287 605 259 569 209 569 c 0x70
 184 569 164 579 143 590 c 0
 124 601 115 607 103 607 c 0
 88 607 79 591 78 562 c 1xb0
EndSplineSet
Substitution2: "'case' Case-Sensitive Forms lookup 4 subtable" tilde.cap
Substitution2: "'aalt' Access All Alternates lookup 0 subtable" tilde.cap
EndChar

StartChar: macron
Encoding: 175 175 128
Width: 300
Flags: MW
HStem: 584 71<31 270 31 270>
VStem: 31 239<584 655 584 655>
LayerCount: 2
Fore
SplineSet
31 655 m 1
 270 655 l 1
 270 584 l 1
 31 584 l 1
 31 655 l 1
EndSplineSet
Substitution2: "'case' Case-Sensitive Forms lookup 4 subtable" macron.cap
Substitution2: "'aalt' Access All Alternates lookup 0 subtable" macron.cap
EndChar

StartChar: breve
Encoding: 728 728 129
Width: 300
Flags: MW
HStem: 553 70<130.5 171 130.5 191.5>
VStem: 18 67<652 688>
LayerCount: 2
Fore
SplineSet
18 688 m 1
 85 688 l 1
 90 651 112 623 149 623 c 0
 193 623 213 655 215 688 c 1
 282 688 l 1
 282 608 233 553 150 553 c 0
 59 553 18 616 18 688 c 1
EndSplineSet
Substitution2: "'case' Case-Sensitive Forms lookup 4 subtable" breve.cap
Substitution2: "'aalt' Access All Alternates lookup 0 subtable" breve.cap
EndChar

StartChar: dotaccent
Encoding: 729 729 130
Width: 300
Flags: MW
HStem: 563 124<112.5 147 112.5 147.5>
VStem: 68 122<608 642.5>
LayerCount: 2
Fore
SplineSet
130 563 m 0
 94 563 68 591 68 625 c 0
 68 660 95 687 130 687 c 0
 164 687 190 660 190 625 c 0
 190 591 165 563 130 563 c 0
EndSplineSet
Substitution2: "'case' Case-Sensitive Forms lookup 4 subtable" dotaccent.cap
Substitution2: "'aalt' Access All Alternates lookup 0 subtable" dotaccent.cap
EndChar

StartChar: dieresis
Encoding: 168 168 131
Width: 300
Flags: MW
HStem: 563 123<34 68.5 34 68.5 232.5 267.5>
VStem: -11 122<607.5 641.5> 189 121<607.5 641.5>
LayerCount: 2
Fore
SplineSet
51 563 m 0
 15 563 -11 591 -11 624 c 0
 -11 659 16 686 52 686 c 0
 85 686 111 660 111 624 c 0
 111 591 86 563 51 563 c 0
250 563 m 0
 214 563 189 591 189 624 c 0
 189 659 215 686 250 686 c 0
 285 686 310 660 310 624 c 0
 310 591 285 563 250 563 c 0
EndSplineSet
Substitution2: "'case' Case-Sensitive Forms lookup 4 subtable" dieresis.cap
Substitution2: "'aalt' Access All Alternates lookup 0 subtable" dieresis.cap
EndChar

StartChar: ring
Encoding: 730 730 132
Width: 300
Flags: MW
HStem: 538 44<126.5 156.5 126.5 174> 685 45<125.5 156>
VStem: 33 61<620 646 620 659.5> 190 59<620 647.5>
LayerCount: 2
Fore
SplineSet
142 538 m 0
 76 538 33 579 33 632 c 0
 33 687 73 730 143 730 c 0
 210 730 249 688 249 633 c 0
 249 579 206 538 142 538 c 0
141 582 m 0
 172 582 190 606 190 634 c 0
 190 661 172 685 140 685 c 0
 111 685 94 660 94 632 c 0
 94 608 112 582 141 582 c 0
EndSplineSet
Substitution2: "'case' Case-Sensitive Forms lookup 4 subtable" ring.cap
Substitution2: "'aalt' Access All Alternates lookup 0 subtable" ring.cap
EndChar

StartChar: cedilla
Encoding: 184 184 133
Width: 300
Flags: MW
HStem: -202 53<114 132 114 155> -81 84<83 197>
VStem: 161 78<-130.5 -109>
LayerCount: 2
Fore
SplineSet
128 3 m 1
 197 3 l 1
 167 -47 l 1
 205 -51 239 -78 239 -118 c 0
 239 -180 185 -202 125 -202 c 0
 96 -202 68 -195 50 -183 c 1
 68 -133 l 1
 85 -143 106 -149 122 -149 c 0
 142 -149 161 -141 161 -120 c 0
 161 -98 135 -85 83 -81 c 1
 128 3 l 1
EndSplineSet
Substitution2: "'case' Case-Sensitive Forms lookup 4 subtable" cedilla.cap
Substitution2: "'aalt' Access All Alternates lookup 0 subtable" cedilla.cap
EndChar

StartChar: hungarumlaut
Encoding: 733 733 134
Width: 300
Flags: MW
HStem: 554 143<89 90 18 194 179 179 179 194 249 250>
VStem: 18 336<554 697>
LayerCount: 2
Fore
SplineSet
89 697 m 1
 194 697 l 1
 90 554 l 1
 18 554 l 1
 89 697 l 1
249 697 m 1
 354 697 l 1
 250 554 l 1
 179 554 l 1
 249 697 l 1
EndSplineSet
Substitution2: "'case' Case-Sensitive Forms lookup 4 subtable" hungarumlaut.cap
Substitution2: "'aalt' Access All Alternates lookup 0 subtable" hungarumlaut.cap
EndChar

StartChar: ogonek
Encoding: 731 731 135
Width: 300
Flags: MW
HStem: -213 79<169 170.5>
VStem: 52 81<-98 -91.5>
LayerCount: 2
Fore
SplineSet
100 3 m 1
 171 3 l 1
 159 -15 133 -50 133 -83 c 0
 133 -113 153 -134 185 -134 c 0
 203 -134 219 -130 230 -125 c 1
 248 -185 l 1
 224 -204 185 -213 156 -213 c 0
 93 -213 52 -180 52 -115 c 0
 52 -68 82 -19 100 3 c 1
EndSplineSet
Substitution2: "'case' Case-Sensitive Forms lookup 4 subtable" ogonek.cap
Substitution2: "'aalt' Access All Alternates lookup 0 subtable" ogonek.cap
EndChar

StartChar: caron
Encoding: 711 711 136
Width: 300
Flags: MW
HStem: 550 148<10 193 10 108>
VStem: 10 280<698 698>
LayerCount: 2
Fore
SplineSet
193 550 m 1
 108 550 l 1
 10 698 l 1
 95 698 l 1
 149 607 l 1
 151 607 l 1
 206 698 l 1
 290 698 l 1
 193 550 l 1
EndSplineSet
Substitution2: "'case' Case-Sensitive Forms lookup 4 subtable" caron.cap
Substitution2: "'aalt' Access All Alternates lookup 0 subtable" caron.cap
EndChar

StartChar: emdash
Encoding: 8212 8212 137
Width: 1000
Flags: MW
HStem: 215 78<30 970 30 970>
VStem: 30 940<215 293 215 293>
LayerCount: 2
Fore
SplineSet
30 293 m 1
 970 293 l 1
 970 215 l 1
 30 215 l 1
 30 293 l 1
EndSplineSet
Substitution2: "'case' Case-Sensitive Forms lookup 4 subtable" emdash.cap
Substitution2: "'aalt' Access All Alternates lookup 0 subtable" emdash.cap
EndChar

StartChar: AE
Encoding: 198 198 138
Width: 832
Flags: MW
HStem: 0 101<550 802 550 802> 208 99<255 404 255 418 217 404> 297 100<525 763 525 525> 573 101<489 770 489 489> 587 87<368 371 368 368>
VStem: 1 801<0 101>
LayerCount: 2
Fore
SplineSet
128 0 m 1xb4
 1 0 l 1
 297 674 l 1
 770 674 l 1
 770 573 l 1
 489 573 l 1
 510 397 l 1
 763 397 l 1
 763 297 l 1
 525 297 l 1xb4
 550 101 l 1
 802 101 l 1
 802 0 l 1
 445 0 l 1
 418 208 l 1
 217 208 l 1xd4
 128 0 l 1xb4
255 307 m 1xcc
 404 307 l 1
 383 484 l 2
 379 515 374 554 371 587 c 1
 368 587 l 1
 356 554 342 517 329 485 c 2
 255 307 l 1xcc
EndSplineSet
Position2: "'cpsp' Capital Spacing lookup 0 subtable" dx=10 dy=0 dh=20 dv=0
EndChar

StartChar: ordfeminine
Encoding: 170 170 139
Width: 363
Flags: MW
HStem: 261 59<155.5 160> 421 52<232 234> 530 61<155 194.5>
VStem: 33 86<350.5 386.5 350.5 395> 234 85<377 421 421 421>
LayerCount: 2
Fore
SplineSet
325 266 m 1
 246 266 l 1
 240 303 l 1
 238 303 l 1
 216 280 182 261 138 261 c 0
 72 261 33 304 33 358 c 0
 33 432 109 474 232 473 c 1
 232 481 l 2
 232 493 224 530 165 530 c 0
 130 530 98 520 76 504 c 1
 57 559 l 1
 84 576 129 591 181 591 c 0
 286 591 319 524 319 451 c 2
 319 344 l 2
 319 315 321 287 325 266 c 1
234 377 m 2
 234 421 l 1
 176 422 119 409 119 364 c 0
 119 337 142 320 169 320 c 0
 194 320 217 335 227 353 c 0
 232 361 234 370 234 377 c 2
EndSplineSet
EndChar

StartChar: Lslash
Encoding: 321 321 140
Width: 499
Flags: MW
HStem: 0 103<199 476 199 476> 654 20G<76 199 199 199>
VStem: 76 123<103 251 251 251 422 674>
LayerCount: 2
Fore
SplineSet
476 0 m 1
 76 0 l 1
 76 251 l 1
 -3 195 l 1
 -3 283 l 1
 76 339 l 1
 76 674 l 1
 199 674 l 1
 199 422 l 1
 329 512 l 1
 329 423 l 1
 199 333 l 1
 199 103 l 1
 476 103 l 1
 476 0 l 1
EndSplineSet
Position2: "'cpsp' Capital Spacing lookup 0 subtable" dx=10 dy=0 dh=20 dv=0
EndChar

StartChar: Oslash
Encoding: 216 216 141
Width: 704
Flags: MW
HStem: -11 97<332 413 332 440.5> -2 21G<68 68> 588 97<290.5 373> 655 20G<640 640>
VStem: 36 124<308 405.5 308 437> 545 124<267.5 362.5>
LayerCount: 2
Fore
SplineSet
135 -56 m 1xac
 68 -2 l 1
 127 84 l 1
 68 145 36 235 36 335 c 0
 36 539 167 685 354 685 c 0
 412 685 466 671 512 642 c 1
 569 723 l 1x6c
 640 675 l 1
 581 590 l 1x9c
 639 528 669 439 669 342 c 0
 669 115 528 -11 353 -11 c 0
 295 -11 242 4 197 32 c 1
 135 -56 l 1xac
198 189 m 1
 454 553 l 1
 426 575 393 588 353 588 c 0
 228 588 160 474 160 337 c 0
 160 279 173 234 196 188 c 1
 198 189 l 1
509 481 m 1
 255 120 l 1
 281 98 312 86 352 86 c 0xac
 474 86 545 196 545 339 c 0
 545 386 536 434 511 481 c 1
 509 481 l 1
EndSplineSet
Position2: "'cpsp' Capital Spacing lookup 0 subtable" dx=10 dy=0 dh=20 dv=0
EndChar

StartChar: OE
Encoding: 338 338 142
Width: 917
Flags: MW
HStem: -11 99<318.5 384.5> 0 101<505.5 879 595 879 595 879> 299 100<595 849 595 849> 573 101<595 864 595 595> 586 99<318 390 272.5 400.5>
VStem: 36 130 472 123<101 299 399 572 572 572>
LayerCount: 2
Fore
SplineSet
879 101 m 1x76
 879 0 l 1
 515 0 l 2x76
 496 0 475 -3 451 -6 c 0
 427 -8 401 -11 368 -11 c 0
 148 -11 36 145 36 332 c 0
 36 550 173 685 372 685 c 0xae
 408 685 437 682 461 680 c 0
 486 677 507 674 525 674 c 2
 864 674 l 1
 864 573 l 1
 595 573 l 1
 595 399 l 1
 849 399 l 1
 849 299 l 1
 595 299 l 1
 595 101 l 1
 879 101 l 1x76
472 100 m 1xae
 472 572 l 1
 450 581 420 586 381 586 c 0
 255 586 165 492 166 336 c 0
 165 189 247 88 390 88 c 0
 420 88 452 92 472 100 c 1xae
EndSplineSet
Position2: "'cpsp' Capital Spacing lookup 0 subtable" dx=10 dy=0 dh=20 dv=0
EndChar

StartChar: ordmasculine
Encoding: 186 186 143
Width: 372
Flags: MW
HStem: 261 63<164 208.5 164 226> 528 63<158.5 211>
VStem: 21 89<396.5 448 396.5 474> 261 90<429 449>
LayerCount: 2
Fore
SplineSet
187 591 m 0
 287 591 351 522 351 429 c 0
 350 314 267 261 185 261 c 0
 93 261 21 325 21 423 c 0
 21 525 94 591 187 591 c 0
185 528 m 0
 132 528 110 471 110 425 c 0
 110 368 142 324 186 324 c 0
 231 324 261 366 261 426 c 0
 261 472 237 528 185 528 c 0
EndSplineSet
EndChar

StartChar: ae
Encoding: 230 230 144
Width: 790
Flags: MW
HStem: -11 88<205.5 235> -11 93<538 593.5> 216 85<437 642 437 754 437 642> 235 78<322 325> 411 87<199 263.5> 415 83<522 584>
VStem: 32 121<123 181.5 123 193> 325 112<175 216 173.5 235 173.5 235> 642 115<301 301>
LayerCount: 2
Fore
SplineSet
754 216 m 1x6780
 437 216 l 1x6780
 437 131 496 82 580 82 c 0
 643 82 681 94 714 109 c 1
 733 24 l 1
 686 0 624 -11 563 -11 c 0
 481 -11 408 23 377 85 c 1
 374 85 l 1
 340 26 277 -11 193 -11 c 0
 89 -11 32 58 32 135 c 0
 32 251 143 314 322 313 c 1
 322 330 l 2
 322 348 307 411 220 411 c 0
 172 411 122 393 93 374 c 1x5b80
 67 453 l 1
 106 476 168 498 230 498 c 0
 312 498 364 464 389 408 c 1
 391 408 l 1
 427 464 485 498 559 498 c 0
 705 498 757 365 757 264 c 0
 757 246 755 227 754 216 c 1x6780
325 175 m 2x9780
 325 235 l 1
 239 237 153 218 153 145 c 0
 153 101 186 77 225 77 c 0
 275 77 308 108 321 143 c 0
 324 152 325 163 325 175 c 2x9780
437 301 m 1x6780
 642 301 l 1
 643 340 623 415 545 415 c 0
 471 415 438 346 437 301 c 1x6780
EndSplineSet
EndChar

StartChar: dotlessi
Encoding: 305 305 145
Width: 256
Flags: MW
HStem: 0 21G<66 190 66 66> 467 20G<66 190 190 190>
VStem: 66 124<0 487>
LayerCount: 2
Fore
SplineSet
190 0 m 1
 66 0 l 1
 66 487 l 1
 190 487 l 1
 190 0 l 1
EndSplineSet
EndChar

StartChar: lslash
Encoding: 322 322 146
Width: 267
Flags: MW
HStem: 0 21G<72 195 72 72> 478 20G<266 266> 690 20G<72 195 195 195>
VStem: 72 123<0 256 256 256 347 348 440 710>
LayerCount: 2
Fore
SplineSet
195 0 m 1
 72 0 l 1
 72 256 l 1
 5 201 l 1
 5 292 l 1
 72 347 l 1
 72 710 l 1
 195 710 l 1
 195 440 l 1
 266 498 l 1
 266 407 l 1
 195 348 l 1
 195 0 l 1
EndSplineSet
EndChar

StartChar: oslash
Encoding: 248 248 147
Width: 564
Flags: MW
HStem: -11 89<269 320.5 269 343.5> 408 90<235.5 295>
VStem: 35 119<226 281.5 226 320.5> 410 119<194.5 256.5>
LayerCount: 2
Fore
SplineSet
283 498 m 0
 327 498 368 488 404 468 c 1
 448 533 l 1
 495 500 l 1
 451 435 l 1
 501 390 529 325 529 246 c 0
 529 70 404 -11 283 -11 c 0
 239 -11 198 -2 163 18 c 1
 117 -48 l 1
 72 -12 l 1
 116 51 l 1
 65 94 35 159 35 242 c 0
 35 399 140 498 283 498 c 0
182 145 m 1
 349 385 l 1
 332 400 309 408 281 408 c 0
 190 408 154 320 154 243 c 0
 154 209 161 174 180 145 c 1
 182 145 l 1
383 338 m 1
 217 101 l 1
 235 85 257 78 281 78 c 0
 360 78 410 146 410 243 c 0
 410 270 404 307 386 338 c 1
 383 338 l 1
EndSplineSet
EndChar

StartChar: oe
Encoding: 339 339 148
Width: 866
Flags: MW
HStem: -11 89<244 305> -11 93<617.5 666> 211 85<512 718 511 830 512 512> 408 90<236 314 207 321.5> 414 84<593 660>
VStem: 35 127<196.5 280.5 196.5 319.5> 397 115<211 211 211 285.5> 718 116<296 296>
LayerCount: 2
Fore
SplineSet
830 211 m 1xaf
 512 211 l 1
 514 129 577 82 658 82 c 0
 717 82 754 94 791 109 c 1x77
 810 24 l 1
 762 -2 691 -11 641 -11 c 0
 564 -11 497 17 456 88 c 1
 453 88 l 1
 414 20 342 -11 268 -11 c 0
 138 -11 35 85 35 242 c 0
 35 397 138 498 276 498 c 0
 352 498 421 463 453 398 c 1
 455 398 l 1
 493 464 557 498 629 498 c 0
 784 498 834 366 834 262 c 0
 834 241 832 221 830 211 c 1xaf
281 408 m 0
 191 408 162 318 162 243 c 0
 162 150 208 78 280 78 c 0xaf
 353 78 397 145 397 244 c 0
 397 327 362 408 281 408 c 0
511 296 m 1
 718 296 l 1
 719 340 702 414 618 414 c 0xaf
 545 414 514 345 511 296 c 1
EndSplineSet
EndChar

StartChar: germandbls
Encoding: 223 223 149
Width: 576
Flags: MW
HStem: -11 21G<328.5 407.5> -11 94<328.5 360.5 320 407.5> 0 21G<66 190 66 66> 626 95<271 323.5>
VStem: 66 124<0 440 440 449> 294 123<372.5 395.5> 386 118<527 561> 415 124<130.5 165>
LayerCount: 2
Fore
SplineSet
190 0 m 1x3a
 66 0 l 1
 66 440 l 2
 66 554 94 620 141 663 c 0
 181 701 236 721 306 721 c 0
 415 721 504 654 504 543 c 0x3a
 504 511 494 479 481 461 c 1
 439 442 417 416 417 387 c 0x5c
 417 358 432 339 459 311 c 0
 495 273 539 230 539 155 c 0
 539 57 468 -11 347 -11 c 0x59
 310 -11 269 -5 241 7 c 1x9c
 258 99 l 1
 280 89 306 83 334 83 c 0
 387 83 415 112 415 149 c 0x59
 415 181 400 203 371 233 c 0
 334 269 294 310 294 370 c 0x5c
 294 421 323 466 378 494 c 1
 383 505 386 518 386 533 c 0
 386 589 351 626 296 626 c 0
 231 626 190 580 190 449 c 2
 190 0 l 1x3a
EndSplineSet
EndChar

StartChar: onesuperior
Encoding: 185 185 150
Width: 275
Flags: MW
HStem: 443 390<125 209 125 209 113 209> 753 80<111 209 111 209>
VStem: 113 96<443 753 753 753>
LayerCount: 2
Fore
SplineSet
209 443 m 1xa0
 113 443 l 1
 113 753 l 1
 111 753 l 1
 35 718 l 1
 21 787 l 1
 125 833 l 1
 209 833 l 1x60
 209 443 l 1xa0
EndSplineSet
EndChar

StartChar: logicalnot
Encoding: 172 172 151
Width: 596
Flags: MW
HStem: 334 78<40 474 40 556>
VStem: 474 82<113 334 334 334>
LayerCount: 2
Fore
SplineSet
40 412 m 1
 556 412 l 1
 556 113 l 1
 474 113 l 1
 474 334 l 1
 40 334 l 1
 40 412 l 1
EndSplineSet
EndChar

StartChar: mu
Encoding: 181 181 152
Width: 570
Flags: MW
HStem: -198 21G<80 189 80 80> -11 21G<470.5 505.5> -11 93<470.5 547> -8 97<248 298> 467 20G<66 189 189 189 381 504 504 504>
VStem: 66 123<173 208 208 487> 381 123<193 487>
LayerCount: 2
Fore
SplineSet
396 71 m 1x9e
 393 71 l 1
 375 34 331 -8 265 -8 c 0
 230 -8 197 5 179 32 c 1
 179 -18 l 2
 179 -71 181 -159 189 -198 c 1
 80 -198 l 1
 70 -171 66 -95 66 -21 c 2
 66 487 l 1
 189 487 l 1
 189 208 l 2
 189 138 217 89 279 89 c 0
 327 89 362 123 374 155 c 0x9e
 379 165 381 179 381 193 c 2
 381 487 l 1
 504 487 l 1
 504 148 l 2
 504 100 516 84 547 82 c 1xae
 540 -4 l 1
 528 -9 515 -11 496 -11 c 0xce
 445 -11 408 15 396 71 c 1x9e
EndSplineSet
EndChar

StartChar: trademark
Encoding: 8482 8482 153
Width: 636
Flags: MW
HStem: 406 92<453 455 453 482 414 455> 617 57<28 110 28 262 180 262 180 180> 632 42<356 360 356 356 543 547 543 543>
VStem: 110 70<401 617 401 617> 289 67 548 67.5
LayerCount: 2
Fore
SplineSet
28 674 m 1xdc
 262 674 l 1
 262 617 l 1
 180 617 l 1
 180 401 l 1
 110 401 l 1
 110 617 l 1
 28 617 l 1
 28 674 l 1xdc
624 401 m 1
 556 401 l 1
 548 539 l 2
 548 565 548 596 547 632 c 1
 543 632 l 1
 536 601 527 565 520 537 c 2
 482 406 l 1
 414 406 l 1
 379 539 l 2
 374 563 367 601 360 632 c 1
 356 632 l 1
 356 600 355 568 354 539 c 2xbc
 346 401 l 1
 280 401 l 1
 298 674 l 1
 405 674 l 1
 436 577 l 2
 442 557 446 536 453 498 c 1
 455 498 l 1
 461 527 467 553 473 577 c 2
 506 674 l 1
 607 674 l 1
 624 401 l 1
EndSplineSet
EndChar

StartChar: Eth
Encoding: 208 208 154
Width: 689
Flags: MW
HStem: -9 98<256 308.5> 0 21G<77 77> 294 97<1 77 1 77 200 355> 586 96<264.5 336.5 236.5 361.5>
VStem: 77 123<92 294 92 294 92 294 391 579> 524 130<292.5 411 292.5 427>
LayerCount: 2
Fore
SplineSet
1 294 m 1xbc
 1 391 l 1
 77 391 l 1
 77 667 l 1
 132 676 200 682 273 682 c 0
 400 682 486 657 548 605 c 0
 614 552 654 469 654 353 c 0
 654 232 612 142 549 84 c 0
 481 22 374 -9 243 -9 c 0xbc
 172 -9 117 -5 77 0 c 1x7c
 77 294 l 1
 1 294 l 1xbc
355 391 m 1
 355 294 l 1
 200 294 l 1
 200 92 l 1
 217 89 243 89 269 89 c 0
 430 89 524 176 524 351 c 0
 524 503 439 586 284 586 c 0
 245 586 218 582 200 579 c 1
 200 391 l 1
 355 391 l 1
EndSplineSet
Position2: "'cpsp' Capital Spacing lookup 0 subtable" dx=10 dy=0 dh=20 dv=0
EndChar

StartChar: onehalf
Encoding: 189 189 155
Width: 799
Flags: MW
HStem: 0 72<598 755 598 755> 320 75<577 603>
VStem: 117 96<266 576 576 576> 647 101<241.5 278.5>
LayerCount: 2
Fore
SplineSet
213 266 m 1
 117 266 l 1
 117 576 l 1
 116 576 l 1
 39 541 l 1
 26 610 l 1
 129 656 l 1
 213 656 l 1
 213 266 l 1
206 -11 m 1
 135 -11 l 1
 509 661 l 1
 580 661 l 1
 206 -11 l 1
465 0 m 1
 465 48 l 1
 527 104 l 2
 606 176 647 215 647 262 c 0
 647 295 625 320 581 320 c 0
 547 320 516 305 496 290 c 1
 470 353 l 1
 500 376 549 395 605 395 c 0
 702 395 748 339 748 278 c 0
 748 205 692 155 626 98 c 2
 598 75 l 1
 598 72 l 1
 755 72 l 1
 755 0 l 1
 465 0 l 1
EndSplineSet
Ligature2: "'frac' Diagonal Fractions lookup 9 subtable" one.numerator slash.frac two.numerator
Ligature2: "'frac' Diagonal Fractions lookup 9 subtable" one.numerator uni2215 two.numerator
Ligature2: "'frac' Diagonal Fractions lookup 9 subtable" one.numerator fraction two.numerator
EndChar

StartChar: plusminus
Encoding: 177 177 156
Width: 596
Flags: MW
HStem: 0 78<40 556 40 556> 315 78<40 257 40 257 339 556>
VStem: 257 82<128 315 128 315 393 576>
LayerCount: 2
Fore
SplineSet
257 576 m 1
 339 576 l 1
 339 393 l 1
 556 393 l 1
 556 315 l 1
 339 315 l 1
 339 128 l 1
 257 128 l 1
 257 315 l 1
 40 315 l 1
 40 393 l 1
 257 393 l 1
 257 576 l 1
40 78 m 1
 556 78 l 1
 556 0 l 1
 40 0 l 1
 40 78 l 1
EndSplineSet
EndChar

StartChar: Thorn
Encoding: 222 222 157
Width: 558
Flags: MW
HStem: 0 21G<71 71 71 192> 138 96<249 307 247.5 336.5> 459 94<261 309> 654 20G<71 192 192 192>
VStem: 71 121<0 143 0 240 240 452 548 674> 401 122<315.5 386.5>
LayerCount: 2
Fore
SplineSet
71 0 m 1
 71 674 l 1
 192 674 l 1
 192 548 l 1
 215 551 241 553 281 553 c 0
 360 553 419 536 462 499 c 0
 501 465 523 416 523 360 c 0
 523 205 409 138 264 138 c 0
 234 138 209 141 192 143 c 1
 192 0 l 1
 71 0 l 1
192 452 m 1
 192 240 l 1
 210 236 235 234 260 234 c 0
 354 234 401 281 401 350 c 0
 401 423 350 459 268 459 c 0
 232 459 206 456 192 452 c 1
EndSplineSet
Position2: "'cpsp' Capital Spacing lookup 0 subtable" dx=10 dy=0 dh=20 dv=0
EndChar

StartChar: onequarter
Encoding: 188 188 158
Width: 799
Flags: MW
HStem: 96 63<517 617 517 617 707 760> 322 71<618 621 618 618>
VStem: 130 96<266 576 576 576> 617 90<0 96 159 252 252 264>
LayerCount: 2
Fore
SplineSet
226 266 m 1
 130 266 l 1
 130 576 l 1
 129 576 l 1
 53 541 l 1
 39 610 l 1
 143 656 l 1
 226 656 l 1
 226 266 l 1
228 -11 m 1
 157 -11 l 1
 531 661 l 1
 602 661 l 1
 228 -11 l 1
707 0 m 1
 617 0 l 1
 617 96 l 1
 426 96 l 1
 426 149 l 1
 597 393 l 1
 707 393 l 1
 707 159 l 1
 760 159 l 1
 760 96 l 1
 707 96 l 1
 707 0 l 1
617 159 m 1
 617 252 l 2
 617 276 620 299 621 322 c 1
 618 322 l 1
 606 298 595 277 583 259 c 2
 515 160 l 1
 517 159 l 1
 617 159 l 1
EndSplineSet
Ligature2: "'frac' Diagonal Fractions lookup 9 subtable" one.numerator slash.frac four.numerator
Ligature2: "'frac' Diagonal Fractions lookup 9 subtable" one.numerator uni2215 four.numerator
Ligature2: "'frac' Diagonal Fractions lookup 9 subtable" one.numerator fraction four.numerator
EndChar

StartChar: divide
Encoding: 247 247 159
Width: 596
Flags: MW
HStem: 26 131<279 317.5> 228 78<40 556 40 556> 377 131<279 317.5>
VStem: 234 128<72 111 423 462>
LayerCount: 2
Fore
SplineSet
298 377 m 0
 260 377 234 404 234 442 c 0
 234 482 260 508 298 508 c 0
 337 508 362 482 362 442 c 0
 362 404 337 377 298 377 c 0
556 228 m 1
 40 228 l 1
 40 306 l 1
 556 306 l 1
 556 228 l 1
298 26 m 0
 260 26 234 53 234 91 c 0
 234 131 260 157 298 157 c 0
 337 157 362 131 362 91 c 0
 362 53 337 26 298 26 c 0
EndSplineSet
EndChar

StartChar: brokenbar
Encoding: 166 166 160
Width: 263
Flags: MW
HStem: -176 850<87 176 87 176>
VStem: 87 89<-176 174 -176 174 324 674>
LayerCount: 2
Fore
SplineSet
87 174 m 1
 176 174 l 1
 176 -176 l 1
 87 -176 l 1
 87 174 l 1
87 674 m 1
 176 674 l 1
 176 324 l 1
 87 324 l 1
 87 674 l 1
EndSplineSet
EndChar

StartChar: degree
Encoding: 176 176 161
Width: 339
Flags: MW
HStem: 405 59<149.5 192.5 149.5 208> 626 59<147.5 196.5>
VStem: 28 68<521 542> 246 68<522 564>
LayerCount: 2
Fore
SplineSet
171 685 m 0
 258 685 314 620 314 546 c 0
 314 463 246 405 170 405 c 0
 86 405 28 467 28 542 c 0
 27 622 91 685 171 685 c 0
171 626 m 0
 124 626 96 585 96 543 c 0
 96 499 128 464 171 464 c 0
 214 464 246 499 246 545 c 0
 246 583 222 626 171 626 c 0
EndSplineSet
EndChar

StartChar: thorn
Encoding: 254 254 162
Width: 585
Flags: MW
HStem: -198 21G<66 189 66 66> -11 95<298.5 339 280 381.5> 401 97<309 343.5> 690 20G<66 189 189 189>
VStem: 66 123<-198 55 189 196 196 282 419 710> 425 125<197 289.5>
LayerCount: 2
Fore
SplineSet
66 710 m 1
 189 710 l 1
 189 419 l 1
 191 419 l 1
 222 467 273 498 345 498 c 0
 454 500 550 405 550 249 c 0
 550 69 434 -11 329 -11 c 0
 268 -11 219 15 191 55 c 1
 189 55 l 1
 189 -198 l 1
 66 -198 l 1
 66 710 l 1
189 282 m 2
 189 196 l 2
 189 182 194 163 201 150 c 0
 218 110 258 84 302 84 c 0
 376 84 425 147 425 247 c 0
 425 332 381 401 306 401 c 0
 259 401 217 373 199 327 c 0
 194 315 189 297 189 282 c 2
EndSplineSet
EndChar

StartChar: threequarters
Encoding: 190 190 163
Width: 799
Flags: MW
HStem: 96 63<527 627 527 627 717 771> 261 67<128 170 126.5 207> 322 71<629 631 629 629> 443 58<99 127 127 128 99 127> 594 67<147 173>
VStem: 210 99<543.5 563> 223 101<384 404.5> 627 90<0 96 159 252 252 264>
LayerCount: 2
Fore
SplineSet
65 568 m 1xdd
 45 630 l 1
 72 646 120 661 174 661 c 0
 266 661 309 616 309 564 c 0xbd
 309 523 276 490 229 475 c 1
 229 473 l 1
 284 466 324 430 324 379 c 0
 324 312 260 261 154 261 c 0
 102 261 54 273 28 289 c 1
 49 354 l 1
 67 343 108 328 145 328 c 0
 195 328 224 355 223 384 c 0
 223 425 176 443 128 443 c 2xdb
 99 443 l 1
 99 501 l 1
 127 501 l 2
 162 501 210 514 210 552 c 0
 210 574 193 594 153 594 c 0
 117 594 83 579 65 568 c 1xdd
262 -11 m 1
 191 -11 l 1
 565 661 l 1
 636 661 l 1
 262 -11 l 1
717 0 m 1
 627 0 l 1
 627 96 l 1
 436 96 l 1
 436 149 l 1
 608 393 l 1
 717 393 l 1
 717 159 l 1
 771 159 l 1
 771 96 l 1
 717 96 l 1
 717 0 l 1
627 159 m 1
 627 252 l 2
 627 276 630 299 631 322 c 1
 629 322 l 1
 616 298 605 277 594 259 c 2
 525 160 l 1
 527 159 l 1
 627 159 l 1
EndSplineSet
Ligature2: "'frac' Diagonal Fractions lookup 9 subtable" three.numerator slash.frac four.numerator
Ligature2: "'frac' Diagonal Fractions lookup 9 subtable" three.numerator uni2215 four.numerator
Ligature2: "'frac' Diagonal Fractions lookup 9 subtable" three.numerator fraction four.numerator
EndChar

StartChar: twosuperior
Encoding: 178 178 164
Width: 333
Flags: MW
HStem: 443 72<147 304 147 304> 762 76<126 152>
VStem: 196 101<684 720.5>
LayerCount: 2
Fore
SplineSet
14 443 m 1
 14 490 l 1
 76 547 l 2
 155 618 196 658 196 704 c 0
 196 737 174 762 130 762 c 0
 96 762 65 747 45 733 c 1
 19 795 l 1
 49 818 98 838 154 838 c 0
 251 838 297 782 297 721 c 0
 297 647 241 597 175 540 c 2
 147 517 l 1
 147 515 l 1
 304 515 l 1
 304 443 l 1
 14 443 l 1
EndSplineSet
EndChar

StartChar: registered
Encoding: 174 174 165
Width: 441
Flags: MW
HStem: 347 39<185 257 185 269.5> 494 31<197 215 198 214> 568 31<213 227> 646 39<185 257>
VStem: 47 48<480 552 480 563.5> 153 44<433 494 433 594> 248 50<543.5 553> 346 48<480 552>
LayerCount: 2
Fore
SplineSet
197 494 m 1
 197 433 l 1
 153 433 l 1
 153 594 l 1
 166 596 190 599 220 599 c 0
 254 599 269 594 280 587 c 0
 291 580 298 568 298 552 c 0
 298 535 283 521 262 515 c 1
 262 513 l 1
 279 507 288 494 293 472 c 0
 298 448 302 439 305 433 c 1
 256 433 l 1
 251 439 248 453 244 470 c 0
 241 487 232 494 214 494 c 2
 197 494 l 1
198 567 m 1
 198 525 l 1
 215 525 l 2
 234 525 248 532 248 546 c 0
 248 560 237 568 217 568 c 0
 209 568 203 567 198 567 c 1
221 685 m 0
 318 685 394 610 394 517 c 0
 394 422 318 347 221 347 c 0
 125 347 47 422 47 517 c 0
 47 610 125 685 221 685 c 0
221 646 m 0
 149 646 95 588 95 516 c 0
 95 444 149 386 221 386 c 0
 293 386 346 444 346 516 c 0
 346 588 293 646 221 646 c 0
EndSplineSet
EndChar

StartChar: minus
Encoding: 8722 8722 166
Width: 596
Flags: MW
HStem: 228 78<40 556 40 556>
VStem: 40 516<228 306 228 306>
LayerCount: 2
Fore
SplineSet
40 306 m 1
 556 306 l 1
 556 228 l 1
 40 228 l 1
 40 306 l 1
EndSplineSet
EndChar

StartChar: eth
Encoding: 240 240 167
Width: 560
Flags: MW
HStem: -11 89<242.5 315.5 242.5 339> 400 78<237 281.5 206 301> 699 20G
VStem: 35 127<194 272.5 194 312.5> 396 127<194 270.5>
LayerCount: 2
Fore
SplineSet
278 78 m 0
 353 78 396 146 396 242 c 0
 396 299 388 335 368 361 c 0
 349 383 321 400 281 400 c 0
 193 400 162 307 162 238 c 0
 162 150 207 78 278 78 c 0
111 491 m 1
 88 544 l 1
 198 594 l 1
 168 614 134 632 99 647 c 1
 153 719 l 1
 203 699 256 670 303 639 c 1
 436 699 l 1
 462 647 l 1
 357 599 l 1
 410 556 452 504 481 445 c 0
 509 390 523 327 523 255 c 0
 523 70 400 -11 278 -11 c 0
 140 -11 35 85 35 237 c 0
 35 388 145 478 267 478 c 0
 296 478 324 473 353 448 c 1
 355 451 l 1
 329 490 296 525 254 555 c 1
 111 491 l 1
EndSplineSet
EndChar

StartChar: multiply
Encoding: 215 215 168
Width: 596
Flags: MW
HStem: 0 526<95 96 95 500>
VStem: 40 516<56 56 56 470>
LayerCount: 2
Fore
SplineSet
40 470 m 1
 95 526 l 1
 298 319 l 1
 500 526 l 1
 556 470 l 1
 354 263 l 1
 556 56 l 1
 500 0 l 1
 298 206 l 1
 96 0 l 1
 40 56 l 1
 242 263 l 1
 40 470 l 1
EndSplineSet
EndChar

StartChar: threesuperior
Encoding: 179 179 169
Width: 328
Flags: MW
HStem: 438 67<109 150.5 107 188> 619 58<80 108 108 109 80 108> 770 68<128 154>
VStem: 191 99<720 739.5> 204 101<545.5 580.5>
LayerCount: 2
Fore
SplineSet
46 745 m 1xe8
 26 806 l 1
 53 822 101 838 155 838 c 0
 247 838 290 793 290 741 c 0xf0
 290 699 257 667 210 652 c 1
 210 650 l 1
 264 643 305 606 305 555 c 0
 305 489 241 438 135 438 c 0
 83 438 35 450 9 466 c 1
 30 531 l 1
 48 520 89 505 125 505 c 0
 176 505 204 531 204 560 c 0
 204 601 157 619 109 619 c 2xe8
 80 619 l 1
 80 677 l 1
 108 677 l 2
 143 677 191 691 191 728 c 0
 191 751 174 770 134 770 c 0xf0
 98 770 64 756 46 745 c 1xe8
EndSplineSet
EndChar

StartChar: copyright
Encoding: 169 169 170
Width: 677
Flags: MW
HStem: 30 50<270 407.5 270 425> 153 52<323 376.5> 468 52<322 387> 598 50<270 407.5>
VStem: 34 58<266 410.5 266 425> 171 62<299.5 376.5 299.5 391> 585 58<266.5 411>
LayerCount: 2
Fore
SplineSet
340 648 m 0
 510 648 643 510 643 340 c 0
 643 168 510 30 340 30 c 0
 169 30 34 168 34 340 c 0
 34 510 169 648 340 648 c 0
339 598 m 0
 201 598 92 483 92 338 c 0
 92 194 201 80 339 80 c 0
 476 80 585 194 585 339 c 0
 585 483 476 598 339 598 c 0
474 493 m 1
 461 445 l 1
 448 453 410 468 364 468 c 0
 280 468 233 416 233 337 c 0
 233 262 282 205 364 205 c 0
 405 205 442 215 465 230 c 1
 479 185 l 1
 444 161 398 153 355 153 c 0
 238 153 171 232 171 334 c 0
 171 448 262 520 364 520 c 0
 414 520 461 505 474 493 c 1
EndSplineSet
EndChar

StartChar: Aacute
Encoding: 193 193 171
Width: 636
Flags: MW
HStem: 0 21G<21 148 21 21 481 481 481 613> 191 93<226 399 226 420 206 399> 576 98<310 312 310 310> 654 20G<237 394 394 394> 710 120<342 353 254 478>
VStem: 21 592<0 0>
LayerCount: 2
Fore
SplineSet
420 191 m 1xdc
 206 191 l 1
 148 0 l 1
 21 0 l 1
 237 674 l 1
 394 674 l 1
 613 0 l 1
 481 0 l 1
 420 191 l 1xdc
226 284 m 1
 399 284 l 1
 346 450 l 2
 333 491 322 537 312 576 c 1
 310 576 l 1xec
 300 537 290 490 278 450 c 2
 226 284 l 1
342 830 m 1
 478 830 l 1
 353 710 l 1
 254 710 l 1
 342 830 l 1
EndSplineSet
Position2: "'cpsp' Capital Spacing lookup 0 subtable" dx=10 dy=0 dh=20 dv=0
EndChar

StartChar: Acircumflex
Encoding: 194 194 172
Width: 636
Flags: MW
HStem: 0 21G<21 148 21 21 481 481 481 613> 191 93<226 399 226 420 206 399> 576 98<310 312 310 310> 654 20G<237 394 394 394> 710 119<172 366 172 366 273 469 273 377>
VStem: 21 592<0 0>
LayerCount: 2
Fore
SplineSet
420 191 m 1xdc
 206 191 l 1
 148 0 l 1
 21 0 l 1
 237 674 l 1
 394 674 l 1
 613 0 l 1
 481 0 l 1
 420 191 l 1xdc
226 284 m 1
 399 284 l 1
 346 450 l 2
 333 491 322 537 312 576 c 1
 310 576 l 1xec
 300 537 290 490 278 450 c 2
 226 284 l 1
273 829 m 1
 366 829 l 1
 469 710 l 1
 377 710 l 1
 321 775 l 1
 319 775 l 1
 263 710 l 1
 172 710 l 1
 273 829 l 1
EndSplineSet
Position2: "'cpsp' Capital Spacing lookup 0 subtable" dx=10 dy=0 dh=20 dv=0
EndChar

StartChar: Adieresis
Encoding: 196 196 173
Width: 636
Flags: MW
HStem: 0 21G<21 148 21 21 481 481 481 613> 191 93<226 399 226 420 206 399> 576 98<310 312 310 310> 654 20G<237 394 394 394> 715 121<206.5 240 206.5 240 404 438>
VStem: 163 118<759.5 793> 361 118<759.5 793>
LayerCount: 2
Fore
SplineSet
420 191 m 1xd6
 206 191 l 1
 148 0 l 1
 21 0 l 1
 237 674 l 1
 394 674 l 1
 613 0 l 1
 481 0 l 1
 420 191 l 1xd6
226 284 m 1
 399 284 l 1
 346 450 l 2
 333 491 322 537 312 576 c 1
 310 576 l 1xee
 300 537 290 490 278 450 c 2
 226 284 l 1
223 715 m 0
 188 715 163 743 163 776 c 0
 163 810 189 836 224 836 c 0
 256 836 281 810 281 776 c 0
 281 743 257 715 223 715 c 0
421 715 m 0
 385 715 361 743 361 776 c 0
 361 810 387 836 421 836 c 0
 455 836 479 810 479 776 c 0
 479 743 455 715 421 715 c 0
EndSplineSet
Position2: "'cpsp' Capital Spacing lookup 0 subtable" dx=10 dy=0 dh=20 dv=0
EndChar

StartChar: Agrave
Encoding: 192 192 174
Width: 636
Flags: MW
HStem: 0 21G<21 148 21 21 481 481 481 613> 191 93<226 399 226 420 206 399> 576 98<310 312 310 310> 654 20G<237 394 394 394> 711 119<281 292 156 380 281 281>
VStem: 21 592<0 0>
LayerCount: 2
Fore
SplineSet
420 191 m 1xdc
 206 191 l 1
 148 0 l 1
 21 0 l 1
 237 674 l 1
 394 674 l 1
 613 0 l 1
 481 0 l 1
 420 191 l 1xdc
226 284 m 1
 399 284 l 1
 346 450 l 2
 333 491 322 537 312 576 c 1
 310 576 l 1xec
 300 537 290 490 278 450 c 2
 226 284 l 1
156 830 m 1
 292 830 l 1
 380 711 l 1
 281 711 l 1
 156 830 l 1
EndSplineSet
Position2: "'cpsp' Capital Spacing lookup 0 subtable" dx=10 dy=0 dh=20 dv=0
EndChar

StartChar: Aring
Encoding: 197 197 175
Width: 636
Flags: MW
HStem: 0 21G<21 148 21 21 481 481 481 613> 191 93<226 399 226 420 206 399> 576 98<310 312 310 310> 654 20G<237 394 394 394> 701 44<302 330.5 302 350> 845 44<301 330.5>
VStem: 209 61<781 806.5 781 819.5> 362 63<781 808>
LayerCount: 2
Fore
SplineSet
420 191 m 1xd7
 206 191 l 1
 148 0 l 1
 21 0 l 1
 237 674 l 1
 394 674 l 1
 613 0 l 1
 481 0 l 1
 420 191 l 1xd7
226 284 m 1
 399 284 l 1
 346 450 l 2
 333 491 322 537 312 576 c 1
 310 576 l 1xe7
 300 537 290 490 278 450 c 2
 226 284 l 1
317 889 m 0
 387 889 425 847 425 794 c 0
 425 742 383 701 317 701 c 0xdf
 250 701 209 742 209 793 c 0
 209 846 248 889 317 889 c 0
316 845 m 0
 286 845 270 820 270 793 c 0
 270 769 288 745 316 745 c 0xdf
 345 745 362 767 362 795 c 0
 362 821 345 845 316 845 c 0
EndSplineSet
Position2: "'cpsp' Capital Spacing lookup 0 subtable" dx=10 dy=0 dh=20 dv=0
EndChar

StartChar: Atilde
Encoding: 195 195 176
Width: 636
Flags: MW
HStem: 0 21G<21 148 21 21 481 481 481 613> 191 93<226 399 226 420 206 399> 576 98<310 312 310 310> 654 20G<237 394 394 394> 715 116<238 248 188 273.5> 721 112<396 405.5>
VStem: 188 60<715 715> 396 58<833 833>
LayerCount: 2
Fore
SplineSet
420 191 m 1xd3
 206 191 l 1
 148 0 l 1
 21 0 l 1
 237 674 l 1
 394 674 l 1
 613 0 l 1
 481 0 l 1
 420 191 l 1xd3
226 284 m 1
 399 284 l 1
 346 450 l 2
 333 491 322 537 312 576 c 1
 310 576 l 1xeb
 300 537 290 490 278 450 c 2
 226 284 l 1
248 715 m 1
 188 715 l 1
 186 789 215 831 261 831 c 0xdb
 286 831 304 822 323 811 c 0
 340 801 355 792 369 792 c 0
 385 792 393 801 396 833 c 1
 454 833 l 1
 456 756 430 721 381 721 c 0xd7
 356 721 337 729 318 740 c 0
 299 750 287 758 273 758 c 0
 259 758 250 743 248 715 c 1
EndSplineSet
Position2: "'cpsp' Capital Spacing lookup 0 subtable" dx=10 dy=0 dh=20 dv=0
EndChar

StartChar: Ccedilla
Encoding: 199 199 177
Width: 588
Flags: MW
HStem: -213 59<312.5 331.5 311 354> -10 102<386 386> -6 21G<320 320> 583 102<332.5 429>
VStem: 36 129<261 416 261 440> 359 79<-136.5 -115.5>
LayerCount: 2
Fore
SplineSet
534 117 m 1xd8
 554 20 l 1
 526 5 464 -9 386 -10 c 1
 367 -47 l 1xdc
 405 -55 438 -81 438 -125 c 0
 438 -190 381 -213 327 -213 c 0
 298 -213 268 -206 247 -194 c 1
 265 -140 l 1
 280 -148 301 -154 321 -154 c 0
 342 -154 359 -146 359 -127 c 0
 359 -104 332 -92 281 -87 c 1
 320 -6 l 1xbc
 142 17 36 144 36 329 c 0
 36 551 190 685 396 685 c 0
 477 685 535 668 560 655 c 1
 533 557 l 1
 501 571 457 583 401 583 c 0
 264 583 165 497 165 335 c 0
 165 187 252 92 400 92 c 0
 450 92 502 102 534 117 c 1xd8
EndSplineSet
Position2: "'cpsp' Capital Spacing lookup 0 subtable" dx=10 dy=0 dh=20 dv=0
EndChar

StartChar: Eacute
Encoding: 201 201 178
Width: 515
Flags: MW
HStem: 0 101<194 478 194 478> 299 100<194 448 194 448> 573 101<194 463 194 194> 710 120<295 306 207 431>
VStem: 71 123<101 299 101 399 399 573>
LayerCount: 2
Fore
SplineSet
448 399 m 1
 448 299 l 1
 194 299 l 1
 194 101 l 1
 478 101 l 1
 478 0 l 1
 71 0 l 1
 71 674 l 1
 463 674 l 1
 463 573 l 1
 194 573 l 1
 194 399 l 1
 448 399 l 1
295 830 m 1
 431 830 l 1
 306 710 l 1
 207 710 l 1
 295 830 l 1
EndSplineSet
Position2: "'cpsp' Capital Spacing lookup 0 subtable" dx=10 dy=0 dh=20 dv=0
EndChar

StartChar: Ecircumflex
Encoding: 202 202 179
Width: 515
Flags: MW
HStem: 0 101<194 478 194 478> 299 100<194 448 194 448> 573 101<194 463 194 194> 710 119<121 315 121 315 222 418 222 326>
VStem: 71 123<101 299 101 399 399 573>
LayerCount: 2
Fore
SplineSet
448 399 m 1
 448 299 l 1
 194 299 l 1
 194 101 l 1
 478 101 l 1
 478 0 l 1
 71 0 l 1
 71 674 l 1
 463 674 l 1
 463 573 l 1
 194 573 l 1
 194 399 l 1
 448 399 l 1
222 829 m 1
 315 829 l 1
 418 710 l 1
 326 710 l 1
 270 775 l 1
 268 775 l 1
 211 710 l 1
 121 710 l 1
 222 829 l 1
EndSplineSet
Position2: "'cpsp' Capital Spacing lookup 0 subtable" dx=10 dy=0 dh=20 dv=0
EndChar

StartChar: Edieresis
Encoding: 203 203 180
Width: 515
Flags: MW
HStem: 0 101<194 478 194 478> 299 100<194 448 194 448> 573 101<194 463 194 194> 716 121<149 182.5 149 183 346.5 380.5>
VStem: 71 123<101 299 101 399 399 573> 106 118<760.5 794> 304 118<760.5 794>
LayerCount: 2
Fore
SplineSet
448 399 m 1xe8
 448 299 l 1
 194 299 l 1
 194 101 l 1
 478 101 l 1
 478 0 l 1
 71 0 l 1
 71 674 l 1
 463 674 l 1
 463 573 l 1
 194 573 l 1
 194 399 l 1
 448 399 l 1xe8
166 716 m 0xf6
 131 716 106 744 106 777 c 0
 106 811 132 837 166 837 c 0
 199 837 224 811 224 777 c 0
 224 744 200 716 166 716 c 0xf6
363 716 m 0
 328 716 304 744 304 777 c 0
 304 811 329 837 364 837 c 0
 397 837 422 811 422 777 c 0
 422 744 398 716 363 716 c 0
EndSplineSet
Position2: "'cpsp' Capital Spacing lookup 0 subtable" dx=10 dy=0 dh=20 dv=0
EndChar

StartChar: Egrave
Encoding: 200 200 181
Width: 515
Flags: MW
HStem: 0 101<194 478 194 478> 299 100<194 448 194 448> 573 101<194 463 194 194> 711 119<239 250 114 338 239 239>
VStem: 71 123<101 299 101 399 399 573>
LayerCount: 2
Fore
SplineSet
448 399 m 1
 448 299 l 1
 194 299 l 1
 194 101 l 1
 478 101 l 1
 478 0 l 1
 71 0 l 1
 71 674 l 1
 463 674 l 1
 463 573 l 1
 194 573 l 1
 194 399 l 1
 448 399 l 1
114 830 m 1
 250 830 l 1
 338 711 l 1
 239 711 l 1
 114 830 l 1
EndSplineSet
Position2: "'cpsp' Capital Spacing lookup 0 subtable" dx=10 dy=0 dh=20 dv=0
EndChar

StartChar: Iacute
Encoding: 205 205 182
Width: 264
Flags: MW
HStem: 0 21G<71 194 71 71> 654 20G<71 194 194 194> 710 120<156 167 68 292>
VStem: 71 123<0 674 0 674>
LayerCount: 2
Fore
SplineSet
71 674 m 1
 194 674 l 1
 194 0 l 1
 71 0 l 1
 71 674 l 1
156 830 m 1
 292 830 l 1
 167 710 l 1
 68 710 l 1
 156 830 l 1
EndSplineSet
Position2: "'cpsp' Capital Spacing lookup 0 subtable" dx=10 dy=0 dh=20 dv=0
EndChar

StartChar: Icircumflex
Encoding: 206 206 183
Width: 264
Flags: MW
HStem: 0 21G<71 194 71 71> 654 20G<71 194 194 194> 710 119<-16 178 -16 178 85 281 85 189>
VStem: 71 123<0 674 0 674>
LayerCount: 2
Fore
SplineSet
71 674 m 1
 194 674 l 1
 194 0 l 1
 71 0 l 1
 71 674 l 1
85 829 m 1
 178 829 l 1
 281 710 l 1
 189 710 l 1
 133 775 l 1
 131 775 l 1
 75 710 l 1
 -16 710 l 1
 85 829 l 1
EndSplineSet
Position2: "'cpsp' Capital Spacing lookup 0 subtable" dx=10 dy=0 dh=20 dv=0
EndChar

StartChar: Idieresis
Encoding: 207 207 184
Width: 264
Flags: MW
HStem: 0 21G<71 194 71 71> 654 20G<71 194 194 194> 716 121<18 51 215 249>
VStem: -26 118<760.5 794> 71 123<0 674 0 674> 172 119<760.5 794>
LayerCount: 2
Fore
SplineSet
71 674 m 1xe8
 194 674 l 1
 194 0 l 1
 71 0 l 1
 71 674 l 1xe8
34 716 m 0xf4
 -1 716 -26 744 -26 777 c 0
 -26 811 1 837 35 837 c 0
 68 837 92 811 92 777 c 0
 92 744 68 716 34 716 c 0xf4
232 716 m 0
 197 716 172 744 172 777 c 0
 172 811 198 837 232 837 c 0
 266 837 291 811 291 777 c 0
 291 744 266 716 232 716 c 0
EndSplineSet
Position2: "'cpsp' Capital Spacing lookup 0 subtable" dx=10 dy=0 dh=20 dv=0
EndChar

StartChar: Igrave
Encoding: 204 204 185
Width: 264
Flags: MW
HStem: 0 21G<71 194 71 71> 654 20G<71 194 194 194> 711 119<98 109 -27 197 98 98>
VStem: 71 123<0 674 0 674>
LayerCount: 2
Fore
SplineSet
71 674 m 1
 194 674 l 1
 194 0 l 1
 71 0 l 1
 71 674 l 1
-27 830 m 1
 109 830 l 1
 197 711 l 1
 98 711 l 1
 -27 830 l 1
EndSplineSet
Position2: "'cpsp' Capital Spacing lookup 0 subtable" dx=10 dy=0 dh=20 dv=0
EndChar

StartChar: Ntilde
Encoding: 209 209 186
Width: 676
Flags: MW
HStem: 0 21G<71 184 71 71 478 478 478 605> 0 159<478 502 500 502 500 605> 529 145<181 181> 654 20G<71 211 211 211 491 605 605 605> 715 116<258 268 208 293.5> 721 112<416 425.5>
VStem: 71 113<0 241> 208 60<715 715> 416 59<833 833> 491 114<439 674 0 674>
LayerCount: 2
Fore
SplineSet
184 0 m 1x9640
 71 0 l 1
 71 674 l 1
 211 674 l 1
 385 385 l 2
 430 310 469 232 500 159 c 1
 502 159 l 1x5640
 494 249 491 336 491 439 c 2
 491 674 l 1
 605 674 l 1
 605 0 l 1
 478 0 l 1
 302 296 l 2
 259 370 214 453 181 529 c 1
 178 528 l 1xa640
 183 441 184 352 184 241 c 2
 184 0 l 1x9640
268 715 m 1x9b40
 208 715 l 1
 206 789 235 831 281 831 c 0x9b40
 306 831 324 822 343 811 c 0
 360 801 375 792 389 792 c 0
 405 792 413 801 416 833 c 1
 475 833 l 1
 476 756 450 721 401 721 c 0x96c0
 376 721 357 729 338 740 c 0
 319 750 307 758 293 758 c 0
 279 758 270 743 268 715 c 1x9b40
EndSplineSet
Position2: "'cpsp' Capital Spacing lookup 0 subtable" dx=10 dy=0 dh=20 dv=0
EndChar

StartChar: Oacute
Encoding: 211 211 187
Width: 704
Flags: MW
HStem: -11 99<294 412.5 294 439> 586 99<292 414.5> 712 120<378 389 290 514>
VStem: 36 130<265.5 403.5 265.5 435.5> 539 130<268.5 402.5>
LayerCount: 2
Fore
SplineSet
356 685 m 0
 553 685 669 536 669 344 c 0
 669 118 532 -11 346 -11 c 0
 156 -11 36 134 36 332 c 0
 36 539 166 685 356 685 c 0
353 586 m 0
 231 586 166 473 166 334 c 0
 166 197 235 88 353 88 c 0
 472 88 539 198 539 339 c 0
 539 466 476 586 353 586 c 0
378 832 m 1xf8
 514 832 l 1
 389 712 l 1
 290 712 l 1
 378 832 l 1xf8
EndSplineSet
Position2: "'cpsp' Capital Spacing lookup 0 subtable" dx=10 dy=0 dh=20 dv=0
EndChar

StartChar: Ocircumflex
Encoding: 212 212 188
Width: 704
Flags: MW
HStem: -11 99<294 412.5 294 439> 586 99<292 414.5> 712 118<204 398 204 398 305 501 305 409>
VStem: 36 130<265.5 403.5 265.5 435.5> 539 130<268.5 402.5>
LayerCount: 2
Fore
SplineSet
356 685 m 0
 553 685 669 536 669 344 c 0
 669 118 532 -11 346 -11 c 0
 156 -11 36 134 36 332 c 0
 36 539 166 685 356 685 c 0
353 586 m 0
 231 586 166 473 166 334 c 0
 166 197 235 88 353 88 c 0
 472 88 539 198 539 339 c 0
 539 466 476 586 353 586 c 0
305 830 m 1xf8
 398 830 l 1
 501 712 l 1
 409 712 l 1
 353 777 l 1
 351 777 l 1
 295 712 l 1
 204 712 l 1
 305 830 l 1xf8
EndSplineSet
Position2: "'cpsp' Capital Spacing lookup 0 subtable" dx=10 dy=0 dh=20 dv=0
EndChar

StartChar: Odieresis
Encoding: 214 214 189
Width: 704
Flags: MW
HStem: -11 99<294 412.5 294 439> 586 99<292 414.5> 716 121<237 270.5 237 271 434.5 468.5>
VStem: 36 130<265.5 403.5 265.5 435.5> 194 118<760.5 794> 392 118<760.5 794> 539 130<268.5 402.5>
LayerCount: 2
Fore
SplineSet
356 685 m 0
 553 685 669 536 669 344 c 0
 669 118 532 -11 346 -11 c 0
 156 -11 36 134 36 332 c 0
 36 539 166 685 356 685 c 0
353 586 m 0
 231 586 166 473 166 334 c 0
 166 197 235 88 353 88 c 0
 472 88 539 198 539 339 c 0
 539 466 476 586 353 586 c 0
254 716 m 0xfe
 219 716 194 744 194 777 c 0
 194 811 220 837 254 837 c 0
 287 837 312 811 312 777 c 0
 312 744 288 716 254 716 c 0xfe
451 716 m 0
 416 716 392 744 392 777 c 0
 392 811 417 837 452 837 c 0
 485 837 510 811 510 777 c 0
 510 744 486 716 451 716 c 0
EndSplineSet
Position2: "'cpsp' Capital Spacing lookup 0 subtable" dx=10 dy=0 dh=20 dv=0
EndChar

StartChar: Ograve
Encoding: 210 210 190
Width: 704
Flags: MW
HStem: -11 99<294 412.5 294 439> 586 99<292 414.5> 713 119<318 329 193 417 318 318>
VStem: 36 130<265.5 403.5 265.5 435.5> 539 130<268.5 402.5>
LayerCount: 2
Fore
SplineSet
356 685 m 0
 553 685 669 536 669 344 c 0
 669 118 532 -11 346 -11 c 0
 156 -11 36 134 36 332 c 0
 36 539 166 685 356 685 c 0
353 586 m 0
 231 586 166 473 166 334 c 0
 166 197 235 88 353 88 c 0
 472 88 539 198 539 339 c 0
 539 466 476 586 353 586 c 0
193 832 m 1xf8
 329 832 l 1
 417 713 l 1
 318 713 l 1
 193 832 l 1xf8
EndSplineSet
Position2: "'cpsp' Capital Spacing lookup 0 subtable" dx=10 dy=0 dh=20 dv=0
EndChar

StartChar: Otilde
Encoding: 213 213 191
Width: 704
Flags: MW
HStem: -11 99<294 412.5 294 439> 586 99<292 414.5> 716 116<269 279 219 304.5> 722 112<427 436.5>
VStem: 36 130<265.5 403.5 265.5 435.5> 219 60<716 716> 427 58<834 834> 539 130<268.5 402.5>
LayerCount: 2
Fore
SplineSet
356 685 m 0xef
 553 685 669 536 669 344 c 0
 669 118 532 -11 346 -11 c 0
 156 -11 36 134 36 332 c 0
 36 539 166 685 356 685 c 0xef
353 586 m 0
 231 586 166 473 166 334 c 0
 166 197 235 88 353 88 c 0
 472 88 539 198 539 339 c 0
 539 466 476 586 353 586 c 0
279 716 m 1
 219 716 l 1
 217 790 246 832 292 832 c 0xef
 317 832 335 823 354 812 c 0
 370 802 386 793 400 793 c 0
 416 793 424 801 427 834 c 1
 485 834 l 1
 487 756 461 722 412 722 c 0xdf
 387 722 368 730 348 741 c 0
 330 751 318 759 304 759 c 0
 290 759 281 744 279 716 c 1
EndSplineSet
Position2: "'cpsp' Capital Spacing lookup 0 subtable" dx=10 dy=0 dh=20 dv=0
EndChar

StartChar: Scaron
Encoding: 352 352 192
Width: 519
Flags: MW
HStem: -10 101<199.5 270.5 199.5 310> 584 101<249 319.5> 712 118<121 316 121 223>
VStem: 52 124<477 522.5 477 546> 354 125<155.5 208.5>
LayerCount: 2
Fore
SplineSet
41 32 m 1
 68 134 l 1
 108 111 168 91 231 91 c 0
 310 91 354 128 354 183 c 0
 354 234 320 264 234 295 c 0
 123 335 52 394 52 491 c 0
 52 601 144 685 290 685 c 0
 363 685 417 669 452 651 c 1
 422 552 l 1
 398 565 351 584 288 584 c 0
 210 584 176 542 176 503 c 0
 176 451 215 427 305 392 c 0
 422 348 479 289 479 192 c 0
 479 84 397 -10 223 -10 c 0
 152 -10 78 10 41 32 c 1
316 712 m 1xf8
 223 712 l 1
 121 830 l 1
 213 830 l 1
 269 765 l 1
 271 765 l 1
 327 830 l 1
 418 830 l 1
 316 712 l 1xf8
EndSplineSet
Position2: "'cpsp' Capital Spacing lookup 0 subtable" dx=10 dy=0 dh=20 dv=0
EndChar

StartChar: Uacute
Encoding: 218 218 193
Width: 666
Flags: MW
HStem: -11 99<289.5 375.5 289.5 408> 654 20G<70 193 193 193 473 596 596 596> 710 120<356 367 268 492>
VStem: 70 123<288 674> 473 123<281 289 289 674>
LayerCount: 2
Fore
SplineSet
70 674 m 1
 193 674 l 1
 193 281 l 2
 193 149 248 88 331 88 c 0
 420 88 473 149 473 281 c 2
 473 674 l 1
 596 674 l 1
 596 289 l 2
 596 81 489 -11 327 -11 c 0
 171 -11 70 76 70 288 c 2
 70 674 l 1
356 830 m 1
 492 830 l 1
 367 710 l 1
 268 710 l 1
 356 830 l 1
EndSplineSet
Position2: "'cpsp' Capital Spacing lookup 0 subtable" dx=10 dy=0 dh=20 dv=0
EndChar

StartChar: Ucircumflex
Encoding: 219 219 194
Width: 666
Flags: MW
HStem: -11 99<289.5 375.5 289.5 408> 654 20G<70 193 193 193 473 596 596 596> 710 119<193 388 193 388 295 490 295 398>
VStem: 70 123<288 674> 473 123<281 289 289 674>
LayerCount: 2
Fore
SplineSet
70 674 m 1
 193 674 l 1
 193 281 l 2
 193 149 248 88 331 88 c 0
 420 88 473 149 473 281 c 2
 473 674 l 1
 596 674 l 1
 596 289 l 2
 596 81 489 -11 327 -11 c 0
 171 -11 70 76 70 288 c 2
 70 674 l 1
295 829 m 1
 388 829 l 1
 490 710 l 1
 398 710 l 1
 342 775 l 1
 340 775 l 1
 284 710 l 1
 193 710 l 1
 295 829 l 1
EndSplineSet
Position2: "'cpsp' Capital Spacing lookup 0 subtable" dx=10 dy=0 dh=20 dv=0
EndChar

StartChar: Udieresis
Encoding: 220 220 195
Width: 666
Flags: MW
HStem: -11 99<289.5 375.5 289.5 408> 654 20G<70 193 193 193 473 596 596 596> 716 121<222 255.5 222 256 420 453.5>
VStem: 70 123<288 674> 179 118<760.5 794> 377 118<760.5 794> 473 123<281 289 289 674>
LayerCount: 2
Fore
SplineSet
70 674 m 1xf2
 193 674 l 1
 193 281 l 2
 193 149 248 88 331 88 c 0
 420 88 473 149 473 281 c 2
 473 674 l 1
 596 674 l 1
 596 289 l 2
 596 81 489 -11 327 -11 c 0
 171 -11 70 76 70 288 c 2
 70 674 l 1xf2
239 716 m 0xec
 204 716 179 744 179 777 c 0
 179 811 205 837 239 837 c 0
 272 837 297 811 297 777 c 0
 297 744 273 716 239 716 c 0xec
436 716 m 0
 401 716 377 744 377 777 c 0
 377 811 403 837 437 837 c 0
 470 837 495 811 495 777 c 0
 495 744 471 716 436 716 c 0
EndSplineSet
Position2: "'cpsp' Capital Spacing lookup 0 subtable" dx=10 dy=0 dh=20 dv=0
EndChar

StartChar: Ugrave
Encoding: 217 217 196
Width: 666
Flags: MW
HStem: -11 99<289.5 375.5 289.5 408> 654 20G<70 193 193 193 473 596 596 596> 711 119<302 314 178 402 302 302>
VStem: 70 123<288 674> 473 123<281 289 289 674>
LayerCount: 2
Fore
SplineSet
70 674 m 1
 193 674 l 1
 193 281 l 2
 193 149 248 88 331 88 c 0
 420 88 473 149 473 281 c 2
 473 674 l 1
 596 674 l 1
 596 289 l 2
 596 81 489 -11 327 -11 c 0
 171 -11 70 76 70 288 c 2
 70 674 l 1
178 830 m 1
 314 830 l 1
 402 711 l 1
 302 711 l 1
 178 830 l 1
EndSplineSet
Position2: "'cpsp' Capital Spacing lookup 0 subtable" dx=10 dy=0 dh=20 dv=0
EndChar

StartChar: Yacute
Encoding: 221 221 197
Width: 575
Flags: MW
HStem: 0 21G<224 347 224 224> 654 20G<11 151 151 151 432 571 571 571> 707 120<319 331 231 455>
VStem: 224 123<0 281 281 281>
LayerCount: 2
Fore
SplineSet
347 0 m 1
 224 0 l 1
 224 281 l 1
 11 674 l 1
 151 674 l 1
 232 501 l 2
 255 451 272 413 290 367 c 1
 292 367 l 1
 309 410 328 452 351 501 c 2
 432 674 l 1
 571 674 l 1
 347 284 l 1
 347 0 l 1
319 827 m 1
 455 827 l 1
 331 707 l 1
 231 707 l 1
 319 827 l 1
EndSplineSet
Position2: "'cpsp' Capital Spacing lookup 0 subtable" dx=10 dy=0 dh=20 dv=0
EndChar

StartChar: Ydieresis
Encoding: 376 376 198
Width: 575
Flags: MW
HStem: 0 21G<224 347 224 224> 654 20G<11 151 151 151 432 571 571 571> 712 121<181.5 215 181.5 215 379 413>
VStem: 138 118<756.5 790> 224 123<0 281 281 281> 336 118<756.5 790>
LayerCount: 2
Fore
SplineSet
347 0 m 1xe8
 224 0 l 1
 224 281 l 1
 11 674 l 1
 151 674 l 1
 232 501 l 2
 255 451 272 413 290 367 c 1
 292 367 l 1
 309 410 328 452 351 501 c 2
 432 674 l 1
 571 674 l 1
 347 284 l 1
 347 0 l 1xe8
198 712 m 0xf4
 163 712 138 740 138 773 c 0
 138 807 164 833 199 833 c 0
 231 833 256 807 256 773 c 0
 256 740 232 712 198 712 c 0xf4
396 712 m 0
 360 712 336 740 336 773 c 0
 336 807 362 833 396 833 c 0
 430 833 454 807 454 773 c 0
 454 740 430 712 396 712 c 0
EndSplineSet
Position2: "'cpsp' Capital Spacing lookup 0 subtable" dx=10 dy=0 dh=20 dv=0
EndChar

StartChar: Zcaron
Encoding: 381 381 199
Width: 566
Flags: MW
HStem: 0 102<191 536 191 536> 572 102<57 371 57 531> 710 119<143 338 143 245>
VStem: 26 510<0 68 68 68>
LayerCount: 2
Fore
SplineSet
26 0 m 1
 26 68 l 1
 371 569 l 1
 371 572 l 1
 57 572 l 1
 57 674 l 1
 531 674 l 1
 531 602 l 1
 191 106 l 1
 191 102 l 1
 536 102 l 1
 536 0 l 1
 26 0 l 1
338 710 m 1
 245 710 l 1
 143 829 l 1
 235 829 l 1
 291 763 l 1
 293 763 l 1
 349 829 l 1
 440 829 l 1
 338 710 l 1
EndSplineSet
Position2: "'cpsp' Capital Spacing lookup 0 subtable" dx=10 dy=0 dh=20 dv=0
EndChar

StartChar: aacute
Encoding: 225 225 200
Width: 508
Flags: MW
HStem: -11 88<204.5 216.5> 0 21G<340 451 340 340> 238 80<321 324> 411 87<204.5 265> 550 148<192 400 192 400>
VStem: 32 122<123 184 123 195.5> 321 123
LayerCount: 2
Fore
SplineSet
451 0 m 1x7e
 340 0 l 1x7e
 332 54 l 1
 329 54 l 1
 299 16 248 -11 185 -11 c 0xbe
 87 -11 32 60 32 134 c 0
 32 257 141 319 321 318 c 1
 321 326 l 2
 321 358 308 411 222 411 c 0
 174 411 124 396 91 375 c 1
 67 455 l 1
 103 477 166 498 243 498 c 0
 399 498 444 399 444 293 c 2
 444 117 l 2
 444 73 446 30 451 0 c 1x7e
324 171 m 2xbe
 324 238 l 1
 237 240 154 221 154 147 c 0
 154 99 185 77 224 77 c 0
 273 77 309 109 320 144 c 0
 323 153 324 163 324 171 c 2xbe
279 698 m 1
 400 698 l 1
 277 550 l 1
 192 550 l 1
 279 698 l 1
EndSplineSet
EndChar

StartChar: acircumflex
Encoding: 226 226 201
Width: 508
Flags: MW
HStem: -11 88<204.5 216.5> 0 21G<340 451 340 340> 238 80<321 324> 411 87<204.5 265> 550 148<111 291 111 291 208 389 208 304>
VStem: 32 122<123 184 123 195.5> 321 123
LayerCount: 2
Fore
SplineSet
451 0 m 1x7e
 340 0 l 1x7e
 332 54 l 1
 329 54 l 1
 299 16 248 -11 185 -11 c 0xbe
 87 -11 32 60 32 134 c 0
 32 257 141 319 321 318 c 1
 321 326 l 2
 321 358 308 411 222 411 c 0
 174 411 124 396 91 375 c 1
 67 455 l 1
 103 477 166 498 243 498 c 0
 399 498 444 399 444 293 c 2
 444 117 l 2
 444 73 446 30 451 0 c 1x7e
324 171 m 2xbe
 324 238 l 1
 237 240 154 221 154 147 c 0
 154 99 185 77 224 77 c 0
 273 77 309 109 320 144 c 0
 323 153 324 163 324 171 c 2xbe
208 698 m 1
 291 698 l 1
 389 550 l 1
 304 550 l 1
 250 641 l 1
 248 641 l 1
 195 550 l 1
 111 550 l 1
 208 698 l 1
EndSplineSet
EndChar

StartChar: adieresis
Encoding: 228 228 202
Width: 508
Flags: MW
HStem: -11 88<204.5 216.5> 0 21G<340 451 340 340> 238 80<321 324> 411 87<204.5 265> 563 123<138 172.5 138 172.5 336.5 371.5>
VStem: 32 122<123 184 123 195.5> 93 122<607.5 641.5> 293 121<607.5 641.5> 321 123
LayerCount: 2
Fore
SplineSet
451 0 m 1x7c80
 340 0 l 1x7c80
 332 54 l 1
 329 54 l 1
 299 16 248 -11 185 -11 c 0xbc80
 87 -11 32 60 32 134 c 0
 32 257 141 319 321 318 c 1
 321 326 l 2
 321 358 308 411 222 411 c 0
 174 411 124 396 91 375 c 1
 67 455 l 1
 103 477 166 498 243 498 c 0
 399 498 444 399 444 293 c 2
 444 117 l 2
 444 73 446 30 451 0 c 1x7c80
324 171 m 2xbc80
 324 238 l 1
 237 240 154 221 154 147 c 0
 154 99 185 77 224 77 c 0
 273 77 309 109 320 144 c 0
 323 153 324 163 324 171 c 2xbc80
155 563 m 0xbb
 119 563 93 591 93 624 c 0
 93 659 120 686 156 686 c 0
 189 686 215 660 215 624 c 0
 215 591 190 563 155 563 c 0xbb
354 563 m 0
 318 563 293 591 293 624 c 0
 293 659 319 686 354 686 c 0
 389 686 414 660 414 624 c 0
 414 591 389 563 354 563 c 0
EndSplineSet
EndChar

StartChar: agrave
Encoding: 224 224 203
Width: 508
Flags: MW
HStem: -11 88<204.5 216.5> 0 21G<340 451 340 340> 238 80<321 324> 411 87<204.5 265> 550 148<98 305 98 220>
VStem: 32 122<123 184 123 195.5> 321 123
LayerCount: 2
Fore
SplineSet
451 0 m 1x7e
 340 0 l 1x7e
 332 54 l 1
 329 54 l 1
 299 16 248 -11 185 -11 c 0xbe
 87 -11 32 60 32 134 c 0
 32 257 141 319 321 318 c 1
 321 326 l 2
 321 358 308 411 222 411 c 0
 174 411 124 396 91 375 c 1
 67 455 l 1
 103 477 166 498 243 498 c 0
 399 498 444 399 444 293 c 2
 444 117 l 2
 444 73 446 30 451 0 c 1x7e
324 171 m 2xbe
 324 238 l 1
 237 240 154 221 154 147 c 0
 154 99 185 77 224 77 c 0
 273 77 309 109 320 144 c 0
 323 153 324 163 324 171 c 2xbe
98 698 m 1
 219 698 l 1
 305 550 l 1
 220 550 l 1
 98 698 l 1
EndSplineSet
EndChar

StartChar: aring
Encoding: 229 229 204
Width: 508
Flags: MW
HStem: -11 88<204.5 216.5> 0 21G<340 451 340 340> 238 80<321 324> 411 87<204.5 265> 538 44<238.5 268.5 238.5 286> 685 45<237.5 268>
VStem: 32 122<123 184 123 195.5> 145 61<620 646 620 659.5> 302 59<620 647.5> 321 123
LayerCount: 2
Fore
SplineSet
451 0 m 1x7e40
 340 0 l 1x7e40
 332 54 l 1
 329 54 l 1
 299 16 248 -11 185 -11 c 0xbe40
 87 -11 32 60 32 134 c 0
 32 257 141 319 321 318 c 1
 321 326 l 2
 321 358 308 411 222 411 c 0
 174 411 124 396 91 375 c 1
 67 455 l 1
 103 477 166 498 243 498 c 0
 399 498 444 399 444 293 c 2
 444 117 l 2
 444 73 446 30 451 0 c 1x7e40
324 171 m 2xbe40
 324 238 l 1
 237 240 154 221 154 147 c 0
 154 99 185 77 224 77 c 0
 273 77 309 109 320 144 c 0
 323 153 324 163 324 171 c 2xbe40
254 538 m 0xbd80
 188 538 145 579 145 632 c 0
 145 687 185 730 255 730 c 0
 322 730 361 688 361 633 c 0
 361 579 318 538 254 538 c 0xbd80
253 582 m 0
 284 582 302 606 302 634 c 0
 302 661 284 685 252 685 c 0
 223 685 206 660 206 632 c 0
 206 608 224 582 253 582 c 0
EndSplineSet
EndChar

StartChar: atilde
Encoding: 227 227 205
Width: 508
Flags: MW
HStem: -11 88<204.5 216.5> 0 21G<340 451 340 340> 238 80<321 324> 411 87<204.5 265> 562 119<165.5 175 114 201> 569 116<322 331>
VStem: 32 122<123 184 123 195.5> 114 61<562 562> 321 123 322 60<685 685>
LayerCount: 2
Fore
SplineSet
451 0 m 1x7680
 340 0 l 1x7680
 332 54 l 1
 329 54 l 1
 299 16 248 -11 185 -11 c 0xb680
 87 -11 32 60 32 134 c 0
 32 257 141 319 321 318 c 1
 321 326 l 2
 321 358 308 411 222 411 c 0
 174 411 124 396 91 375 c 1
 67 455 l 1
 103 477 166 498 243 498 c 0
 399 498 444 399 444 293 c 2
 444 117 l 2
 444 73 446 30 451 0 c 1x7680
324 171 m 2xb680
 324 238 l 1
 237 240 154 221 154 147 c 0
 154 99 185 77 224 77 c 0
 273 77 309 109 320 144 c 0
 323 153 324 163 324 171 c 2xb680
175 562 m 1xb980
 114 562 l 1
 111 638 142 681 189 681 c 0xb980
 213 681 232 671 253 660 c 0
 269 651 283 642 296 642 c 0
 311 642 320 651 322 685 c 1
 382 685 l 1
 384 605 356 569 306 569 c 0xb640
 281 569 261 579 240 590 c 0
 222 601 212 607 200 607 c 0
 185 607 177 591 175 562 c 1xb980
EndSplineSet
EndChar

StartChar: ccedilla
Encoding: 231 231 206
Width: 449
Flags: MW
HStem: -202 21G<226.5 271> -202 53<230 248 230 271> -10 97<305 305> -7 21G<239 239> 402 96<263 328.5 220.5 332>
VStem: 35 126<194 244 194 311> 277 78<-130.5 -109>
LayerCount: 2
Fore
SplineSet
407 106 m 1x6e
 424 15 l 1
 401 4 358 -7 305 -10 c 1
 283 -47 l 1
 321 -51 355 -78 355 -118 c 0
 355 -180 301 -202 241 -202 c 0x6e
 212 -202 184 -195 166 -183 c 1x9e
 184 -133 l 1
 201 -143 222 -149 238 -149 c 0
 258 -149 277 -141 277 -120 c 0
 277 -98 251 -85 199 -81 c 1
 239 -7 l 1x5e
 114 12 35 103 35 238 c 0
 35 384 135 498 306 498 c 0
 351 498 397 488 425 475 c 1
 403 383 l 1
 383 392 354 402 310 402 c 0
 216 402 160 333 161 244 c 0
 161 144 226 87 310 87 c 0
 353 87 383 96 407 106 c 1x6e
EndSplineSet
EndChar

StartChar: eacute
Encoding: 233 233 207
Width: 516
Flags: MW
HStem: -10 93<264 321> 209 86<153 367 153 479 153 367> 414 84<228 307> 550 148<215 423 215 423>
VStem: 35 118<209 209 209 295 209 303.5> 367 116<295 295>
LayerCount: 2
Fore
SplineSet
479 209 m 1
 153 209 l 1
 156 121 225 83 303 83 c 0
 360 83 401 91 438 105 c 1
 456 20 l 1
 414 3 356 -10 286 -10 c 0
 128 -10 35 87 35 236 c 0
 35 371 117 498 273 498 c 0
 431 498 483 368 483 261 c 0
 483 238 481 220 479 209 c 1
153 295 m 1
 367 295 l 1
 368 340 348 414 266 414 c 0
 190 414 158 345 153 295 c 1
302 698 m 1
 423 698 l 1
 300 550 l 1
 215 550 l 1
 302 698 l 1
EndSplineSet
EndChar

StartChar: ecircumflex
Encoding: 234 234 208
Width: 516
Flags: MW
HStem: -10 93<264 321> 209 86<153 367 153 479 153 367> 414 84<228 307> 550 148<130 311 130 311 227 409 227 324>
VStem: 35 118<209 209 209 295 209 303.5> 367 116<295 295>
LayerCount: 2
Fore
SplineSet
479 209 m 1
 153 209 l 1
 156 121 225 83 303 83 c 0
 360 83 401 91 438 105 c 1
 456 20 l 1
 414 3 356 -10 286 -10 c 0
 128 -10 35 87 35 236 c 0
 35 371 117 498 273 498 c 0
 431 498 483 368 483 261 c 0
 483 238 481 220 479 209 c 1
153 295 m 1
 367 295 l 1
 368 340 348 414 266 414 c 0
 190 414 158 345 153 295 c 1
227 698 m 1
 311 698 l 1
 409 550 l 1
 324 550 l 1
 270 641 l 1
 268 641 l 1
 214 550 l 1
 130 550 l 1
 227 698 l 1
EndSplineSet
EndChar

StartChar: edieresis
Encoding: 235 235 209
Width: 516
Flags: MW
HStem: -10 93<264 321> 209 86<153 367 153 479 153 367> 414 84<228 307> 563 123<159 193.5 159 193.5 357.5 392.5>
VStem: 35 118<209 209 209 295 209 303.5> 114 122<607.5 641.5> 314 121<607.5 641.5> 367 116<295 295>
LayerCount: 2
Fore
SplineSet
479 209 m 1xe9
 153 209 l 1
 156 121 225 83 303 83 c 0
 360 83 401 91 438 105 c 1
 456 20 l 1
 414 3 356 -10 286 -10 c 0
 128 -10 35 87 35 236 c 0
 35 371 117 498 273 498 c 0
 431 498 483 368 483 261 c 0
 483 238 481 220 479 209 c 1xe9
153 295 m 1
 367 295 l 1
 368 340 348 414 266 414 c 0
 190 414 158 345 153 295 c 1
176 563 m 0xf6
 140 563 114 591 114 624 c 0
 114 659 141 686 177 686 c 0
 210 686 236 660 236 624 c 0
 236 591 211 563 176 563 c 0xf6
375 563 m 0
 339 563 314 591 314 624 c 0
 314 659 340 686 375 686 c 0
 410 686 435 660 435 624 c 0
 435 591 410 563 375 563 c 0
EndSplineSet
EndChar

StartChar: egrave
Encoding: 232 232 210
Width: 516
Flags: MW
HStem: -10 93<264 321> 209 86<153 367 153 479 153 367> 414 84<228 307> 550 148<127 334 127 249>
VStem: 35 118<209 209 209 295 209 303.5> 367 116<295 295>
LayerCount: 2
Fore
SplineSet
479 209 m 1
 153 209 l 1
 156 121 225 83 303 83 c 0
 360 83 401 91 438 105 c 1
 456 20 l 1
 414 3 356 -10 286 -10 c 0
 128 -10 35 87 35 236 c 0
 35 371 117 498 273 498 c 0
 431 498 483 368 483 261 c 0
 483 238 481 220 479 209 c 1
153 295 m 1
 367 295 l 1
 368 340 348 414 266 414 c 0
 190 414 158 345 153 295 c 1
127 698 m 1
 247 698 l 1
 334 550 l 1
 249 550 l 1
 127 698 l 1
EndSplineSet
EndChar

StartChar: iacute
Encoding: 237 237 211
Width: 256
Flags: MW
HStem: 0 21G<66 190 66 66> 467 20G<66 190 190 190> 550 148<70 278 70 278>
VStem: 66 124<0 487>
LayerCount: 2
Fore
SplineSet
190 0 m 1
 66 0 l 1
 66 487 l 1
 190 487 l 1
 190 0 l 1
157 698 m 1
 278 698 l 1
 155 550 l 1
 70 550 l 1
 157 698 l 1
EndSplineSet
EndChar

StartChar: icircumflex
Encoding: 238 238 212
Width: 256
Flags: MW
HStem: 0 21G<66 190 66 66> 467 20G<66 190 190 190> 550 148<-11 170 -11 170 86 268 86 183>
VStem: 66 124<0 487>
LayerCount: 2
Fore
SplineSet
190 0 m 1
 66 0 l 1
 66 487 l 1
 190 487 l 1
 190 0 l 1
86 698 m 1
 170 698 l 1
 268 550 l 1
 183 550 l 1
 129 641 l 1
 127 641 l 1
 73 550 l 1
 -11 550 l 1
 86 698 l 1
EndSplineSet
EndChar

StartChar: idieresis
Encoding: 239 239 213
Width: 256
Flags: MW
HStem: 0 21G<66 190 66 66> 467 20G<66 190 190 190> 563 123<12 46.5 12 46.5 210.5 245.5>
VStem: -33 122<607.5 641.5> 66 124<0 487> 167 121<607.5 641.5>
LayerCount: 2
Fore
SplineSet
190 0 m 1xe8
 66 0 l 1
 66 487 l 1
 190 487 l 1
 190 0 l 1xe8
29 563 m 0xf4
 -7 563 -33 591 -33 624 c 0
 -33 659 -6 686 30 686 c 0
 63 686 89 660 89 624 c 0
 89 591 64 563 29 563 c 0xf4
228 563 m 0
 192 563 167 591 167 624 c 0
 167 659 193 686 228 686 c 0
 263 686 288 660 288 624 c 0
 288 591 263 563 228 563 c 0
EndSplineSet
EndChar

StartChar: igrave
Encoding: 236 236 214
Width: 256
Flags: MW
HStem: 0 21G<66 190 66 66> 467 20G<66 190 190 190> 550 148<-29 178 -29 93>
VStem: 66 124<0 487>
LayerCount: 2
Fore
SplineSet
190 0 m 1
 66 0 l 1
 66 487 l 1
 190 487 l 1
 190 0 l 1
-29 698 m 1
 92 698 l 1
 178 550 l 1
 93 550 l 1
 -29 698 l 1
EndSplineSet
EndChar

StartChar: ntilde
Encoding: 241 241 215
Width: 572
Flags: MW
HStem: 0 21G<66 66 66 190 384 384 384 507> 398 100<293.5 324.5> 467 20G<62 170 170 170> 562 119<204.5 214 152 240> 569 116<361 370>
VStem: 66 124<0 286 0 342 0 370> 152 62<562 562> 361 59<685 685> 384 123<0 275 275 289 0 310>
LayerCount: 2
Fore
SplineSet
66 0 m 1xcc80
 66 342 l 2
 66 398 65 445 62 487 c 1
 170 487 l 1xac80
 176 414 l 1
 179 414 l 1
 200 452 253 498 334 498 c 0
 419 498 507 443 507 289 c 2
 507 0 l 1
 384 0 l 1
 384 275 l 2
 384 345 358 398 291 398 c 0
 242 398 208 363 195 326 c 0
 191 315 190 300 190 286 c 2
 190 0 l 1
 66 0 l 1xcc80
214 562 m 1xd280
 152 562 l 1
 150 638 181 681 228 681 c 0xd280
 252 681 271 671 292 660 c 0
 308 651 322 642 334 642 c 0
 350 642 358 651 361 685 c 1
 420 685 l 1
 423 605 395 569 345 569 c 0xcd
 320 569 300 579 279 590 c 0
 260 601 251 607 239 607 c 0
 224 607 215 591 214 562 c 1xd280
EndSplineSet
EndChar

StartChar: oacute
Encoding: 243 243 216
Width: 564
Flags: MW
HStem: -11 89<245.5 318 245.5 341> 408 90<240.5 326> 550 148<221 429 221 429>
VStem: 35 127<196 283.5 196 320> 402 127<196 283>
LayerCount: 2
Fore
SplineSet
287 498 m 0
 432 498 529 396 529 248 c 0
 529 69 403 -11 279 -11 c 0
 141 -11 35 84 35 240 c 0
 35 400 140 498 287 498 c 0
284 408 m 0
 197 408 162 324 162 243 c 0
 162 149 208 78 283 78 c 0
 353 78 402 147 402 245 c 0
 402 321 368 408 284 408 c 0
308 698 m 1
 429 698 l 1
 306 550 l 1
 221 550 l 1
 308 698 l 1
EndSplineSet
EndChar

StartChar: ocircumflex
Encoding: 244 244 217
Width: 564
Flags: MW
HStem: -11 89<245.5 318 245.5 341> 408 90<240.5 326> 550 148<143 324 143 324 240 421 240 337>
VStem: 35 127<196 283.5 196 320> 402 127<196 283>
LayerCount: 2
Fore
SplineSet
287 498 m 0
 432 498 529 396 529 248 c 0
 529 69 403 -11 279 -11 c 0
 141 -11 35 84 35 240 c 0
 35 400 140 498 287 498 c 0
284 408 m 0
 197 408 162 324 162 243 c 0
 162 149 208 78 283 78 c 0
 353 78 402 147 402 245 c 0
 402 321 368 408 284 408 c 0
240 698 m 1
 324 698 l 1
 421 550 l 1
 337 550 l 1
 283 641 l 1
 281 641 l 1
 227 550 l 1
 143 550 l 1
 240 698 l 1
EndSplineSet
EndChar

StartChar: odieresis
Encoding: 246 246 218
Width: 564
Flags: MW
HStem: -11 89<245.5 318 245.5 341> 408 90<240.5 326> 563 123<166 200.5 166 200.5 364.5 399.5>
VStem: 35 127<196 283.5 196 320> 121 122<607.5 641.5> 321 121<607.5 641.5> 402 127<196 283>
LayerCount: 2
Fore
SplineSet
287 498 m 0xf2
 432 498 529 396 529 248 c 0
 529 69 403 -11 279 -11 c 0
 141 -11 35 84 35 240 c 0
 35 400 140 498 287 498 c 0xf2
284 408 m 0
 197 408 162 324 162 243 c 0
 162 149 208 78 283 78 c 0
 353 78 402 147 402 245 c 0
 402 321 368 408 284 408 c 0
183 563 m 0xec
 147 563 121 591 121 624 c 0
 121 659 148 686 184 686 c 0
 217 686 243 660 243 624 c 0
 243 591 218 563 183 563 c 0xec
382 563 m 0
 346 563 321 591 321 624 c 0
 321 659 347 686 382 686 c 0
 417 686 442 660 442 624 c 0
 442 591 417 563 382 563 c 0
EndSplineSet
EndChar

StartChar: ograve
Encoding: 242 242 219
Width: 564
Flags: MW
HStem: -11 89<245.5 318 245.5 341> 408 90<240.5 326> 550 148<138 346 138 260>
VStem: 35 127<196 283.5 196 320> 402 127<196 283>
LayerCount: 2
Fore
SplineSet
287 498 m 0
 432 498 529 396 529 248 c 0
 529 69 403 -11 279 -11 c 0
 141 -11 35 84 35 240 c 0
 35 400 140 498 287 498 c 0
284 408 m 0
 197 408 162 324 162 243 c 0
 162 149 208 78 283 78 c 0
 353 78 402 147 402 245 c 0
 402 321 368 408 284 408 c 0
138 698 m 1
 259 698 l 1
 346 550 l 1
 260 550 l 1
 138 698 l 1
EndSplineSet
EndChar

StartChar: otilde
Encoding: 245 245 220
Width: 564
Flags: MW
HStem: -11 89<245.5 318 245.5 341> 408 90<240.5 326> 562 119<200.5 210 148 236> 569 116<357 366>
VStem: 35 127<196 283.5 196 320> 148 62<562 562> 357 59<685 685> 402 127<196 283>
LayerCount: 2
Fore
SplineSet
287 498 m 0xc9
 432 498 529 396 529 248 c 0
 529 69 403 -11 279 -11 c 0
 141 -11 35 84 35 240 c 0
 35 400 140 498 287 498 c 0xc9
284 408 m 0
 197 408 162 324 162 243 c 0
 162 149 208 78 283 78 c 0
 353 78 402 147 402 245 c 0
 402 321 368 408 284 408 c 0
210 562 m 1xe5
 148 562 l 1
 146 638 177 681 224 681 c 0xe5
 248 681 267 671 288 660 c 0
 304 651 318 642 330 642 c 0
 346 642 354 651 357 685 c 1
 416 685 l 1
 419 605 391 569 341 569 c 0xda
 316 569 296 579 275 590 c 0
 256 601 247 607 235 607 c 0
 220 607 211 591 210 562 c 1xe5
EndSplineSet
EndChar

StartChar: scaron
Encoding: 353 353 221
Width: 417
Flags: MW
HStem: -10 88<163 212 163 248.5> 410 88<213 256.5> 550 148<72 255 72 170>
VStem: 49 118<345 374 343.5 388> 263 119<116 142 98 148.5>
LayerCount: 2
Fore
SplineSet
36 24 m 1
 60 113 l 1
 88 96 141 78 185 78 c 0
 239 78 263 100 263 132 c 0
 263 165 243 182 183 203 c 0
 88 236 48 288 49 345 c 0
 49 431 120 498 233 498 c 0
 287 498 334 484 362 469 c 1
 338 382 l 1
 317 394 278 410 235 410 c 0
 191 410 167 389 167 359 c 0
 167 328 190 313 252 291 c 0
 340 259 381 214 382 142 c 0
 382 54 313 -10 184 -10 c 0
 125 -10 72 4 36 24 c 1
255 550 m 1
 170 550 l 1
 72 698 l 1
 157 698 l 1
 211 607 l 1
 213 607 l 1
 268 698 l 1
 352 698 l 1
 255 550 l 1
EndSplineSet
EndChar

StartChar: uacute
Encoding: 250 250 222
Width: 569
Flags: MW
HStem: -11 100<245.5 277.5> 0 21G<398 506 398 398> 467 20G<64 187 187 187 379 502 502 502> 550 148<231 439 231 439>
VStem: 64 123<201 222 222 487> 379 123<193 487>
LayerCount: 2
Fore
SplineSet
502 487 m 1xbc
 502 146 l 2
 502 88 504 40 506 0 c 1
 398 0 l 1x7c
 392 74 l 1
 390 74 l 1
 369 39 321 -11 234 -11 c 0
 145 -11 64 42 64 201 c 2
 64 487 l 1
 187 487 l 1
 187 222 l 2
 187 141 213 89 278 89 c 0
 327 89 359 124 372 155 c 0
 376 166 379 179 379 193 c 2
 379 487 l 1
 502 487 l 1xbc
318 698 m 1
 439 698 l 1
 316 550 l 1
 231 550 l 1
 318 698 l 1
EndSplineSet
EndChar

StartChar: ucircumflex
Encoding: 251 251 223
Width: 569
Flags: MW
HStem: -11 100<245.5 277.5> 0 21G<398 506 398 398> 467 20G<64 187 187 187 379 502 502 502> 550 148<145 326 145 326 242 424 242 339>
VStem: 64 123<201 222 222 487> 379 123<193 487>
LayerCount: 2
Fore
SplineSet
502 487 m 1xbc
 502 146 l 2
 502 88 504 40 506 0 c 1
 398 0 l 1x7c
 392 74 l 1
 390 74 l 1
 369 39 321 -11 234 -11 c 0
 145 -11 64 42 64 201 c 2
 64 487 l 1
 187 487 l 1
 187 222 l 2
 187 141 213 89 278 89 c 0
 327 89 359 124 372 155 c 0
 376 166 379 179 379 193 c 2
 379 487 l 1
 502 487 l 1xbc
242 698 m 1
 326 698 l 1
 424 550 l 1
 339 550 l 1
 285 641 l 1
 283 641 l 1
 230 550 l 1
 145 550 l 1
 242 698 l 1
EndSplineSet
EndChar

StartChar: udieresis
Encoding: 252 252 224
Width: 569
Flags: MW
HStem: -11 100<245.5 277.5> 0 21G<398 506 398 398> 467 20G<64 187 187 187 379 502 502 502> 563 123<171 205.5 171 205.5 369.5 404.5>
VStem: 64 123<201 222 222 487> 126 122<607.5 641.5> 326 121<607.5 641.5> 379 123<193 487>
LayerCount: 2
Fore
SplineSet
502 487 m 1xb9
 502 146 l 2
 502 88 504 40 506 0 c 1
 398 0 l 1x75
 392 74 l 1
 390 74 l 1
 369 39 321 -11 234 -11 c 0
 145 -11 64 42 64 201 c 2
 64 487 l 1
 187 487 l 1
 187 222 l 2
 187 141 213 89 278 89 c 0
 327 89 359 124 372 155 c 0
 376 166 379 179 379 193 c 2
 379 487 l 1
 502 487 l 1xb9
188 563 m 0
 152 563 126 591 126 624 c 0
 126 659 153 686 189 686 c 0
 222 686 248 660 248 624 c 0
 248 591 223 563 188 563 c 0
387 563 m 0xba
 351 563 326 591 326 624 c 0
 326 659 352 686 387 686 c 0
 422 686 447 660 447 624 c 0
 447 591 422 563 387 563 c 0xba
EndSplineSet
EndChar

StartChar: ugrave
Encoding: 249 249 225
Width: 569
Flags: MW
HStem: -11 100<245.5 277.5> 0 21G<398 506 398 398> 467 20G<64 187 187 187 379 502 502 502> 550 148<136 343 136 258>
VStem: 64 123<201 222 222 487> 379 123<193 487>
LayerCount: 2
Fore
SplineSet
502 487 m 1xbc
 502 146 l 2
 502 88 504 40 506 0 c 1
 398 0 l 1x7c
 392 74 l 1
 390 74 l 1
 369 39 321 -11 234 -11 c 0
 145 -11 64 42 64 201 c 2
 64 487 l 1
 187 487 l 1
 187 222 l 2
 187 141 213 89 278 89 c 0
 327 89 359 124 372 155 c 0
 376 166 379 179 379 193 c 2
 379 487 l 1
 502 487 l 1xbc
136 698 m 1
 256 698 l 1
 343 550 l 1
 258 550 l 1
 136 698 l 1
EndSplineSet
EndChar

StartChar: yacute
Encoding: 253 253 226
Width: 500
Flags: MW
HStem: -117 21G<46 46> 467 20G<8 143 143 143 363 495 495 495> 550 148<205 413 205 413>
VStem: 8 487<487 487>
LayerCount: 2
Fore
SplineSet
8 487 m 1
 143 487 l 1
 231 226 l 2
 241 196 251 159 258 131 c 1
 261 131 l 1
 269 159 278 195 287 227 c 2
 363 487 l 1
 495 487 l 1
 373 155 l 2
 306 -27 261 -108 203 -158 c 0
 155 -201 105 -217 74 -221 c 1
 46 -117 l 1
 67 -112 93 -101 118 -83 c 0
 141 -68 168 -39 185 -6 c 0
 190 3 193 10 193 16 c 0
 193 21 192 28 186 40 c 2
 8 487 l 1
292 698 m 1
 413 698 l 1
 290 550 l 1
 205 550 l 1
 292 698 l 1
EndSplineSet
EndChar

StartChar: ydieresis
Encoding: 255 255 227
Width: 500
Flags: MW
HStem: -117 21G<46 46> 467 20G<8 143 143 143 363 495 495 495> 563 123<145.5 179.5 145.5 180 344 379>
VStem: 100 122<607.5 641.5> 300 122<607.5 641.5>
LayerCount: 2
Fore
SplineSet
8 487 m 1
 143 487 l 1
 231 226 l 2
 241 196 251 159 258 131 c 1
 261 131 l 1
 269 159 278 195 287 227 c 2
 363 487 l 1
 495 487 l 1
 373 155 l 2
 306 -27 261 -108 203 -158 c 0
 155 -201 105 -217 74 -221 c 1
 46 -117 l 1
 67 -112 93 -101 118 -83 c 0
 141 -68 168 -39 185 -6 c 0
 190 3 193 10 193 16 c 0
 193 21 192 28 186 40 c 2
 8 487 l 1
163 563 m 0
 127 563 100 591 100 624 c 0
 100 659 128 686 163 686 c 0
 196 686 222 660 222 624 c 0
 222 591 197 563 163 563 c 0
361 563 m 0
 325 563 300 591 300 624 c 0
 300 659 326 686 362 686 c 0
 396 686 422 660 422 624 c 0
 422 591 397 563 361 563 c 0
EndSplineSet
EndChar

StartChar: zcaron
Encoding: 382 382 228
Width: 450
Flags: MW
HStem: 0 98<174 431 174 431> 389 98<38 275 38 425> 550 148<94 277 94 192>
VStem: 20 411<0 71 71 71>
LayerCount: 2
Fore
SplineSet
20 0 m 1
 20 71 l 1
 203 305 l 2
 228 335 249 359 275 387 c 1
 275 389 l 1
 38 389 l 1
 38 487 l 1
 425 487 l 1
 425 412 l 1
 246 183 l 2
 222 154 199 126 174 100 c 1
 174 98 l 1
 431 98 l 1
 431 0 l 1
 20 0 l 1
277 550 m 1
 192 550 l 1
 94 698 l 1
 179 698 l 1
 233 607 l 1
 235 607 l 1
 290 698 l 1
 374 698 l 1
 277 550 l 1
EndSplineSet
EndChar

StartChar: Dcroat
Encoding: 272 272 229
Width: 689
Flags: MW
HStem: -9 98<256 308.5> 0 21G<77 77> 294 97<1 77 1 77 200 355> 586 96<264.5 336.5 236.5 361.5>
VStem: 77 123<92 294 92 294 92 294 391 579> 524 130<292.5 411 292.5 427>
LayerCount: 2
Fore
SplineSet
1 294 m 1xbc
 1 391 l 1
 77 391 l 1
 77 667 l 1
 132 676 200 682 273 682 c 0
 400 682 486 657 548 605 c 0
 614 552 654 469 654 353 c 0
 654 232 612 142 549 84 c 0
 481 22 374 -9 243 -9 c 0xbc
 172 -9 117 -5 77 0 c 1x7c
 77 294 l 1
 1 294 l 1xbc
355 391 m 1
 355 294 l 1
 200 294 l 1
 200 92 l 1
 217 89 243 89 269 89 c 0
 430 89 524 176 524 351 c 0
 524 503 439 586 284 586 c 0
 245 586 218 582 200 579 c 1
 200 391 l 1
 355 391 l 1
EndSplineSet
Position2: "'cpsp' Capital Spacing lookup 0 subtable" dx=10 dy=0 dh=20 dv=0
EndChar

StartChar: Eng
Encoding: 330 330 230
Width: 676
Flags: MW
HStem: -11 21G<485 485> 0 21G<71 184 71 71> 529 145<181 181> 654 20G<71 211 211 211 491 605 605 605>
VStem: 71 113<0 241> 491 114<439 674>
LayerCount: 2
Fore
SplineSet
184 0 m 1x5c
 71 0 l 1x5c
 71 674 l 1
 211 674 l 1
 385 385 l 2
 430 310 469 232 500 159 c 1
 502 159 l 1
 494 249 491 336 491 439 c 2
 491 674 l 1
 605 674 l 1
 605 44 l 2
 605 -115 525 -191 393 -208 c 1
 366 -114 l 1
 439 -98 477 -67 485 -11 c 1
 302 296 l 2
 259 370 214 453 181 529 c 1
 178 528 l 1xac
 183 441 184 352 184 241 c 2
 184 0 l 1x5c
EndSplineSet
Position2: "'cpsp' Capital Spacing lookup 0 subtable" dx=10 dy=0 dh=20 dv=0
EndChar

StartChar: Hbar
Encoding: 294 294 231
Width: 681
Flags: MW
HStem: 0 21G<75 198 75 75 483 606 483 483> 277 106<198 483 198 483> 475 75<14 75 14 75 198 483 606 667> 475 199<14 198 14 198 75 198 75 483>
VStem: 75 123<0 277 0 383 383 475 550 674> 483 123<0 277 277 277 383 475 0 475 550 674>
LayerCount: 2
Fore
SplineSet
667 475 m 1xdc
 606 475 l 1
 606 0 l 1
 483 0 l 1
 483 277 l 1
 198 277 l 1
 198 0 l 1
 75 0 l 1
 75 475 l 1
 14 475 l 1xdc
 14 550 l 1
 75 550 l 1xec
 75 674 l 1
 198 674 l 1xdc
 198 550 l 1
 483 550 l 1xec
 483 674 l 1
 606 674 l 1xdc
 606 550 l 1
 667 550 l 1xec
 667 475 l 1xdc
483 383 m 1
 483 475 l 1
 198 475 l 1
 198 383 l 1
 483 383 l 1
EndSplineSet
Position2: "'cpsp' Capital Spacing lookup 0 subtable" dx=10 dy=0 dh=20 dv=0
EndChar

StartChar: Tbar
Encoding: 358 358 232
Width: 525
Flags: MW
HStem: 0 21G<200 323 200 200> 303 76<80 200 80 200 323 442> 571 103<8 200 8 517 323 517 323 323>
VStem: 200 123<0 303 0 303 379 571>
LayerCount: 2
Fore
SplineSet
517 571 m 1
 323 571 l 1
 323 379 l 1
 442 379 l 1
 442 303 l 1
 323 303 l 1
 323 0 l 1
 200 0 l 1
 200 303 l 1
 80 303 l 1
 80 379 l 1
 200 379 l 1
 200 571 l 1
 8 571 l 1
 8 674 l 1
 517 674 l 1
 517 571 l 1
EndSplineSet
Position2: "'cpsp' Capital Spacing lookup 0 subtable" dx=10 dy=0 dh=20 dv=0
EndChar

StartChar: uni021C
Encoding: 540 540 233
Width: 512
Flags: MW
HStem: 589 96<183.5 223.5>
VStem: 293 123<496.5 534> 342 131<122.5 208.5>
LayerCount: 2
Fore
SplineSet
69 -121 m 1xc0
 55 -26 l 1
 182 -10 342 66 342 179 c 0xa0
 342 238 299 291 211 291 c 0
 190 291 147 284 113 273 c 1
 99 358 l 1
 201 379 293 435 293 511 c 0
 293 557 253 589 194 589 c 0
 142 589 87 569 58 554 c 1
 34 635 l 1
 74 659 147 685 220 685 c 0
 334 685 416 625 416 533 c 0xc0
 416 460 364 402 295 370 c 1
 295 368 l 1
 393 356 473 293 473 186 c 0xa0
 473 22 300 -104 69 -121 c 1xc0
EndSplineSet
Position2: "'cpsp' Capital Spacing lookup 0 subtable" dx=10 dy=0 dh=20 dv=0
EndChar

StartChar: dcroat
Encoding: 273 273 234
Width: 581
Flags: MW
HStem: -11 99<243 278.5> 0 21G<409 519 409 409> 403 95<243.5 286.5 194.5 311> 545 71<203 392 203 392 515 594> 545 165<203 515 392 594 392 515>
VStem: 35 125<197.5 238> 392 123<211 284 284 289 434 545 616 710>
LayerCount: 2
Fore
SplineSet
594 545 m 1xae
 515 545 l 1
 515 137 l 2
 515 87 517 33 519 0 c 1
 409 0 l 1x6e
 404 77 l 1
 402 77 l 1
 373 23 314 -11 243 -11 c 0
 127 -11 35 88 35 238 c 0
 34 401 136 498 253 498 c 0
 320 498 368 470 390 434 c 1
 392 434 l 1
 392 545 l 1
 203 545 l 1xae
 203 616 l 1
 392 616 l 1xb6
 392 710 l 1
 515 710 l 1xae
 515 616 l 1
 594 616 l 1xb6
 594 545 l 1xae
392 211 m 2
 392 284 l 2
 392 294 391 306 389 316 c 0
 378 364 339 403 283 403 c 0
 204 403 160 333 160 242 c 0
 160 153 204 88 282 88 c 0
 332 88 376 122 388 175 c 0xae
 391 186 392 198 392 211 c 2
EndSplineSet
EndChar

StartChar: eng
Encoding: 331 331 235
Width: 572
Flags: MW
HStem: 0 21G<66 66 66 190> 398 100<293.5 324.5> 467 20G<62 170 170 170>
VStem: 66 124<0 286 0 342 0 370> 384 123<42 59 59 275 275 289>
LayerCount: 2
Fore
SplineSet
66 0 m 1xd8
 66 342 l 2
 66 398 65 445 62 487 c 1
 170 487 l 1xb8
 176 414 l 1
 179 414 l 1
 200 452 253 498 334 498 c 0
 419 498 507 443 507 289 c 2
 507 59 l 2
 507 -108 419 -174 308 -188 c 1
 284 -91 l 1
 352 -78 384 -39 384 42 c 2
 384 275 l 2
 384 345 358 398 291 398 c 0
 242 398 208 363 195 326 c 0
 191 315 190 300 190 286 c 2
 190 0 l 1
 66 0 l 1xd8
EndSplineSet
EndChar

StartChar: hbar
Encoding: 295 295 236
Width: 572
Flags: MW
HStem: 0 21G<66 190 66 66 384 507 384 384> 397 101<321.5 324> 545 71<-12 66 -12 66 190 377> 545 165<-12 190 -12 190 66 190 66 377>
VStem: 66 124<0 291 420 545 616 710> 384 123<0 273 273 287>
LayerCount: 2
Fore
SplineSet
507 0 m 1xdc
 384 0 l 1
 384 273 l 2
 384 344 358 397 290 397 c 0
 242 397 208 365 195 328 c 0
 191 318 190 305 190 291 c 2
 190 0 l 1
 66 0 l 1
 66 545 l 1
 -12 545 l 1xdc
 -12 616 l 1
 66 616 l 1xec
 66 710 l 1
 190 710 l 1xdc
 190 616 l 1
 377 616 l 1xec
 377 545 l 1
 190 545 l 1
 190 420 l 1
 192 420 l 1
 207 443 228 463 253 476 c 0
 277 489 306 498 337 498 c 0
 420 498 507 443 507 287 c 2
 507 0 l 1xdc
EndSplineSet
EndChar

StartChar: kgreenlandic
Encoding: 312 312 237
Width: 509
Flags: MW
HStem: 0 21G<66 189 66 66 371 522 371 371> 467 20G<66 189 189 189 348 496 496 496>
VStem: 66 123<0 166 273 487>
LayerCount: 2
Fore
SplineSet
189 487 m 1
 189 273 l 1
 191 273 l 1
 203 292 217 313 230 330 c 2
 348 487 l 1
 496 487 l 1
 316 288 l 1
 522 0 l 1
 371 0 l 1
 231 215 l 1
 189 166 l 1
 189 0 l 1
 66 0 l 1
 66 487 l 1
 189 487 l 1
EndSplineSet
EndChar

StartChar: napostrophe
Encoding: 329 329 238
Width: 572
Flags: MW
HStem: 0 21G<66 66 66 190 384 384 384 507> 398 100<293.5 324.5> 467 20G<62 170 170 170>
VStem: 46 91<632.5 661> 66 124<0 286 0 342 0 370> 384 123<0 275 275 289 0 310>
LayerCount: 2
Fore
SplineSet
67 530 m 1xd4
 13 565 l 1
 30 589 46 615 46 650 c 0
 46 672 35 693 21 707 c 1
 104 728 l 1
 119 718 137 691 137 654 c 0
 137 585 85 544 67 530 c 1xd4
66 0 m 1xcc
 66 342 l 2
 66 398 65 445 62 487 c 1
 170 487 l 1xac
 176 414 l 1
 179 414 l 1
 200 452 253 498 334 498 c 0
 419 498 507 443 507 289 c 2
 507 0 l 1
 384 0 l 1
 384 275 l 2
 384 345 358 398 291 398 c 0
 242 398 208 363 195 326 c 0
 191 315 190 300 190 286 c 2
 190 0 l 1
 66 0 l 1xcc
EndSplineSet
EndChar

StartChar: tbar
Encoding: 359 359 239
Width: 351
Flags: MW
HStem: -10 100<246.5 250.5> 236 69<22 87 22 87 207 297> 395 92<17 87 17 87 207 324>
VStem: 87 120<166 180 180 236 150.5 236 305 395 487 597 597 597>
LayerCount: 2
Fore
SplineSet
324 395 m 1
 207 395 l 1
 207 305 l 1
 297 305 l 1
 297 236 l 1
 207 236 l 1
 207 180 l 2
 207 121 223 90 270 90 c 0
 291 90 307 93 318 96 c 1
 320 2 l 1
 302 -5 270 -10 231 -10 c 0
 186 -10 148 5 125 30 c 0
 99 58 87 102 87 166 c 2
 87 236 l 1
 22 236 l 1
 22 305 l 1
 87 305 l 1
 87 395 l 1
 17 395 l 1
 17 487 l 1
 87 487 l 1
 87 597 l 1
 207 626 l 1
 207 487 l 1
 324 487 l 1
 324 395 l 1
EndSplineSet
EndChar

StartChar: uni021D
Encoding: 541 541 240
Width: 453
Flags: MW
HStem: -209 21G<47 47> -209 94<34 47> 403 95<161.5 193>
VStem: 257 120<326 355> 298 127<-13 72.5>
LayerCount: 2
Fore
SplineSet
47 -209 m 1xa8
 34 -115 l 1
 83 -113 298 -87 298 49 c 0x68
 298 96 269 142 184 142 c 0
 160 142 125 134 98 126 c 1
 81 211 l 1
 179 233 257 269 257 333 c 0
 257 377 222 403 164 403 c 0
 116 403 70 381 43 367 c 1
 19 447 l 1
 60 474 127 498 196 498 c 0
 306 498 377 444 377 357 c 0xb0
 377 295 339 250 272 222 c 1
 272 219 l 1
 365 207 425 149 425 62 c 0
 425 -88 266 -197 47 -209 c 1xa8
EndSplineSet
EndChar

StartChar: IJ
Encoding: 306 306 241
Width: 657
Flags: MW
HStem: -11 103<352 392 342 435.5> 0 21G<71 194 71 71> 654 20G<71 194 194 194 469 593 593 593>
VStem: 71 123<0 674 0 674> 469 124<241 674>
LayerCount: 2
Fore
SplineSet
71 674 m 1xb8
 194 674 l 1
 194 0 l 1
 71 0 l 1x78
 71 674 l 1xb8
469 241 m 2
 469 674 l 1
 593 674 l 1
 593 237 l 2
 593 51 502 -11 369 -11 c 0
 335 -11 292 -5 266 5 c 1
 281 104 l 1
 300 98 327 92 357 92 c 0xb8
 427 92 469 124 469 241 c 2
EndSplineSet
Position2: "'cpsp' Capital Spacing lookup 0 subtable" dx=10 dy=0 dh=20 dv=0
EndChar

StartChar: f_f
Encoding: 64256 64256 242
Width: 620
Flags: MW
HStem: 0 21G<80 203 80 80 380 504 380 380> 395 92<14 80 14 80 203 380 203 203 504 504 504 609> 614 96<247 283> 623 98<553.5 583.5 545.5 595.5>
VStem: 80 123<0 395 0 395 0 499 0 530.5> 380 124<0 395>
LayerCount: 2
Fore
SplineSet
504 0 m 1xdc
 380 0 l 1
 380 395 l 1
 203 395 l 1
 203 0 l 1
 80 0 l 1
 80 395 l 1
 14 395 l 1
 14 487 l 1
 80 487 l 1
 80 499 l 2
 80 562 95 620 135 660 c 0
 165 691 210 710 272 710 c 0
 298 710 324 703 339 696 c 1
 319 605 l 1
 307 610 291 614 275 614 c 0xec
 219 614 202 567 202 506 c 2
 202 487 l 1
 380 487 l 1
 380 508 l 2
 380 571 397 634 440 674 c 0
 476 708 524 721 567 721 c 0
 600 721 626 716 645 709 c 1xdc
 637 614 l 1xec
 623 619 607 623 584 623 c 0
 523 623 503 572 503 512 c 2
 503 487 l 1
 609 487 l 1
 609 395 l 1
 504 395 l 1
 504 0 l 1xdc
EndSplineSet
Ligature2: "'liga' Standard Ligatures lookup 18 subtable" f f
EndChar

StartChar: f_f_i
Encoding: 64259 64259 243
Width: 861
Flags: MW
HStem: 0 21G<80 203 80 80 382 506 382 382 672 795 672 672> 395 92<14 80 14 80 203 382 203 203 506 672 506 506> 615 95<269.5 290.5> 623 98<575.5 638.5> 690 20G<246.5 294>
VStem: 80 123<0 395 0 395 0 501 0 530.5> 382 124<0 395 0 395 0 510 0 575.5> 672 123<0 395 395 395>
LayerCount: 2
Fore
SplineSet
747 693 m 1xd7
 718 600 l 1
 695 612 659 623 618 623 c 0xd7
 533 623 505 571 505 507 c 2
 505 487 l 1
 795 487 l 1
 795 0 l 1
 672 0 l 1
 672 395 l 1
 506 395 l 1
 506 0 l 1
 382 0 l 1
 382 395 l 1
 203 395 l 1
 203 0 l 1
 80 0 l 1
 80 395 l 1
 14 395 l 1
 14 487 l 1
 80 487 l 1
 80 501 l 2
 80 560 97 619 141 661 c 0
 171 690 216 710 277 710 c 0xe7
 311 710 343 700 362 691 c 1xcf
 333 602 l 1
 320 609 300 615 281 615 c 0
 258 615 241 607 229 594 c 0xe7
 209 573 202 538 202 504 c 2
 202 487 l 1
 382 487 l 1
 382 510 l 2
 382 641 474 721 618 721 c 0
 664 721 718 709 747 693 c 1xd7
EndSplineSet
Ligature2: "'liga' Standard Ligatures lookup 18 subtable" f f i
EndChar

StartChar: f_f_j
Encoding: 57347 57347 244
Width: 852
Flags: MW
HStem: -209 21G<560 590.5> -209 96<548 590.5> 0 21G<80 203 80 80 382 506 382 382> 395 92<14 80 14 80 203 382 203 203 506 672 506 506> 615 95<269.5 290.5> 623 98<575.5 638.5> 690 20G<246.5 294>
VStem: 80 123<0 395 0 395 0 501 0 530.5> 382 124<0 395 0 395 0 510 0 575.5> 672 123<91 395 395 395>
LayerCount: 2
Fore
SplineSet
747 693 m 1xb5c0
 718 600 l 1
 695 612 659 623 618 623 c 0xb5c0
 533 623 505 571 505 507 c 2
 505 487 l 1
 795 487 l 1
 795 56 l 2
 795 -45 776 -108 731 -152 c 0
 689 -192 621 -209 560 -209 c 1
 548 -113 l 1
 587 -110 620 -99 640 -78 c 0
 663 -53 672 -15 672 91 c 2
 672 395 l 1
 506 395 l 1
 506 0 l 1
 382 0 l 1
 382 395 l 1
 203 395 l 1
 203 0 l 1
 80 0 l 1
 80 395 l 1
 14 395 l 1
 14 487 l 1
 80 487 l 1
 80 501 l 2
 80 560 97 619 141 661 c 0
 171 690 216 710 277 710 c 0x79c0
 311 710 343 700 362 691 c 1xb3c0
 333 602 l 1
 320 609 300 615 281 615 c 0
 258 615 241 607 229 594 c 0xb9c0
 209 573 202 538 202 504 c 2
 202 487 l 1
 382 487 l 1
 382 510 l 2
 382 641 474 721 618 721 c 0
 664 721 718 709 747 693 c 1xb5c0
EndSplineSet
Ligature2: "'liga' Standard Ligatures lookup 18 subtable" f f j
EndChar

StartChar: f_f_l
Encoding: 64260 64260 245
Width: 861
Flags: MW
HStem: 0 21G<80 203 80 80 382 506 382 382 672 795 672 672> 395 92<14 80 14 80 203 382 203 203 506 605 506 506> 615 95<271 292.5> 628 93<589.5 623>
VStem: 80 123<0 395 0 395 0 497 0 529> 382 124<0 395 0 395 0 508 0 538.5> 672 123<0 617 617 617>
LayerCount: 2
Fore
SplineSet
363 694 m 1xee
 335 603 l 1
 320 610 302 615 283 615 c 0
 259 615 242 607 229 593 c 0xee
 209 573 202 540 202 505 c 2
 202 487 l 1
 382 487 l 1
 382 508 l 2
 382 569 408 630 454 669 c 0
 497 704 553 721 626 721 c 0
 692 721 752 708 795 684 c 1
 795 0 l 1
 672 0 l 1
 672 617 l 1
 659 624 638 628 608 628 c 0xde
 533 628 505 574 505 509 c 2
 505 487 l 1
 605 487 l 1
 605 395 l 1
 506 395 l 1
 506 0 l 1
 382 0 l 1
 382 395 l 1
 203 395 l 1
 203 0 l 1
 80 0 l 1
 80 395 l 1
 14 395 l 1
 14 487 l 1
 80 487 l 1
 80 497 l 2
 80 561 98 619 139 658 c 0
 174 692 225 710 285 710 c 0
 316 710 347 701 363 694 c 1xee
EndSplineSet
Ligature2: "'liga' Standard Ligatures lookup 18 subtable" f f l
EndChar

StartChar: f_i
Encoding: 65537 -1 246
Width: 559
Flags: MW
HStem: 0 21G<80 203 80 80 369 369 369 493> 395 92<14 80 14 80 203 203 203 369> 623 98<273 339>
VStem: 80 123<0 395> 369 124<0 395 395 395>
LayerCount: 2
Fore
SplineSet
203 0 m 1
 80 0 l 1
 80 395 l 1
 14 395 l 1
 14 487 l 1
 80 487 l 1
 80 510 l 2
 80 641 171 721 316 721 c 0
 364 721 422 708 450 690 c 1
 423 597 l 1
 400 610 362 623 316 623 c 0
 230 623 202 571 202 507 c 2
 202 487 l 1
 493 487 l 1
 493 0 l 1
 369 0 l 1
 369 395 l 1
 203 395 l 1
 203 0 l 1
EndSplineSet
Ligature2: "'liga' Standard Ligatures lookup 18 subtable" f i
EndChar

StartChar: f_j
Encoding: 57348 57348 247
Width: 557
Flags: MW
HStem: -209 21G<257 287.5> -209 96<245 287.5> 0 21G<80 203 80 80> 395 92<14 80 14 80 203 203 203 369> 623 98<273 339>
VStem: 80 123<0 395> 369 124<91 395 395 395>
LayerCount: 2
Fore
SplineSet
203 0 m 1xbe
 80 0 l 1
 80 395 l 1
 14 395 l 1
 14 487 l 1
 80 487 l 1
 80 510 l 2
 80 641 171 721 316 721 c 0
 364 721 422 708 450 690 c 1
 423 597 l 1
 400 610 362 623 316 623 c 0
 230 623 202 571 202 507 c 2
 202 487 l 1
 493 487 l 1
 493 56 l 2
 493 -45 473 -108 429 -152 c 0
 386 -192 318 -209 257 -209 c 1
 245 -113 l 1
 285 -110 318 -99 337 -78 c 0x7e
 360 -53 369 -15 369 91 c 2
 369 395 l 1
 203 395 l 1
 203 0 l 1xbe
EndSplineSet
Ligature2: "'liga' Standard Ligatures lookup 18 subtable" f j
EndChar

StartChar: f_l
Encoding: 65538 -1 248
Width: 559
Flags: MW
HStem: 0 21G<80 203 80 80 369 369 369 493> 395 92<14 80 14 80 203 203 203 302> 628 93<287 320.5>
VStem: 80 123<0 395> 369 124<0 617 617 617>
LayerCount: 2
Fore
SplineSet
203 0 m 1
 80 0 l 1
 80 395 l 1
 14 395 l 1
 14 487 l 1
 80 487 l 1
 80 508 l 2
 80 569 105 630 152 669 c 0
 195 704 250 721 324 721 c 0
 389 721 449 708 493 684 c 1
 493 0 l 1
 369 0 l 1
 369 617 l 1
 356 624 336 628 305 628 c 0
 230 628 202 574 202 509 c 2
 202 487 l 1
 302 487 l 1
 302 395 l 1
 203 395 l 1
 203 0 l 1
EndSplineSet
Ligature2: "'liga' Standard Ligatures lookup 18 subtable" f l
EndChar

StartChar: ij
Encoding: 307 307 249
Width: 526
Flags: MW
HStem: -209 21G<226 256.5> -209 96<214 256.5> 0 21G<66 190 66 66> 467 20G<66 190 190 190 338 461 461 461> 557 133<107.5 148.5 379 420>
VStem: 59 138<604.5 623 604.5 642> 66 124<0 487> 331 137<605 642> 338 123<91 487>
LayerCount: 2
Fore
SplineSet
190 0 m 1xba80
 66 0 l 1
 66 487 l 1
 190 487 l 1
 190 0 l 1xba80
128 690 m 0xbc80
 170 690 196 661 197 623 c 0
 197 586 170 557 127 557 c 0
 86 557 59 586 59 623 c 0
 59 661 87 690 128 690 c 0xbc80
226 -209 m 1
 214 -113 l 1
 254 -110 286 -99 306 -78 c 0x7a80
 329 -53 338 -15 338 91 c 2
 338 487 l 1
 461 487 l 1
 461 56 l 2
 461 -45 442 -108 398 -152 c 0
 355 -192 287 -209 226 -209 c 1
400 690 m 0xbb
 442 690 468 661 468 623 c 0
 468 587 442 557 398 557 c 0
 357 557 331 587 331 623 c 0
 331 661 358 690 400 690 c 0xbb
EndSplineSet
EndChar

StartChar: zero.slash
Encoding: 63032 63032 250
Width: 536
Flags: MW
HStem: -11 94<250.5 304.5 250.5 342.5> 567 94<232.5 286>
VStem: 34 118<323 401.5 304.5 424> 384 118<249 348>
LayerCount: 2
Fore
SplineSet
168 208 m 1
 346 521 l 1
 330 549 304 567 268 567 c 0
 197 567 152 476 152 327 c 0
 152 282 157 243 168 208 c 1
371 444 m 1
 192 127 l 1
 211 98 234 83 267 83 c 0
 342 83 384 171 384 327 c 0
 384 369 380 407 371 444 c 1
272 661 m 0
 429 661 502 521 502 329 c 0
 502 120 420 -11 265 -11 c 0
 115 -11 35 125 34 323 c 0
 34 525 120 661 272 661 c 0
EndSplineSet
AlternateSubs2: "'aalt' Access All Alternates lookup 1 subtable" zero.fitted zero.oldstyle zero.taboldstyle zero.superior zero.inferior zero.numerator zero.denominator
EndChar

StartChar: Euro
Encoding: 8364 8364 251
Width: 536
Flags: MW
HStem: -11 100<348 392> 241 61<7 63 7 71 7 63 197 197 197 462> 354 62<7 65 7 74 200 462> 564 97<346 393.5>
VStem: 63 123<302 318 315.5 319 302 324>
LayerCount: 2
Fore
SplineSet
492 119 m 1
 513 29 l 1
 480 9 424 -11 360 -11 c 0
 269 -11 187 25 134 92 c 0
 102 129 80 179 71 241 c 1
 7 241 l 1
 7 302 l 1
 63 302 l 1
 63 307 63 313 63 318 c 0
 63 330 64 343 65 354 c 1
 7 354 l 1
 7 416 l 1
 74 416 l 1
 86 477 113 529 149 567 c 0
 203 627 276 661 365 661 c 0
 425 661 475 646 508 630 c 1
 483 537 l 1
 457 551 416 564 371 564 c 0
 321 564 277 546 244 509 c 0
 223 487 208 454 200 416 c 1
 462 416 l 1
 462 354 l 1
 188 354 l 1
 186 343 186 331 186 319 c 0
 186 313 186 308 186 302 c 1
 462 302 l 1
 462 241 l 1
 197 241 l 1
 204 198 219 166 240 143 c 0
 274 106 322 89 374 89 c 0
 423 89 469 106 492 119 c 1
EndSplineSet
Substitution2: "'onum' Oldstyle Figures lookup 14 subtable" Euro.taboldstyle
Substitution2: "'aalt' Access All Alternates lookup 0 subtable" Euro.taboldstyle
EndChar

StartChar: Aringacute
Encoding: 506 506 252
Width: 636
Flags: MW
HStem: 0 21G<21 148 21 21 481 481 481 613> 191 93<226 399 226 420 206 399> 576 98<310 312 310 310> 654 20G<237 394 394 394> 692 45<307 334 307 352> 818 43<305.5 333.5> 879 90<258 507>
VStem: 221 57<765.5 787> 364 56<765 788>
LayerCount: 2
Fore
SplineSet
321 692 m 0xdf80
 259 692 221 730 221 776 c 0
 221 822 258 861 322 861 c 0
 386 861 420 823 420 776 c 0
 420 728 383 692 321 692 c 0xdf80
320 737 m 0
 348 737 364 753 364 777 c 0
 364 799 348 818 319 818 c 0
 292 818 278 798 278 776 c 0
 278 755 294 737 320 737 c 0
364 969 m 1xd380
 507 969 l 1
 362 879 l 1
 258 879 l 1
 364 969 l 1xd380
420 191 m 1
 206 191 l 1
 148 0 l 1
 21 0 l 1
 237 674 l 1
 394 674 l 1
 613 0 l 1
 481 0 l 1
 420 191 l 1
226 284 m 1
 399 284 l 1
 346 450 l 2
 333 491 322 537 312 576 c 1
 310 576 l 1xe380
 300 537 290 490 278 450 c 2
 226 284 l 1
EndSplineSet
Position2: "'cpsp' Capital Spacing lookup 0 subtable" dx=10 dy=0 dh=20 dv=0
EndChar

StartChar: estimated
Encoding: 8494 8494 253
Width: 817
Flags: MW
HStem: -11 20<365 458 365 469> 316 19<175.5 641 177 641 641 642.5 177 782> 641 20<365 454>
VStem: 35 137<232 312 338.5 340 340 418> 646 136<316 524>
LayerCount: 2
Fore
SplineSet
782 316 m 2
 177 316 l 2
 174 316 172 315 172 312 c 2
 172 129 l 2
 172 121 176 114 181 108 c 0
 238 47 320 9 410 9 c 0
 506 9 592 52 650 120 c 1
 705 120 l 1
 637 41 529 -11 409 -11 c 0
 203 -11 35 139 35 325 c 0
 35 511 203 661 409 661 c 0
 615 661 782 511 782 325 c 0
 782 322 782 319 782 316 c 2
646 340 m 2
 646 524 l 2
 646 533 642 540 636 546 c 0
 578 604 498 641 410 641 c 0
 320 641 240 603 182 543 c 0
 176 537 172 529 172 520 c 2
 172 340 l 2
 172 337 174 335 177 335 c 2
 641 335 l 2
 644 335 646 337 646 340 c 2
EndSplineSet
EndChar

StartChar: zero.oldstyle
Encoding: 63280 63280 254
Width: 547
Flags: MW
HStem: -11 91<236 311.5 236 346> 407 91<236 311.5>
VStem: 36 117<194.5 292 194.5 316.5> 394 118<194.5 292>
LayerCount: 2
Fore
SplineSet
274 -11 m 0
 129 -11 36 94 36 243 c 0
 36 390 129 498 274 498 c 0
 418 498 512 392 512 243 c 0
 512 96 418 -11 274 -11 c 0
274 80 m 0
 349 80 394 146 394 243 c 0
 394 341 349 407 274 407 c 0
 198 407 153 341 153 243 c 0
 153 146 198 80 274 80 c 0
EndSplineSet
Substitution2: "'tnum' Tabular Numbers lookup 17 subtable" zero.taboldstyle
AlternateSubs2: "'aalt' Access All Alternates lookup 1 subtable" zero.taboldstyle
EndChar

StartChar: one.oldstyle
Encoding: 63281 63281 255
Width: 390
Flags: MW
HStem: 0 21G<179 298 179 179> 469 20G<198 298 298 298>
VStem: 179 119<0 381 381 381>
LayerCount: 2
Fore
SplineSet
298 0 m 1
 179 0 l 1
 179 381 l 1
 177 381 l 1
 47 320 l 1
 26 411 l 1
 198 489 l 1
 298 489 l 1
 298 0 l 1
EndSplineSet
Substitution2: "'tnum' Tabular Numbers lookup 17 subtable" one.taboldstyle
AlternateSubs2: "'aalt' Access All Alternates lookup 1 subtable" one.taboldstyle
EndChar

StartChar: two.oldstyle
Encoding: 63282 63282 256
Width: 463
Flags: MW
HStem: 0 96<295 437 295 437> 401 97<173.5 211>
VStem: 279 124<293.5 345>
LayerCount: 2
Fore
SplineSet
437 0 m 1
 23 0 l 1
 23 67 l 1
 78 104 l 1
 215 191 279 249 279 317 c 0
 279 373 240 401 182 401 c 0
 136 401 89 381 56 359 c 1
 27 438 l 1
 61 463 130 498 217 498 c 0
 330 498 403 437 403 338 c 0
 403 249 333 184 246 124 c 2
 200 92 l 1
 200 90 l 1
 230 94 270 96 295 96 c 2
 437 96 l 1
 437 0 l 1
EndSplineSet
Substitution2: "'tnum' Tabular Numbers lookup 17 subtable" two.taboldstyle
AlternateSubs2: "'aalt' Access All Alternates lookup 1 subtable" two.taboldstyle
EndChar

StartChar: three.oldstyle
Encoding: 63283 63283 257
Width: 454
Flags: MW
HStem: -121 21G -121 94<128 188.5 122.5 227.5> 161 86 403 95<171.5 207>
VStem: 272 122<323 357.5> 293 127<42.5 100.5>
LayerCount: 2
Fore
SplineSet
18 -100 m 1xb4
 32 -10 l 1
 58 -19 100 -27 145 -27 c 0
 232 -27 293 11 293 74 c 0x74
 293 127 240 161 156 161 c 0
 136 161 116 160 102 159 c 1
 101 246 l 1
 124 248 l 2
 207 254 272 283 272 335 c 0
 272 380 236 403 178 403 c 0
 129 403 80 383 53 369 c 1
 30 450 l 1
 67 475 137 498 206 498 c 0
 316 498 394 444 394 357 c 0x78
 394 289 343 236 275 218 c 1
 275 216 l 1
 354 205 420 156 420 73 c 0
 420 -47 297 -121 158 -121 c 0x74
 98 -121 44 -111 18 -100 c 1xb4
EndSplineSet
Substitution2: "'tnum' Tabular Numbers lookup 17 subtable" three.taboldstyle
AlternateSubs2: "'aalt' Access All Alternates lookup 1 subtable" three.taboldstyle
EndChar

StartChar: four.oldstyle
Encoding: 63284 63284 258
Width: 526
Flags: MW
HStem: -120 21G<309 423 309 309> 40 91<138 309 138 309 423 507> 396 96<307 312 307 307>
VStem: 309 114<-120 40 -120 40 131 292 292 309.5>
LayerCount: 2
Fore
SplineSet
507 40 m 1
 423 40 l 1
 423 -120 l 1
 309 -120 l 1
 309 40 l 1
 21 40 l 1
 21 119 l 1
 278 492 l 1
 423 492 l 1
 423 131 l 1
 507 131 l 1
 507 40 l 1
309 131 m 1
 309 292 l 2
 309 327 309 362 312 396 c 1
 307 396 l 1
 290 361 270 323 249 290 c 2
 136 134 l 1
 138 131 l 1
 309 131 l 1
EndSplineSet
Substitution2: "'tnum' Tabular Numbers lookup 17 subtable" four.taboldstyle
AlternateSubs2: "'aalt' Access All Alternates lookup 1 subtable" four.taboldstyle
EndChar

StartChar: five.oldstyle
Encoding: 63285 63285 259
Width: 455
Flags: MW
HStem: -121 21G<130.5 238> -121 92<130.5 186 127.5 238> 181 86 387 100<182 396 182 182>
VStem: 293 126<44.5 91>
LayerCount: 2
Fore
SplineSet
29 -103 m 1xb8
 43 -16 l 1
 65 -23 108 -29 147 -29 c 0
 225 -29 293 10 293 79 c 0
 293 103 284 124 268 141 c 0
 235 173 168 186 48 181 c 1
 101 487 l 1
 410 487 l 1
 396 387 l 1
 182 387 l 1
 159 267 l 1
 243 267 323 252 373 204 c 0
 403 175 419 135 419 88 c 0
 419 -33 320 -121 156 -121 c 0x78
 105 -121 55 -113 29 -103 c 1xb8
EndSplineSet
Substitution2: "'tnum' Tabular Numbers lookup 17 subtable" five.taboldstyle
AlternateSubs2: "'aalt' Access All Alternates lookup 1 subtable" five.taboldstyle
EndChar

StartChar: six.oldstyle
Encoding: 63286 63286 260
Width: 537
Flags: MW
HStem: -11 92<240 300 240 333> 319 82<277 304.5> 523 88<449 457>
VStem: 40 122<176 227 176 347> 377 122<161 237.5>
LayerCount: 2
Fore
SplineSet
449 611 m 1
 457 523 l 1
 279 514 193 433 173 343 c 1
 175 342 l 1
 199 371 246 401 308 401 c 0
 413 401 499 330 499 209 c 0
 499 76 392 -11 274 -11 c 0
 131 -11 40 91 40 242 c 0
 40 452 192 604 449 611 c 1
275 81 m 0
 325 81 377 120 377 202 c 0
 377 273 335 319 274 319 c 0
 234 319 203 300 185 279 c 0
 168 261 162 240 162 214 c 0
 162 138 205 81 275 81 c 0
EndSplineSet
Substitution2: "'tnum' Tabular Numbers lookup 17 subtable" six.taboldstyle
AlternateSubs2: "'aalt' Access All Alternates lookup 1 subtable" six.taboldstyle
EndChar

StartChar: seven.oldstyle
Encoding: 63287 63287 261
Width: 454
Flags: MW
HStem: -120 21G<154 154> 386 101<18 303 18 430>
VStem: 18 412<411 487 411 487 411 487>
LayerCount: 2
Fore
SplineSet
430 487 m 1
 430 411 l 1
 370 256 254 36 154 -120 c 1
 36 -103 l 1
 120 20 249 246 303 384 c 1
 303 386 l 1
 18 386 l 1
 18 487 l 1
 430 487 l 1
EndSplineSet
Substitution2: "'tnum' Tabular Numbers lookup 17 subtable" seven.taboldstyle
AlternateSubs2: "'aalt' Access All Alternates lookup 1 subtable" seven.taboldstyle
EndChar

StartChar: eight.oldstyle
Encoding: 63288 63288 262
Width: 535
Flags: MW
HStem: -11 85<233 295 233 330> 534 79<244.5 295>
VStem: 36 123<142.5 194.5 142.5 194.5> 59 120<429.5 476 429.5 493.5> 362 112<427.5 477.5> 371 127<136.5 190.5>
LayerCount: 2
Fore
SplineSet
376 325 m 1xe4
 376 321 l 1
 443 295 498 246 498 172 c 0
 498 62 397 -11 263 -11 c 0
 127 -11 36 60 36 159 c 0xe4
 36 230 84 282 154 313 c 1
 154 317 l 1
 98 342 59 384 59 444 c 0
 59 543 147 613 273 613 c 0
 402 613 474 540 474 458 c 0xd8
 474 397 436 354 376 325 c 1xe4
272 534 m 0xd8
 217 534 179 500 179 452 c 0
 179 407 218 375 284 357 c 1
 326 371 362 403 362 450 c 0
 362 505 318 534 272 534 c 0xd8
265 74 m 0xe4
 325 74 371 110 371 163 c 0
 371 218 325 257 250 277 c 1
 195 259 159 219 159 170 c 0
 159 115 201 74 265 74 c 0xe4
EndSplineSet
Substitution2: "'tnum' Tabular Numbers lookup 17 subtable" eight.taboldstyle
AlternateSubs2: "'aalt' Access All Alternates lookup 1 subtable" eight.taboldstyle
EndChar

StartChar: nine.oldstyle
Encoding: 63289 63289 263
Width: 537
Flags: MW
HStem: -121 88<74 82> 87 83<235.5 257.5> 405 93<239 295.5>
VStem: 38 122<247 325 247 341.5> 374 122<265 314>
LayerCount: 2
Fore
SplineSet
82 -121 m 1
 74 -33 l 1
 243 -26 334 42 362 142 c 1
 360 143 l 1
 339 115 288 87 227 87 c 0
 121 87 38 162 38 278 c 0
 38 405 139 498 269 498 c 0
 403 498 496 399 496 249 c 0
 496 17 332 -116 82 -121 c 1
264 170 m 0
 304 170 344 194 361 223 c 0
 369 234 374 254 374 276 c 0
 374 352 326 405 265 405 c 0
 213 405 160 365 160 285 c 0
 160 209 207 170 264 170 c 0
EndSplineSet
Substitution2: "'tnum' Tabular Numbers lookup 17 subtable" nine.taboldstyle
AlternateSubs2: "'aalt' Access All Alternates lookup 1 subtable" nine.taboldstyle
EndChar

StartChar: percent.oldstyle
Encoding: 63042 63042 264
Width: 858
Flags: MW
HStem: -8 69<644 693 644 710> 210 70<167.5 216.5 167.5 233.5> 322 70<643 694.5> 541 69<166 218>
VStem: 23 94<410 446.5 410 468> 265 93<371.5 447> 500 93<154 191 154 249> 741 94<152.5 228.5>
LayerCount: 2
Fore
SplineSet
194 610 m 0
 296 610 358 534 358 417 c 0
 358 280 278 210 189 210 c 0
 98 210 24 281 23 407 c 0
 23 529 94 610 194 610 c 0
191 541 m 0
 141 541 117 483 117 410 c 0
 116 335 143 280 192 280 c 0
 241 280 265 332 265 411 c 0
 265 483 245 541 191 541 c 0
289 -12 m 1
 219 -12 l 1
 569 613 l 1
 639 613 l 1
 289 -12 l 1
670 392 m 0
 773 392 835 315 835 198 c 0
 835 62 755 -8 665 -8 c 0
 575 -8 500 62 500 188 c 0
 500 310 571 392 670 392 c 0
668 322 m 0
 618 322 594 264 593 191 c 0
 593 117 620 61 668 61 c 0
 718 61 741 113 741 192 c 0
 741 265 721 322 668 322 c 0
EndSplineSet
Substitution2: "'lnum' Lining Figures lookup 15 subtable" percent
Substitution2: "'aalt' Access All Alternates lookup 0 subtable" percent
EndChar

StartChar: zero.fitted
Encoding: 63033 63033 265
Width: 536
Flags: MW
HStem: -11 94<235 305 235 342.5> 567 94<236 306>
VStem: 34 124<323 323> 379 123<249 402.5>
LayerCount: 2
Fore
SplineSet
272 661 m 0
 429 661 502 521 502 329 c 0
 502 120 420 -11 265 -11 c 0
 115 -11 35 125 34 323 c 0
 34 525 120 661 272 661 c 0
269 567 m 0
 203 567 157 486 158 323 c 0
 157 165 201 83 269 83 c 0
 341 83 379 171 379 327 c 0
 379 478 343 567 269 567 c 0
EndSplineSet
Substitution2: "'zero' Slashed Zero lookup 19 subtable" zero.slashfitted
Substitution2: "'tnum' Tabular Numbers lookup 17 subtable" zero
AlternateSubs2: "'aalt' Access All Alternates lookup 1 subtable" zero zero.slashfitted
EndChar

StartChar: one.fitted
Encoding: 63196 63196 266
Width: 356
Flags: MW
HStem: 0 21G<154 154 154 273> 630 20G<170 273 273 273>
VStem: 154 119<0 539 539 539>
LayerCount: 2
Fore
SplineSet
154 0 m 1
 154 539 l 1
 152 539 l 1
 33 479 l 1
 11 572 l 1
 170 650 l 1
 273 650 l 1
 273 0 l 1
 154 0 l 1
EndSplineSet
Substitution2: "'tnum' Tabular Numbers lookup 17 subtable" one
AlternateSubs2: "'aalt' Access All Alternates lookup 1 subtable" one
EndChar

StartChar: two.fitted
Encoding: 63034 63034 267
Width: 472
Flags: MW
HStem: 0 102<177 443 177 443> 561 100<173.5 232.5>
VStem: 306 123<452 481>
LayerCount: 2
Fore
SplineSet
443 0 m 1
 3 0 l 1
 3 75 l 1
 80 146 l 2
 233 288 305 366 306 452 c 0
 306 510 275 561 190 561 c 0
 132 561 83 532 51 507 c 1
 15 594 l 1
 62 632 133 661 214 661 c 0
 359 661 429 570 429 464 c 0
 429 350 347 258 233 153 c 2
 177 104 l 1
 177 102 l 1
 443 102 l 1
 443 0 l 1
EndSplineSet
Substitution2: "'tnum' Tabular Numbers lookup 17 subtable" two
AlternateSubs2: "'aalt' Access All Alternates lookup 1 subtable" two
EndChar

StartChar: three.fitted
Encoding: 63035 63035 268
Width: 476
Flags: MW
HStem: -11 98<152 230 152 269.5> 301 90<110 165 165 166 110 165> 563 98<177 225.5>
VStem: 294 125<468 504> 314 128<191 229.5>
LayerCount: 2
Fore
SplineSet
7 34 m 1xe8
 35 127 l 1
 60 112 121 87 183 87 c 0
 277 87 315 140 314 191 c 0xe8
 314 268 242 301 166 301 c 2
 110 301 l 1
 110 391 l 1
 165 391 l 2
 222 391 294 417 294 482 c 0
 294 526 261 563 190 563 c 0
 137 563 84 540 57 522 c 1
 29 611 l 1
 66 637 138 661 216 661 c 0
 350 661 419 587 419 502 c 0xf0
 419 434 379 378 299 350 c 1
 299 348 l 1
 378 334 442 274 442 186 c 0
 442 76 350 -11 189 -11 c 0
 110 -11 42 11 7 34 c 1xe8
EndSplineSet
Substitution2: "'tnum' Tabular Numbers lookup 17 subtable" three
AlternateSubs2: "'aalt' Access All Alternates lookup 1 subtable" three
EndChar

StartChar: four.fitted
Encoding: 63036 63036 269
Width: 527
Flags: MW
HStem: 0 21G<308 425 308 308> 165 93<132 308 132 308 425 508> 548 102<309 312 309 309>
VStem: 14 118<165 258 245 258> 308 117<0 165 258 435 435 453.5>
LayerCount: 2
Fore
SplineSet
425 0 m 1
 308 0 l 1
 308 165 l 1
 14 165 l 1
 14 245 l 1
 279 650 l 1
 425 650 l 1
 425 258 l 1
 508 258 l 1
 508 165 l 1
 425 165 l 1
 425 0 l 1
132 258 m 1
 308 258 l 1
 308 435 l 2
 308 472 310 510 312 548 c 1
 309 548 l 1
 288 507 271 474 251 438 c 2
 132 260 l 1
 132 258 l 1
EndSplineSet
Substitution2: "'tnum' Tabular Numbers lookup 17 subtable" four
AlternateSubs2: "'aalt' Access All Alternates lookup 1 subtable" four
EndChar

StartChar: five.fitted
Encoding: 63037 63037 270
Width: 485
Flags: MW
HStem: -11 97<151.5 217 151.5 265> 328 93<195.5 202> 548 102<177 427 177 177>
VStem: 322 126<166 242>
LayerCount: 2
Fore
SplineSet
427 650 m 1
 427 548 l 1
 177 548 l 1
 158 418 l 1
 173 420 186 421 205 421 c 0
 262 421 319 408 363 379 c 0
 412 348 448 293 448 214 c 0
 448 90 345 -11 185 -11 c 0
 110 -11 47 8 13 27 c 1
 38 120 l 1
 66 105 122 86 181 86 c 0
 253 86 322 127 322 205 c 0
 322 279 267 328 137 328 c 0
 101 328 74 326 49 322 c 1
 91 650 l 1
 427 650 l 1
EndSplineSet
Substitution2: "'tnum' Tabular Numbers lookup 17 subtable" five
AlternateSubs2: "'aalt' Access All Alternates lookup 1 subtable" five
EndChar

StartChar: six.fitted
Encoding: 63038 63038 271
Width: 537
Flags: MW
HStem: -11 92<238 309.5 238 347.5> 343 90<276 305> 563 96<431 440>
VStem: 33 122<237 245.5 237 331.5> 383 125<175 251.5>
LayerCount: 2
Fore
SplineSet
440 659 m 1
 440 563 l 1
 422 563 402 563 377 560 c 0
 241 544 175 460 159 370 c 1
 162 370 l 1
 194 407 243 433 309 433 c 0
 421 433 508 353 508 221 c 0
 508 97 417 -11 278 -11 c 0
 121 -11 33 109 33 269 c 0
 33 394 78 496 146 561 c 0
 206 617 285 649 377 657 c 0
 404 660 424 660 440 659 c 1
278 81 m 0
 341 81 383 136 383 214 c 0
 383 289 341 343 269 343 c 0
 223 343 182 315 163 276 c 0
 158 266 155 254 155 237 c 0
 157 151 198 81 278 81 c 0
EndSplineSet
Substitution2: "'tnum' Tabular Numbers lookup 17 subtable" six
AlternateSubs2: "'aalt' Access All Alternates lookup 1 subtable" six
EndChar

StartChar: seven.fitted
Encoding: 63039 63039 272
Width: 440
Flags: MW
HStem: 0 21G<35 165 35 35> 548 102<3 309 3 440>
VStem: 3 437<571 650 571 650 571 650>
LayerCount: 2
Fore
SplineSet
3 650 m 1
 440 650 l 1
 440 571 l 1
 165 0 l 1
 35 0 l 1
 309 546 l 1
 309 548 l 1
 3 548 l 1
 3 650 l 1
EndSplineSet
Substitution2: "'tnum' Tabular Numbers lookup 17 subtable" seven
AlternateSubs2: "'aalt' Access All Alternates lookup 1 subtable" seven
EndChar

StartChar: eight.fitted
Encoding: 63040 63040 273
Width: 536
Flags: MW
HStem: -11 87<234.5 301.5 234.5 334.5> 576 85<237 301>
VStem: 34 126<181 207.5> 57 117<461.5 511.5 461.5 536> 361 117<469.5 506.5> 377 125<145 206>
LayerCount: 2
Fore
SplineSet
265 -11 m 0xe4
 113 -11 34 76 34 167 c 0xe4
 34 248 81 303 156 336 c 1
 156 339 l 1
 88 372 57 426 57 483 c 0
 57 589 151 661 274 661 c 0
 414 661 478 577 478 497 c 0xd8
 478 442 449 385 378 350 c 1
 378 347 l 1
 449 320 502 264 502 183 c 0
 502 67 404 -11 265 -11 c 0xe4
269 76 m 0
 334 76 377 117 377 173 c 0
 377 239 328 275 256 295 c 1
 195 277 160 235 160 181 c 0
 158 126 200 76 269 76 c 0
268 576 m 0xd8
 206 576 174 535 174 488 c 0
 174 435 218 403 280 386 c 1
 324 399 361 435 361 484 c 0
 361 529 334 576 268 576 c 0xd8
EndSplineSet
Substitution2: "'tnum' Tabular Numbers lookup 17 subtable" eight
AlternateSubs2: "'aalt' Access All Alternates lookup 1 subtable" eight
EndChar

StartChar: nine.fitted
Encoding: 63041 63041 274
Width: 539
Flags: MW
HStem: -9 99 227 90<230 263.5> 570 91<233 304>
VStem: 35 122<436 475.5 436 491> 376 126<284 463 397.5 406>
LayerCount: 2
Fore
SplineSet
93 -9 m 1
 93 88 l 1
 112 86 131 87 161 90 c 0
 209 94 257 111 293 140 c 0
 335 174 364 223 376 284 c 1
 374 285 l 1
 341 248 295 227 232 227 c 0
 119 227 35 309 35 429 c 0
 35 553 131 661 270 661 c 0
 421 661 502 542 502 384 c 0
 502 245 456 146 389 82 c 0
 332 29 254 -1 167 -7 c 0
 139 -10 111 -10 93 -9 c 1
264 570 m 0
 202 570 157 515 157 436 c 0
 158 369 196 317 264 317 c 0
 314 317 350 340 369 371 c 0
 373 379 376 389 376 406 c 0
 377 494 344 570 264 570 c 0
EndSplineSet
Substitution2: "'tnum' Tabular Numbers lookup 17 subtable" nine
AlternateSubs2: "'aalt' Access All Alternates lookup 1 subtable" nine
EndChar

StartChar: zero.slashfitted
Encoding: 57352 57352 275
Width: 536
Flags: MW
HStem: -11 94<250.5 304.5 250.5 342.5> 567 94<232.5 286>
VStem: 34 118<323 401.5 304.5 424> 384 118<249 348>
LayerCount: 2
Fore
SplineSet
168 208 m 1
 346 521 l 1
 330 549 304 567 268 567 c 0
 197 567 152 476 152 327 c 0
 152 282 157 243 168 208 c 1
371 444 m 1
 192 127 l 1
 211 98 234 83 267 83 c 0
 342 83 384 171 384 327 c 0
 384 369 380 407 371 444 c 1
272 661 m 0
 429 661 502 521 502 329 c 0
 502 120 420 -11 265 -11 c 0
 115 -11 35 125 34 323 c 0
 34 525 120 661 272 661 c 0
EndSplineSet
AlternateSubs2: "'aalt' Access All Alternates lookup 1 subtable" zero.fitted zero.oldstyle zero.taboldstyle zero.superior zero.inferior zero.numerator zero.denominator
EndChar

StartChar: zero.taboldstyle
Encoding: 63043 63043 276
Width: 547
Flags: MW
HStem: -11 91<236 311.5 236 346> 407 91<236 311.5>
VStem: 36 117<194.5 292 194.5 316.5> 394 118<194.5 292>
LayerCount: 2
Fore
SplineSet
274 -11 m 0
 129 -11 36 94 36 243 c 0
 36 390 129 498 274 498 c 0
 418 498 512 392 512 243 c 0
 512 96 418 -11 274 -11 c 0
274 80 m 0
 349 80 394 146 394 243 c 0
 394 341 349 407 274 407 c 0
 198 407 153 341 153 243 c 0
 153 146 198 80 274 80 c 0
EndSplineSet
Substitution2: "'pnum' Proportional Numbers lookup 16 subtable" zero.oldstyle
Substitution2: "'lnum' Lining Figures lookup 15 subtable" zero
AlternateSubs2: "'aalt' Access All Alternates lookup 1 subtable" zero zero.oldstyle
EndChar

StartChar: one.taboldstyle
Encoding: 63044 63044 277
Width: 547
Flags: MW
HStem: 0 21G<273 392 273 273> 469 20G<291 392 392 392>
VStem: 273 119<0 385 385 385>
LayerCount: 2
Fore
SplineSet
392 0 m 1
 273 0 l 1
 273 385 l 1
 271 385 l 1
 92 309 l 1
 74 400 l 1
 291 489 l 1
 392 489 l 1
 392 0 l 1
EndSplineSet
Substitution2: "'pnum' Proportional Numbers lookup 16 subtable" one.oldstyle
Substitution2: "'lnum' Lining Figures lookup 15 subtable" one
AlternateSubs2: "'aalt' Access All Alternates lookup 1 subtable" one one.oldstyle
EndChar

StartChar: two.taboldstyle
Encoding: 63045 63045 278
Width: 547
Flags: MW
HStem: 0 96<335 477 335 477> 401 97<214 251>
VStem: 319 124<293.5 345>
LayerCount: 2
Fore
SplineSet
477 0 m 1
 63 0 l 1
 63 67 l 1
 118 104 l 1
 255 191 319 249 319 317 c 0
 319 373 280 401 222 401 c 0
 176 401 129 381 96 359 c 1
 67 438 l 1
 101 463 171 498 257 498 c 0
 370 498 443 437 443 338 c 0
 443 249 373 184 286 124 c 2
 240 92 l 1
 240 90 l 1
 270 94 310 96 335 96 c 2
 477 96 l 1
 477 0 l 1
EndSplineSet
Substitution2: "'pnum' Proportional Numbers lookup 16 subtable" two.oldstyle
Substitution2: "'lnum' Lining Figures lookup 15 subtable" two
AlternateSubs2: "'aalt' Access All Alternates lookup 1 subtable" two two.oldstyle
EndChar

StartChar: three.taboldstyle
Encoding: 63046 63046 279
Width: 547
Flags: MW
HStem: -121 21G -121 94<170 230 164.5 269> 161 86 403 95<213 248.5>
VStem: 313 123<323 357.5> 335 127<42.5 100.5>
LayerCount: 2
Fore
SplineSet
60 -100 m 1xb8
 74 -10 l 1
 100 -19 142 -27 187 -27 c 0
 273 -27 335 11 335 74 c 0x74
 335 127 281 161 198 161 c 0
 177 161 157 160 143 159 c 1
 142 246 l 1
 166 248 l 2
 249 254 313 283 313 335 c 0
 313 380 278 403 219 403 c 0
 171 403 122 383 94 369 c 1
 72 450 l 1
 109 475 178 498 248 498 c 0
 358 498 436 444 436 357 c 0x78
 436 289 385 236 317 218 c 1
 317 216 l 1
 395 205 462 156 462 73 c 0
 462 -47 338 -121 200 -121 c 0x74
 140 -121 86 -111 60 -100 c 1xb8
EndSplineSet
Substitution2: "'pnum' Proportional Numbers lookup 16 subtable" three.oldstyle
Substitution2: "'lnum' Lining Figures lookup 15 subtable" three
AlternateSubs2: "'aalt' Access All Alternates lookup 1 subtable" three three.oldstyle
EndChar

StartChar: four.taboldstyle
Encoding: 63047 63047 280
Width: 547
Flags: MW
HStem: -120 21G<318 432 318 318> 40 91<147 318 147 318 432 516> 396 96<317 321 317 317>
VStem: 318 114<-120 40 -120 40 131 292 292 309.5>
LayerCount: 2
Fore
SplineSet
516 40 m 1
 432 40 l 1
 432 -120 l 1
 318 -120 l 1
 318 40 l 1
 30 40 l 1
 30 119 l 1
 287 492 l 1
 432 492 l 1
 432 131 l 1
 516 131 l 1
 516 40 l 1
318 131 m 1
 318 292 l 2
 318 327 318 362 321 396 c 1
 317 396 l 1
 300 361 279 323 258 290 c 2
 145 134 l 1
 147 131 l 1
 318 131 l 1
EndSplineSet
Substitution2: "'pnum' Proportional Numbers lookup 16 subtable" four.oldstyle
Substitution2: "'lnum' Lining Figures lookup 15 subtable" four
AlternateSubs2: "'aalt' Access All Alternates lookup 1 subtable" four four.oldstyle
EndChar

StartChar: five.taboldstyle
Encoding: 63048 63048 281
Width: 547
Flags: MW
HStem: -121 21G<175 282.5> -121 92<175 230.5 172 282.5> 181 86 387 100<226 440 226 226>
VStem: 338 126<44.5 91>
LayerCount: 2
Fore
SplineSet
73 -103 m 1xb8
 87 -16 l 1
 110 -23 152 -29 192 -29 c 0
 269 -29 338 10 338 79 c 0
 338 103 329 124 312 141 c 0
 279 173 213 186 93 181 c 1
 145 487 l 1
 454 487 l 1
 440 387 l 1
 226 387 l 1
 203 267 l 1
 287 267 368 252 417 204 c 0
 447 175 464 135 464 88 c 0
 464 -33 365 -121 200 -121 c 0x78
 150 -121 100 -113 73 -103 c 1xb8
EndSplineSet
Substitution2: "'pnum' Proportional Numbers lookup 16 subtable" five.oldstyle
Substitution2: "'lnum' Lining Figures lookup 15 subtable" five
AlternateSubs2: "'aalt' Access All Alternates lookup 1 subtable" five five.oldstyle
EndChar

StartChar: six.taboldstyle
Encoding: 63049 63049 282
Width: 547
Flags: MW
HStem: -11 92<248 308 248 341> 319 82<285.5 312.5> 523 88<457 465>
VStem: 48 122<176 227 176 347> 385 122<161 237.5>
LayerCount: 2
Fore
SplineSet
457 611 m 1
 465 523 l 1
 287 514 202 433 181 343 c 1
 184 342 l 1
 207 371 254 401 317 401 c 0
 422 401 507 330 507 209 c 0
 507 76 400 -11 282 -11 c 0
 139 -11 48 91 48 242 c 0
 48 452 200 604 457 611 c 1
283 81 m 0
 333 81 385 120 385 202 c 0
 385 273 343 319 282 319 c 0
 242 319 212 300 194 279 c 0
 176 261 170 240 170 214 c 0
 170 138 213 81 283 81 c 0
EndSplineSet
Substitution2: "'pnum' Proportional Numbers lookup 16 subtable" six.oldstyle
Substitution2: "'lnum' Lining Figures lookup 15 subtable" six
AlternateSubs2: "'aalt' Access All Alternates lookup 1 subtable" six six.oldstyle
EndChar

StartChar: seven.taboldstyle
Encoding: 63050 63050 283
Width: 547
Flags: MW
HStem: -120 21G<199 199> 386 101<63 349 63 475>
VStem: 63 412<411 487 411 487 411 487>
LayerCount: 2
Fore
SplineSet
475 487 m 1
 475 411 l 1
 415 256 299 36 199 -120 c 1
 81 -103 l 1
 165 20 294 246 349 384 c 1
 349 386 l 1
 63 386 l 1
 63 487 l 1
 475 487 l 1
EndSplineSet
Substitution2: "'pnum' Proportional Numbers lookup 16 subtable" seven.oldstyle
Substitution2: "'lnum' Lining Figures lookup 15 subtable" seven
AlternateSubs2: "'aalt' Access All Alternates lookup 1 subtable" seven seven.oldstyle
EndChar

StartChar: eight.taboldstyle
Encoding: 63051 63051 284
Width: 547
Flags: MW
HStem: -11 85<238.5 301 238.5 335> 534 79<249.5 300.5>
VStem: 41 123<142.5 194.5 142.5 194.5> 64 120<429.5 476 429.5 493.5> 367 112<427.5 477.5> 376 127<136.5 190.5>
LayerCount: 2
Fore
SplineSet
381 325 m 1xe4
 381 321 l 1
 449 295 503 246 503 172 c 0
 503 62 402 -11 268 -11 c 0
 132 -11 41 60 41 159 c 0xe4
 41 230 89 282 159 313 c 1
 159 317 l 1
 104 342 64 384 64 444 c 0
 64 543 152 613 278 613 c 0
 407 613 479 540 479 458 c 0xd8
 479 397 441 354 381 325 c 1xe4
277 534 m 0xd8
 222 534 184 500 184 452 c 0
 184 407 223 375 289 357 c 1
 331 371 367 403 367 450 c 0
 367 505 324 534 277 534 c 0xd8
271 74 m 0xe4
 331 74 376 110 376 163 c 0
 376 218 330 257 255 277 c 1
 200 259 164 219 164 170 c 0
 164 115 206 74 271 74 c 0xe4
EndSplineSet
Substitution2: "'pnum' Proportional Numbers lookup 16 subtable" eight.oldstyle
Substitution2: "'lnum' Lining Figures lookup 15 subtable" eight
AlternateSubs2: "'aalt' Access All Alternates lookup 1 subtable" eight eight.oldstyle
EndChar

StartChar: nine.taboldstyle
Encoding: 63052 63052 285
Width: 547
Flags: MW
HStem: -121 88<79 86> 87 83<239.5 262> 405 93<243.5 300.5>
VStem: 42 123<247 325 247 341.5> 378 123<265 314>
LayerCount: 2
Fore
SplineSet
86 -121 m 1
 79 -33 l 1
 248 -26 339 42 367 142 c 1
 365 143 l 1
 344 115 293 87 231 87 c 0
 125 87 42 162 42 278 c 0
 42 405 143 498 274 498 c 0
 408 498 501 399 501 249 c 0
 501 17 337 -116 86 -121 c 1
268 170 m 0
 309 170 348 194 365 223 c 0
 373 234 378 254 378 276 c 0
 378 352 331 405 270 405 c 0
 217 405 165 365 165 285 c 0
 165 209 211 170 268 170 c 0
EndSplineSet
Substitution2: "'pnum' Proportional Numbers lookup 16 subtable" nine.oldstyle
Substitution2: "'lnum' Lining Figures lookup 15 subtable" nine
AlternateSubs2: "'aalt' Access All Alternates lookup 1 subtable" nine nine.oldstyle
EndChar

StartChar: dollar.taboldstyle
Encoding: 63059 63059 286
Width: 547
Flags: MW
HStem: -85 170<237 275.5 225.5 311 237 237> 407 167<276 317 242 324>
VStem: 93 123<344.5 373.5 344.5 386.5> 237 74<-85 -2 -2 -2> 242 75<489 574 489 574 489 574> 340 128<121.5 154>
LayerCount: 2
Fore
SplineSet
311 -85 m 1xf4
 237 -85 l 1
 237 -2 l 1xf4
 179 0 117 17 81 40 c 1
 109 123 l 1
 140 103 201 85 250 85 c 0
 301 85 340 104 340 139 c 0
 340 169 318 186 248 209 c 0
 139 244 93 283 93 352 c 0xe4
 93 421 151 471 242 485 c 1
 242 574 l 1
 317 574 l 1
 317 489 l 1xec
 372 486 419 471 447 456 c 1
 420 376 l 1
 395 390 348 407 300 407 c 0
 252 407 216 388 216 359 c 0
 216 330 234 316 315 290 c 0
 425 256 468 211 468 145 c 0xe4
 468 79 414 18 311 1 c 1
 311 -85 l 1xf4
EndSplineSet
Substitution2: "'lnum' Lining Figures lookup 15 subtable" dollar
AlternateSubs2: "'aalt' Access All Alternates lookup 1 subtable" dollar
EndChar

StartChar: cent.taboldstyle
Encoding: 63060 63060 287
Width: 547
Flags: MW
HStem: -31 156<286.5 335 263 342> 375 150<284 335 263 341>
VStem: 80 115<208 288 208 297.5> 263 72<-31 42 -31 43 -31 43 457 525>
LayerCount: 2
Fore
SplineSet
417 143 m 1
 432 63 l 1
 413 54 375 43 335 42 c 1
 335 -31 l 1
 263 -31 l 1
 263 43 l 1
 154 57 80 131 80 245 c 0
 80 350 149 435 263 454 c 1
 263 525 l 1
 335 525 l 1
 335 457 l 1
 370 457 407 448 429 439 c 1
 410 359 l 1
 391 368 360 375 322 375 c 0
 246 375 195 326 195 250 c 0
 195 166 252 125 321 125 c 0
 363 125 395 133 417 143 c 1
EndSplineSet
Substitution2: "'lnum' Lining Figures lookup 15 subtable" cent
AlternateSubs2: "'aalt' Access All Alternates lookup 1 subtable" cent
EndChar

StartChar: Euro.taboldstyle
Encoding: 63054 63054 288
Width: 547
Flags: MW
HStem: -11 92<351 385> 178 59<40 96 40 105 40 96 228 228 228 454> 289 59<41 97 41 106 228 454> 449 90<352 395>
VStem: 95 119<237 263.5>
LayerCount: 2
Fore
SplineSet
483 105 m 1
 497 22 l 1
 470 6 416 -11 354 -11 c 0
 283 -11 215 13 168 61 c 0
 138 91 116 132 105 178 c 1
 40 178 l 1
 40 237 l 1
 96 237 l 1
 96 247 95 255 95 260 c 0
 95 267 95 278 97 289 c 1
 41 289 l 1
 41 348 l 1
 106 348 l 1
 117 393 140 432 170 462 c 0
 221 513 293 539 367 539 c 0
 427 539 470 524 495 512 c 1
 470 428 l 1
 450 438 417 449 373 449 c 0
 331 449 291 436 261 406 c 0
 245 391 233 371 228 348 c 1
 454 348 l 1
 454 289 l 1
 214 289 l 1
 213 279 213 270 213 264 c 0
 213 256 213 248 214 237 c 1
 454 237 l 1
 454 178 l 1
 228 178 l 1
 234 156 244 138 258 124 c 0
 290 94 328 81 374 81 c 0
 418 81 460 93 483 105 c 1
EndSplineSet
Substitution2: "'lnum' Lining Figures lookup 15 subtable" Euro
Substitution2: "'aalt' Access All Alternates lookup 0 subtable" Euro
EndChar

StartChar: florin.taboldstyle
Encoding: 63055 63055 289
Width: 547
Flags: MW
HStem: -122 93<99.5 103 94 118> 270 75<124 218 124 208 336 448> 518 95<406 445>
VStem: 33 472 221 118.5
LayerCount: 2
Fore
SplineSet
124 270 m 1xf0
 124 345 l 1
 218 345 l 1
 224 397 l 2
 233 478 273 613 429 613 c 0
 461 613 489 605 505 597 c 1
 484 509 l 1
 471 514 455 518 435 518 c 0
 377 518 351 469 343 406 c 2
 336 345 l 1xe8
 448 345 l 1
 448 270 l 1
 327 270 l 1
 305 96 l 2
 290 -30 249 -123 118 -122 c 0
 81 -122 49 -114 33 -106 c 1
 52 -19 l 1
 68 -26 85 -29 103 -29 c 0
 158 -28 178 12 191 120 c 2
 208 270 l 1
 124 270 l 1xf0
EndSplineSet
Substitution2: "'lnum' Lining Figures lookup 15 subtable" florin
Substitution2: "'aalt' Access All Alternates lookup 0 subtable" florin
EndChar

StartChar: sterling.taboldstyle
Encoding: 63057 63057 290
Width: 547
Flags: MW
HStem: 0 97<220 499 220 499> 226 71<70 149 70 164 70 149 277 277 277 410> 457 96<325.5 377>
VStem: 143 115<342 380.5 339 408> 167 111<164 206.5>
LayerCount: 2
Fore
SplineSet
499 0 m 1xf0
 61 0 l 1
 61 66 l 1
 124 92 167 137 167 191 c 0
 167 203 166 215 164 226 c 1
 70 226 l 1
 70 297 l 1xe8
 149 297 l 1
 146 315 143 333 143 351 c 0
 143 465 223 553 354 553 c 0
 404 553 445 541 468 528 c 1
 446 438 l 1
 426 449 395 457 359 457 c 0
 292 457 258 413 258 348 c 0
 258 330 261 313 264 297 c 1xf0
 410 297 l 1
 410 226 l 1
 277 226 l 1
 278 219 278 210 278 203 c 0
 275 155 249 119 220 99 c 1
 220 97 l 1xe8
 499 97 l 1
 499 0 l 1xf0
EndSplineSet
Substitution2: "'lnum' Lining Figures lookup 15 subtable" sterling
Substitution2: "'aalt' Access All Alternates lookup 0 subtable" sterling
EndChar

StartChar: yen.taboldstyle
Encoding: 63058 63058 291
Width: 547
Flags: MW
HStem: 109 62<62 213 62 213 329 481> 226 61<62 183 62 213 62 183 360 481>
VStem: 213 116<0 109 0 109 171 226>
LayerCount: 2
Fore
SplineSet
329 0 m 1
 213 0 l 1
 213 109 l 1
 62 109 l 1
 62 171 l 1
 213 171 l 1
 213 226 l 1
 62 226 l 1
 62 287 l 1
 183 287 l 1
 35 528 l 1
 164 528 l 1
 234 390 l 2
 250 355 262 329 274 299 c 1
 276 299 l 1
 289 329 303 358 319 391 c 2
 392 528 l 1
 517 528 l 1
 360 287 l 1
 481 287 l 1
 481 226 l 1
 329 226 l 1
 329 171 l 1
 481 171 l 1
 481 109 l 1
 329 109 l 1
 329 0 l 1
EndSplineSet
Substitution2: "'lnum' Lining Figures lookup 15 subtable" yen
Substitution2: "'aalt' Access All Alternates lookup 0 subtable" yen
EndChar

StartChar: numbersign.taboldstyle
Encoding: 63056 63056 292
Width: 547
Flags: MW
HStem: 158 77<49 131 49 143 49 207 219 303 392 476> 362 77<75 161 75 172 248 333 75 236 421 502>
VStem: 49 453<158 439 235 439>
LayerCount: 2
Fore
SplineSet
219 235 m 1
 316 235 l 1
 333 362 l 1
 236 362 l 1
 219 235 l 1
185 -6 m 1
 108 -6 l 1
 131 158 l 1
 49 158 l 1
 49 235 l 1
 143 235 l 1
 161 362 l 1
 75 362 l 1
 75 439 l 1
 172 439 l 1
 194 598 l 1
 269 598 l 1
 248 439 l 1
 345 439 l 1
 367 598 l 1
 443 598 l 1
 421 439 l 1
 502 439 l 1
 502 362 l 1
 409 362 l 1
 392 235 l 1
 476 235 l 1
 476 158 l 1
 379 158 l 1
 357 -6 l 1
 281 -6 l 1
 303 158 l 1
 207 158 l 1
 185 -6 l 1
EndSplineSet
Substitution2: "'lnum' Lining Figures lookup 15 subtable" numbersign
Substitution2: "'aalt' Access All Alternates lookup 0 subtable" numbersign
EndChar

StartChar: zero.superior
Encoding: 8304 8304 293
Width: 359
Flags: MW
HStem: 438 65<159.5 200 159.5 233> 772 66<159.5 200>
VStem: 22 93<593.5 682 593.5 695> 244 93<594 682>
LayerCount: 2
Fore
SplineSet
178 438 m 0
 75 438 22 520 22 637 c 0
 22 753 75 838 180 838 c 0
 285 838 337 755 337 639 c 0
 337 527 288 438 178 438 c 0
179 503 m 0
 221 503 244 550 244 638 c 0
 244 726 221 772 179 772 c 0
 140 772 115 726 115 638 c 0
 115 549 140 503 179 503 c 0
EndSplineSet
EndChar

StartChar: one.superior
Encoding: 65539 -1 294
Width: 275
Flags: MW
HStem: 443 390<125 209 125 209 113 209> 753 80<111 209 111 209>
VStem: 113 96<443 753 753 753>
LayerCount: 2
Fore
SplineSet
209 443 m 1xa0
 113 443 l 1
 113 753 l 1
 111 753 l 1
 35 718 l 1
 21 787 l 1
 125 833 l 1
 209 833 l 1x60
 209 443 l 1xa0
EndSplineSet
EndChar

StartChar: two.superior
Encoding: 65540 -1 295
Width: 333
Flags: MW
HStem: 443 72<147 304 147 304> 762 76<126 152>
VStem: 196 101<684 720.5>
LayerCount: 2
Fore
SplineSet
14 443 m 1
 14 490 l 1
 76 547 l 2
 155 618 196 658 196 704 c 0
 196 737 174 762 130 762 c 0
 96 762 65 747 45 733 c 1
 19 795 l 1
 49 818 98 838 154 838 c 0
 251 838 297 782 297 721 c 0
 297 647 241 597 175 540 c 2
 147 517 l 1
 147 515 l 1
 304 515 l 1
 304 443 l 1
 14 443 l 1
EndSplineSet
EndChar

StartChar: three.superior
Encoding: 65541 -1 296
Width: 328
Flags: MW
HStem: 438 67<109 150.5 107 188> 619 58<80 108 108 109 80 108> 770 68<128 154>
VStem: 191 99<720 739.5> 204 101<545.5 580.5>
LayerCount: 2
Fore
SplineSet
46 745 m 1xe8
 26 806 l 1
 53 822 101 838 155 838 c 0
 247 838 290 793 290 741 c 0xf0
 290 699 257 667 210 652 c 1
 210 650 l 1
 264 643 305 606 305 555 c 0
 305 489 241 438 135 438 c 0
 83 438 35 450 9 466 c 1
 30 531 l 1
 48 520 89 505 125 505 c 0
 176 505 204 531 204 560 c 0
 204 601 157 619 109 619 c 2xe8
 80 619 l 1
 80 677 l 1
 108 677 l 2
 143 677 191 691 191 728 c 0
 191 751 174 770 134 770 c 0xf0
 98 770 64 756 46 745 c 1xe8
EndSplineSet
EndChar

StartChar: four.superior
Encoding: 8308 8308 297
Width: 372
Flags: MW
HStem: 538 64<109 209 109 209 299 352> 764 71<210 213 210 210>
VStem: 209 90<443 538 602 695 695 707>
LayerCount: 2
Fore
SplineSet
299 443 m 1
 209 443 l 1
 209 538 l 1
 18 538 l 1
 18 591 l 1
 189 835 l 1
 299 835 l 1
 299 602 l 1
 352 602 l 1
 352 538 l 1
 299 538 l 1
 299 443 l 1
209 602 m 1
 209 695 l 2
 209 719 211 742 213 764 c 1
 210 764 l 1
 198 740 187 720 175 701 c 2
 107 603 l 1
 109 602 l 1
 209 602 l 1
EndSplineSet
EndChar

StartChar: five.superior
Encoding: 8309 8309 298
Width: 330
Flags: MW
HStem: 438 67<110 147.5 109.5 183.5> 635 62<86 163.5> 761 72<127 285 127 127>
VStem: 210 90<547 588>
LayerCount: 2
Fore
SplineSet
285 833 m 1
 285 761 l 1
 127 761 l 1
 117 696 l 1
 124 697 135 697 145 697 c 0
 182 697 221 691 249 672 c 0
 278 654 300 620 300 574 c 0
 300 497 235 438 132 438 c 0
 88 438 42 449 20 460 c 1
 36 526 l 1
 54 517 91 505 128 505 c 0
 167 505 210 526 210 568 c 0
 210 608 179 635 97 635 c 0
 75 635 56 633 40 631 c 1
 66 833 l 1
 285 833 l 1
EndSplineSet
EndChar

StartChar: six.superior
Encoding: 8310 8310 299
Width: 349
Flags: MW
HStem: 438 65<156 196.5 156 220> 644 60<183.5 194.5> 769 67<244 282>
VStem: 22 87<563 588.5 563 642.5> 238 89<553.5 593.5>
LayerCount: 2
Fore
SplineSet
282 836 m 1
 282 769 l 1
 272 770 257 770 244 769 c 0
 167 762 124 722 112 670 c 1
 114 670 l 1
 132 688 165 704 202 704 c 0
 276 704 327 655 327 579 c 0
 327 495 260 438 180 438 c 0
 74 438 22 515 22 607 c 0
 22 678 49 739 91 778 c 0
 129 813 177 832 243 835 c 0
 258 837 273 837 282 836 c 1
179 503 m 0
 214 503 238 533 238 574 c 0
 238 613 216 644 173 644 c 0
 146 644 123 626 113 605 c 0
 111 599 109 593 109 584 c 0
 109 542 133 503 179 503 c 0
EndSplineSet
EndChar

StartChar: seven.superior
Encoding: 8311 8311 300
Width: 316
Flags: MW
HStem: 761 72<22 208 22 302>
VStem: 22 280<778 833 778 833 778 833>
LayerCount: 2
Fore
SplineSet
22 833 m 1
 302 833 l 1
 302 778 l 1
 134 443 l 1
 40 443 l 1
 208 760 l 1
 208 761 l 1
 22 761 l 1
 22 833 l 1
EndSplineSet
EndChar

